G04 #@! TF.GenerationSoftware,KiCad,Pcbnew,(5.0.0-rc2-dev-130-g0bdae22af-dirty)*
G04 #@! TF.CreationDate,2018-12-21T20:08:29+02:00*
G04 #@! TF.ProjectId,ccu,6363752E6B696361645F706362000000,rev?*
G04 #@! TF.SameCoordinates,Original*
G04 #@! TF.FileFunction,Paste,Top*
G04 #@! TF.FilePolarity,Positive*
%FSLAX46Y46*%
G04 Gerber Fmt 4.6, Leading zero omitted, Abs format (unit mm)*
G04 Created by KiCad (PCBNEW (5.0.0-rc2-dev-130-g0bdae22af-dirty)) date Fri Dec 21 20:08:29 2018*
%MOMM*%
%LPD*%
G01*
G04 APERTURE LIST*
%ADD10R,0.700000X1.350000*%
%ADD11R,0.939800X0.762000*%
%ADD12R,0.762000X0.939800*%
%ADD13R,1.399540X1.297940*%
%ADD14R,0.400000X1.200000*%
%ADD15R,3.600000X1.900000*%
%ADD16R,1.297940X1.399540*%
%ADD17R,1.900000X2.179320*%
%ADD18R,3.300000X2.400000*%
%ADD19R,0.998220X1.899920*%
%ADD20R,1.905000X0.635000*%
%ADD21R,1.600000X2.600000*%
%ADD22R,0.398780X1.498600*%
%ADD23R,0.279400X1.498600*%
%ADD24R,1.498600X0.398780*%
%ADD25R,1.498600X0.279400*%
%ADD26R,1.524000X0.600000*%
%ADD27R,1.524000X0.635000*%
%ADD28R,1.300000X2.000000*%
%ADD29R,2.000000X1.300000*%
%ADD30R,0.998220X3.997960*%
%ADD31R,2.700000X2.400000*%
%ADD32R,0.600000X1.524000*%
%ADD33R,0.635000X1.524000*%
%ADD34R,0.300000X1.000000*%
%ADD35R,2.500000X2.500000*%
%ADD36R,1.000000X0.300000*%
%ADD37R,6.300000X6.100000*%
%ADD38R,0.600000X2.000000*%
%ADD39R,1.400000X1.900000*%
%ADD40R,6.100000X5.970000*%
%ADD41R,0.630000X0.830000*%
%ADD42R,2.400000X2.700000*%
G04 APERTURE END LIST*
D10*
X159100000Y-135000000D03*
X157100000Y-135000000D03*
X158100000Y-137600000D03*
D11*
X171000000Y-132838200D03*
X171000000Y-131161800D03*
D12*
X175161800Y-135300000D03*
X176838200Y-135300000D03*
X158838200Y-133300000D03*
X157161800Y-133300000D03*
X152238200Y-117700000D03*
X150561800Y-117700000D03*
X165138200Y-55500000D03*
X163461800Y-55500000D03*
D11*
X142900000Y-94961800D03*
X142900000Y-96638200D03*
X149300000Y-96638200D03*
X149300000Y-94961800D03*
X155700000Y-94961800D03*
X155700000Y-96638200D03*
X162100000Y-96638200D03*
X162100000Y-94961800D03*
X168500000Y-94961800D03*
X168500000Y-96638200D03*
X174900000Y-96638200D03*
X174900000Y-94961800D03*
X181300000Y-96638200D03*
X181300000Y-94961800D03*
D13*
X142900000Y-84465300D03*
X142900000Y-80934700D03*
X138300000Y-80934700D03*
X138300000Y-84465300D03*
X149300000Y-80934700D03*
X149300000Y-84465300D03*
X144700000Y-80934700D03*
X144700000Y-84465300D03*
X155600000Y-84465300D03*
X155600000Y-80934700D03*
X151100000Y-80934700D03*
X151100000Y-84465300D03*
X161900000Y-84465300D03*
X161900000Y-80934700D03*
X157400000Y-80934700D03*
X157400000Y-84465300D03*
X168400000Y-80934700D03*
X168400000Y-84465300D03*
X163700000Y-80934700D03*
X163700000Y-84465300D03*
X174800000Y-84465300D03*
X174800000Y-80934700D03*
X170200000Y-84465300D03*
X170200000Y-80934700D03*
D12*
X140538200Y-137000000D03*
X138861800Y-137000000D03*
X142261800Y-137000000D03*
X143938200Y-137000000D03*
X194638200Y-82000000D03*
X192961800Y-82000000D03*
X192561800Y-83700000D03*
X194238200Y-83700000D03*
D11*
X139700000Y-94961800D03*
X139700000Y-96638200D03*
X138100000Y-94961800D03*
X138100000Y-96638200D03*
X141300000Y-94961800D03*
X141300000Y-96638200D03*
X146100000Y-94961800D03*
X146100000Y-96638200D03*
X144500000Y-94961800D03*
X144500000Y-96638200D03*
X147700000Y-94961800D03*
X147700000Y-96638200D03*
X152500000Y-94961800D03*
X152500000Y-96638200D03*
X158900000Y-96638200D03*
X158900000Y-94961800D03*
X157300000Y-94961800D03*
X157300000Y-96638200D03*
X160500000Y-94961800D03*
X160500000Y-96638200D03*
X165300000Y-96638200D03*
X165300000Y-94961800D03*
X163700000Y-94961800D03*
X163700000Y-96638200D03*
X166900000Y-94961800D03*
X166900000Y-96638200D03*
X171700000Y-96638200D03*
X171700000Y-94961800D03*
X170100000Y-94961800D03*
X170100000Y-96638200D03*
X173300000Y-94961800D03*
X173300000Y-96638200D03*
D14*
X138600000Y-92300000D03*
X139400000Y-92300000D03*
X140200000Y-92300000D03*
X141000000Y-92300000D03*
X141800000Y-92300000D03*
X142600000Y-92300000D03*
X142600000Y-86700000D03*
X141800000Y-86700000D03*
X141000000Y-86700000D03*
X140200000Y-86700000D03*
X139400000Y-86700000D03*
X138600000Y-86700000D03*
D15*
X140600000Y-89500000D03*
D14*
X145000000Y-92300000D03*
X145800000Y-92300000D03*
X146600000Y-92300000D03*
X147400000Y-92300000D03*
X148200000Y-92300000D03*
X149000000Y-92300000D03*
X149000000Y-86700000D03*
X148200000Y-86700000D03*
X147400000Y-86700000D03*
X146600000Y-86700000D03*
X145800000Y-86700000D03*
X145000000Y-86700000D03*
D15*
X147000000Y-89500000D03*
X159700000Y-89500000D03*
D14*
X157700000Y-86700000D03*
X158500000Y-86700000D03*
X159300000Y-86700000D03*
X160100000Y-86700000D03*
X160900000Y-86700000D03*
X161700000Y-86700000D03*
X161700000Y-92300000D03*
X160900000Y-92300000D03*
X160100000Y-92300000D03*
X159300000Y-92300000D03*
X158500000Y-92300000D03*
X157700000Y-92300000D03*
D15*
X166100000Y-89500000D03*
D14*
X164100000Y-86700000D03*
X164900000Y-86700000D03*
X165700000Y-86700000D03*
X166500000Y-86700000D03*
X167300000Y-86700000D03*
X168100000Y-86700000D03*
X168100000Y-92300000D03*
X167300000Y-92300000D03*
X166500000Y-92300000D03*
X165700000Y-92300000D03*
X164900000Y-92300000D03*
X164100000Y-92300000D03*
D15*
X172500000Y-89500000D03*
D14*
X170500000Y-86700000D03*
X171300000Y-86700000D03*
X172100000Y-86700000D03*
X172900000Y-86700000D03*
X173700000Y-86700000D03*
X174500000Y-86700000D03*
X174500000Y-92300000D03*
X173700000Y-92300000D03*
X172900000Y-92300000D03*
X172100000Y-92300000D03*
X171300000Y-92300000D03*
X170500000Y-92300000D03*
D12*
X133361800Y-109300000D03*
X135038200Y-109300000D03*
D11*
X130200000Y-114738200D03*
X130200000Y-113061800D03*
X146000000Y-118538200D03*
X146000000Y-116861800D03*
X130200000Y-116361800D03*
X130200000Y-118038200D03*
D12*
X138138200Y-125300000D03*
X136461800Y-125300000D03*
D11*
X146000000Y-120123600D03*
X146000000Y-121800000D03*
D12*
X131738200Y-131500000D03*
X130061800Y-131500000D03*
X135438200Y-131500000D03*
X133761800Y-131500000D03*
D11*
X154900000Y-55338200D03*
X154900000Y-53661800D03*
X154900000Y-51938200D03*
X154900000Y-50261800D03*
X163700000Y-53138200D03*
X163700000Y-51461800D03*
D16*
X179965300Y-119300000D03*
X176434700Y-119300000D03*
D17*
X177200000Y-123700000D03*
X182200000Y-123700000D03*
D16*
X177465300Y-136900000D03*
X173934700Y-136900000D03*
D18*
X168100000Y-115300000D03*
X168100000Y-108700000D03*
D19*
X167098600Y-57800000D03*
X164101400Y-57800000D03*
X182701400Y-119400000D03*
X185698600Y-119400000D03*
D20*
X144040000Y-135340000D03*
X138960000Y-135340000D03*
X144040000Y-134070000D03*
X138960000Y-134070000D03*
X144040000Y-132800000D03*
X138960000Y-132800000D03*
X138960000Y-131530000D03*
X144040000Y-130260000D03*
X138960000Y-130260000D03*
D21*
X171000000Y-136200000D03*
X167000000Y-136200000D03*
D11*
X150900000Y-96638200D03*
X150900000Y-94961800D03*
X154100000Y-96638200D03*
X154100000Y-94961800D03*
X178100000Y-94961800D03*
X178100000Y-96638200D03*
X176500000Y-96638200D03*
X176500000Y-94961800D03*
X179700000Y-94961800D03*
X179700000Y-96638200D03*
D22*
X141910000Y-111202120D03*
D23*
X141348660Y-111202120D03*
X140848280Y-111202120D03*
X140347900Y-111202120D03*
X139847520Y-111202120D03*
X139349680Y-111202120D03*
X138849300Y-111202120D03*
X138348920Y-111202120D03*
X137851080Y-111202120D03*
X137350700Y-111202120D03*
X136850320Y-111202120D03*
X136352480Y-111202120D03*
X135852100Y-111202120D03*
X135351720Y-111202120D03*
X134851340Y-111202120D03*
D22*
X134290000Y-111202120D03*
D24*
X132202120Y-113290000D03*
D25*
X132202120Y-113851340D03*
X132202120Y-114351720D03*
X132202120Y-114852100D03*
X132202120Y-115352480D03*
X132202120Y-115850320D03*
X132202120Y-116350700D03*
X132202120Y-116851080D03*
X132202120Y-117348920D03*
X132202120Y-117849300D03*
X132202120Y-118349680D03*
X132202120Y-118847520D03*
X132202120Y-119347900D03*
X132202120Y-119848280D03*
X132202120Y-120348660D03*
D24*
X132202120Y-120910000D03*
D22*
X134290000Y-122997880D03*
D23*
X134851340Y-122997880D03*
X135351720Y-122997880D03*
X135852100Y-122997880D03*
X136352480Y-122997880D03*
X136850320Y-122997880D03*
X137350700Y-122997880D03*
X137851080Y-122997880D03*
X138348920Y-122997880D03*
X138849300Y-122997880D03*
X139349680Y-122997880D03*
X139847520Y-122997880D03*
X140347900Y-122997880D03*
X140848280Y-122997880D03*
X141348660Y-122997880D03*
D22*
X141910000Y-122997880D03*
D24*
X143997880Y-120910000D03*
D25*
X143997880Y-120348660D03*
X143997880Y-119848280D03*
X143997880Y-119347900D03*
X143997880Y-118847520D03*
X143997880Y-118349680D03*
X143997880Y-117849300D03*
X143997880Y-117348920D03*
X143997880Y-116851080D03*
X143997880Y-116350700D03*
X143997880Y-115850320D03*
X143997880Y-115352480D03*
X143997880Y-114852100D03*
X143997880Y-114351720D03*
X143997880Y-113851340D03*
D24*
X143997880Y-113290000D03*
D26*
X165879000Y-50395000D03*
D27*
X165879000Y-51700000D03*
D26*
X165879000Y-52935000D03*
X165879000Y-54205000D03*
X171721000Y-54205000D03*
X171721000Y-52935000D03*
X171721000Y-51665000D03*
X171721000Y-50395000D03*
D14*
X151300000Y-92300000D03*
X152100000Y-92300000D03*
X152900000Y-92300000D03*
X153700000Y-92300000D03*
X154500000Y-92300000D03*
X155300000Y-92300000D03*
X155300000Y-86700000D03*
X154500000Y-86700000D03*
X153700000Y-86700000D03*
X152900000Y-86700000D03*
X152100000Y-86700000D03*
X151300000Y-86700000D03*
D15*
X153300000Y-89500000D03*
X178900000Y-89500000D03*
D14*
X176900000Y-86700000D03*
X177700000Y-86700000D03*
X178500000Y-86700000D03*
X179300000Y-86700000D03*
X180100000Y-86700000D03*
X180900000Y-86700000D03*
X180900000Y-92300000D03*
X180100000Y-92300000D03*
X179300000Y-92300000D03*
X178500000Y-92300000D03*
X177700000Y-92300000D03*
X176900000Y-92300000D03*
D26*
X172979000Y-133605000D03*
X172979000Y-132335000D03*
X172979000Y-131065000D03*
X172979000Y-129795000D03*
X178821000Y-129795000D03*
X178821000Y-131065000D03*
D27*
X178821000Y-132300000D03*
D26*
X178821000Y-133605000D03*
D28*
X130220000Y-134300000D03*
X135300000Y-134300000D03*
D29*
X152014666Y-50260000D03*
X152014666Y-55340000D03*
D30*
X191000000Y-128451620D03*
X191000000Y-135548380D03*
D31*
X162800000Y-137300000D03*
X162800000Y-130500000D03*
D13*
X181200000Y-80934700D03*
X181200000Y-84465300D03*
X176600000Y-84465300D03*
X176600000Y-80934700D03*
D32*
X153305000Y-125421000D03*
X152035000Y-125421000D03*
X150765000Y-125421000D03*
X149495000Y-125421000D03*
X149495000Y-119579000D03*
X150765000Y-119579000D03*
D33*
X152000000Y-119579000D03*
D32*
X153305000Y-119579000D03*
D34*
X158100000Y-51200000D03*
X158600000Y-51200000D03*
X159100000Y-51200000D03*
X159600000Y-51200000D03*
X160100000Y-51200000D03*
D35*
X159100000Y-53200000D03*
D36*
X157100000Y-52200000D03*
X157100000Y-52700000D03*
X157100000Y-53200000D03*
X157100000Y-53700000D03*
X157100000Y-54200000D03*
D34*
X158100000Y-55200000D03*
X158600000Y-55200000D03*
X159100000Y-55200000D03*
X159600000Y-55200000D03*
X160100000Y-55200000D03*
D36*
X161100000Y-54200000D03*
X161100000Y-53700000D03*
X161100000Y-53200000D03*
X161100000Y-52700000D03*
X161100000Y-52200000D03*
D37*
X193700000Y-92370000D03*
D38*
X191150000Y-85800000D03*
X192000000Y-85800000D03*
X192850000Y-85800000D03*
X194550000Y-85800000D03*
X195400000Y-85800000D03*
X196250000Y-85800000D03*
D12*
X185261800Y-82000000D03*
X186938200Y-82000000D03*
X186538200Y-83700000D03*
X184861800Y-83700000D03*
D37*
X186060000Y-92370000D03*
D38*
X183510000Y-85800000D03*
X184360000Y-85800000D03*
X185210000Y-85800000D03*
X186910000Y-85800000D03*
X187760000Y-85800000D03*
X188610000Y-85800000D03*
D39*
X158510000Y-115885000D03*
X163090000Y-115885000D03*
D40*
X160800000Y-109800000D03*
D12*
X172838200Y-56900000D03*
X171161800Y-56900000D03*
D41*
X192585000Y-78600000D03*
X194815000Y-78600000D03*
X141515000Y-98900000D03*
X139285000Y-98900000D03*
X145785000Y-98900000D03*
X148015000Y-98900000D03*
X154615000Y-98900000D03*
X152385000Y-98900000D03*
X158685000Y-98900000D03*
X160915000Y-98900000D03*
X167215000Y-98900000D03*
X164985000Y-98900000D03*
X187115000Y-78700000D03*
X184885000Y-78700000D03*
X171485000Y-98900000D03*
X173715000Y-98900000D03*
X180315000Y-98900000D03*
X178085000Y-98900000D03*
D12*
X192961800Y-80300000D03*
X194638200Y-80300000D03*
X186938200Y-80300000D03*
X185261800Y-80300000D03*
D42*
X177400000Y-51900000D03*
X184200000Y-51900000D03*
M02*
