G04 #@! TF.GenerationSoftware,KiCad,Pcbnew,(5.0.0-rc2-dev-130-g0bdae22af-dirty)*
G04 #@! TF.CreationDate,2018-10-04T20:04:41+03:00*
G04 #@! TF.ProjectId,ccu,6363752E6B696361645F706362000000,rev?*
G04 #@! TF.SameCoordinates,Original*
G04 #@! TF.FileFunction,Copper,L2,Bot,Signal*
G04 #@! TF.FilePolarity,Positive*
%FSLAX46Y46*%
G04 Gerber Fmt 4.6, Leading zero omitted, Abs format (unit mm)*
G04 Created by KiCad (PCBNEW (5.0.0-rc2-dev-130-g0bdae22af-dirty)) date Thu Oct  4 20:04:41 2018*
%MOMM*%
%LPD*%
G01*
G04 APERTURE LIST*
%ADD10R,2.623820X2.623820*%
%ADD11C,2.623820*%
%ADD12C,2.999740*%
%ADD13C,0.800000*%
%ADD14C,0.200000*%
%ADD15C,0.400000*%
%ADD16C,0.600000*%
G04 APERTURE END LIST*
D10*
X164002040Y-119002040D03*
D11*
X168000000Y-119002040D03*
X171997960Y-119002040D03*
X166001020Y-123000000D03*
X169998980Y-123000000D03*
X164002040Y-126997960D03*
X168000000Y-126997960D03*
X171997960Y-126997960D03*
D12*
X154301780Y-112202460D03*
X181698220Y-112202460D03*
X183199360Y-130299960D03*
X152800640Y-130299960D03*
D10*
X154002060Y-61002040D03*
D11*
X158000020Y-61002040D03*
X162000520Y-61002040D03*
X166001020Y-61002040D03*
X169998980Y-61002040D03*
X173999480Y-61002040D03*
X177999980Y-61002040D03*
X181997940Y-61002040D03*
X156001040Y-65000000D03*
X160001540Y-65000000D03*
X164002040Y-65000000D03*
X168000000Y-65000000D03*
X171997960Y-65000000D03*
X175998460Y-65000000D03*
X179998960Y-65000000D03*
X154002060Y-68997960D03*
X158000020Y-68997960D03*
X162000520Y-68997960D03*
X166001020Y-68997960D03*
X169998980Y-68997960D03*
X173999480Y-68997960D03*
X177999980Y-68997960D03*
X181997940Y-68997960D03*
D12*
X144301800Y-54202460D03*
X191698200Y-54202460D03*
X142800660Y-72299960D03*
X193199340Y-72299960D03*
D13*
X154800000Y-119650000D03*
X142550000Y-124850000D03*
X144450000Y-122250000D03*
X148200000Y-119250000D03*
X157550000Y-79650000D03*
X132600000Y-88500000D03*
X164050000Y-62650000D03*
X174050000Y-63300000D03*
X182900000Y-66350000D03*
X175350000Y-54650000D03*
X175300000Y-58700000D03*
X161650000Y-57500000D03*
X148050000Y-56050000D03*
X149950000Y-50200000D03*
X130600000Y-50550000D03*
X140300000Y-56050000D03*
X130150000Y-66500000D03*
X132800000Y-69900000D03*
X145700000Y-71200000D03*
X142750000Y-60400000D03*
X153550000Y-66400000D03*
X149650000Y-73550000D03*
X151100000Y-78450000D03*
X181400000Y-75200000D03*
X163900000Y-78100000D03*
X169900000Y-76450000D03*
X176700000Y-74400000D03*
X132650000Y-100100000D03*
X135050000Y-107200000D03*
X142450000Y-113450000D03*
X137400000Y-113200000D03*
X139250000Y-128850000D03*
X130050000Y-127950000D03*
X134350000Y-126900000D03*
X135150000Y-138050000D03*
X145450000Y-137900000D03*
X155500000Y-133650000D03*
X155550000Y-136100000D03*
X169050000Y-137100000D03*
X177050000Y-130900000D03*
X182050000Y-137100000D03*
X183800000Y-125250000D03*
X195100000Y-114250000D03*
X177100000Y-117500000D03*
X191300000Y-124600000D03*
X192800000Y-137150000D03*
X205150000Y-136900000D03*
X205000000Y-121500000D03*
X205250000Y-103950000D03*
X204300000Y-90900000D03*
X202200000Y-88800000D03*
X205200000Y-73700000D03*
X202450000Y-72000000D03*
X197800000Y-62350000D03*
X186100000Y-54800000D03*
X179400000Y-50100000D03*
X206000000Y-69700000D03*
X205550000Y-59100000D03*
X194450000Y-50300000D03*
X205350000Y-50700000D03*
X164362120Y-96599330D03*
X191894984Y-87200989D03*
X170854482Y-96592682D03*
X175299007Y-92601979D03*
X142012607Y-117925214D03*
X138475585Y-121447490D03*
X169905351Y-93487533D03*
X163602014Y-93454736D03*
X157400990Y-97100990D03*
X151300990Y-96199830D03*
X171000000Y-130200000D03*
X178700000Y-136900000D03*
X133700000Y-115551110D03*
X135153090Y-112528084D03*
X153300000Y-126800000D03*
X153200000Y-117700000D03*
X132700000Y-131500000D03*
X147000000Y-133400000D03*
X158900000Y-132100000D03*
X165500000Y-130500000D03*
X189300000Y-135900000D03*
X177200000Y-125500000D03*
X154900000Y-52800000D03*
X166300000Y-55500000D03*
X170400000Y-50400000D03*
X167300000Y-51700000D03*
X138300000Y-79800000D03*
X143800000Y-80934700D03*
X150200000Y-81100000D03*
X156500000Y-80934700D03*
X162800000Y-80934700D03*
X169300000Y-80934700D03*
X175700000Y-80934700D03*
X181200000Y-79900000D03*
X186000000Y-82827100D03*
X193700000Y-82827100D03*
X195400000Y-87500000D03*
X187700000Y-87500000D03*
X184400000Y-87500000D03*
X145300000Y-96638200D03*
X156800000Y-93700000D03*
X150400000Y-93700000D03*
X144300000Y-93400000D03*
X138200000Y-93400000D03*
X138900000Y-96638200D03*
X180500000Y-96638200D03*
X132500000Y-109100000D03*
X130200000Y-112400000D03*
X130100000Y-118900000D03*
X135852100Y-114700000D03*
X130200000Y-115500000D03*
X175600000Y-52400000D03*
X164700000Y-52935000D03*
X176300000Y-56300000D03*
X165500000Y-57900000D03*
X142900000Y-98114500D03*
X136100000Y-105200000D03*
X146100000Y-97885972D03*
X138339017Y-106400956D03*
X153700000Y-97800000D03*
X141566176Y-108158413D03*
X160000000Y-100000000D03*
X143400000Y-110603957D03*
X167000000Y-97800000D03*
X137400000Y-117400000D03*
X173200000Y-97800000D03*
X133600000Y-118500000D03*
X179100000Y-97700000D03*
X135800000Y-119700000D03*
X137700000Y-119500000D03*
X185400000Y-87600000D03*
X152000000Y-123900000D03*
X150700000Y-123900000D03*
X135500000Y-121500000D03*
X194100000Y-87500000D03*
X134300000Y-121500000D03*
X192900000Y-87500000D03*
X137600000Y-104400000D03*
X140200000Y-93800000D03*
X139087327Y-93999062D03*
X136700000Y-103700000D03*
X146600000Y-93700000D03*
X139376748Y-107494059D03*
X139339311Y-106339311D03*
X145280800Y-93600000D03*
X148142669Y-116166092D03*
X186500000Y-87600000D03*
X140528162Y-108450010D03*
X152900000Y-93700000D03*
X140363523Y-107338174D03*
X151500000Y-93780800D03*
X159569900Y-93900000D03*
X142800000Y-109800000D03*
X141900000Y-109100000D03*
X158500000Y-93850700D03*
X165700000Y-93500000D03*
X136300000Y-118000000D03*
X164600000Y-93500000D03*
X135000000Y-118200000D03*
X146149583Y-113041731D03*
X172100000Y-93500000D03*
X145156719Y-113152330D03*
X170900000Y-93580800D03*
X178500000Y-93700000D03*
X148526913Y-113701334D03*
X177100000Y-93600000D03*
X147487460Y-113660894D03*
D14*
X135752100Y-114600000D02*
X135852100Y-114700000D01*
X131100000Y-114600000D02*
X135752100Y-114600000D01*
X130200000Y-115500000D02*
X131100000Y-114600000D01*
D15*
X165330685Y-53000000D02*
X175000000Y-53000000D01*
X175000000Y-53000000D02*
X175600000Y-52400000D01*
X164700000Y-52935000D02*
X165265685Y-52935000D01*
X165265685Y-52935000D02*
X165330685Y-53000000D01*
D16*
X165500000Y-57900000D02*
X167100000Y-56300000D01*
X167100000Y-56300000D02*
X176300000Y-56300000D01*
D14*
X138400000Y-104164285D02*
X140999010Y-101565275D01*
X138400000Y-104650000D02*
X138400000Y-104164285D01*
X137850000Y-105200000D02*
X138400000Y-104650000D01*
X136100000Y-105200000D02*
X137850000Y-105200000D01*
X140999010Y-101565275D02*
X140999010Y-100000990D01*
X140999010Y-100000990D02*
X142885500Y-98114500D01*
X142885500Y-98114500D02*
X142900000Y-98114500D01*
X138800000Y-105600000D02*
X140200000Y-105600000D01*
X138339017Y-106400956D02*
X138339017Y-106060983D01*
X146100000Y-99700000D02*
X146100000Y-97885972D01*
X138339017Y-106060983D02*
X138800000Y-105600000D01*
X140200000Y-105600000D02*
X146100000Y-99700000D01*
X141566176Y-108158413D02*
X143341587Y-108158413D01*
X143341587Y-108158413D02*
X153700000Y-97800000D01*
X143799999Y-110203958D02*
X146996042Y-110203958D01*
X143400000Y-110603957D02*
X143799999Y-110203958D01*
X146996042Y-110203958D02*
X157200000Y-100000000D01*
X157200000Y-100000000D02*
X159434315Y-100000000D01*
X159434315Y-100000000D02*
X160000000Y-100000000D01*
X145827644Y-111764860D02*
X147171721Y-111764860D01*
X145491515Y-112100989D02*
X145827644Y-111764860D01*
X167000000Y-98365685D02*
X167000000Y-97800000D01*
X137400000Y-117400000D02*
X142699011Y-112100989D01*
X156861727Y-108503958D02*
X167000000Y-98365685D01*
X147171721Y-111764860D02*
X150432623Y-108503958D01*
X150432623Y-108503958D02*
X156861727Y-108503958D01*
X142699011Y-112100989D02*
X145491515Y-112100989D01*
X147151939Y-112961893D02*
X147667546Y-112961893D01*
X150928449Y-109700990D02*
X160646175Y-109700990D01*
X160646175Y-109700990D02*
X172547167Y-97800000D01*
X136701193Y-118899999D02*
X137199204Y-118401988D01*
X146147582Y-114501979D02*
X146788459Y-113861102D01*
X138140870Y-118401988D02*
X142040878Y-114501979D01*
X142040878Y-114501979D02*
X146147582Y-114501979D01*
X172547167Y-97800000D02*
X172634315Y-97800000D01*
X133600000Y-118500000D02*
X133999999Y-118899999D01*
X133999999Y-118899999D02*
X136701193Y-118899999D01*
X146788459Y-113861102D02*
X146788459Y-113325373D01*
X137199204Y-118401988D02*
X138140870Y-118401988D01*
X172634315Y-97800000D02*
X173200000Y-97800000D01*
X146788459Y-113325373D02*
X147151939Y-112961893D01*
X147667546Y-112961893D02*
X150928449Y-109700990D01*
X161142002Y-110898018D02*
X170941010Y-101099010D01*
X135800000Y-119700000D02*
X136465478Y-119700000D01*
X146934725Y-114900989D02*
X147435373Y-114400341D01*
X142206153Y-114900989D02*
X146934725Y-114900989D01*
X136465478Y-119700000D02*
X137364479Y-118800999D01*
X147435373Y-114400341D02*
X155463944Y-114400341D01*
X137364479Y-118800999D02*
X138306143Y-118800999D01*
X170941010Y-101099010D02*
X173365275Y-101099010D01*
X158966267Y-110898018D02*
X161142002Y-110898018D01*
X138306143Y-118800999D02*
X142206153Y-114900989D01*
X173365275Y-101099010D02*
X175464285Y-99000000D01*
X155463944Y-114400341D02*
X158966267Y-110898018D01*
X175464285Y-99000000D02*
X177800000Y-99000000D01*
X177800000Y-99000000D02*
X179100000Y-97700000D01*
X173530552Y-101498019D02*
X175626593Y-99401978D01*
X161307278Y-111297028D02*
X171106287Y-101498019D01*
X185400000Y-88165685D02*
X185400000Y-87600000D01*
X155629220Y-114799351D02*
X159131542Y-111297029D01*
X178898022Y-99401978D02*
X185400000Y-92900000D01*
X142371428Y-115300000D02*
X147100001Y-115299999D01*
X137700000Y-119500000D02*
X138171428Y-119500000D01*
X138171428Y-119500000D02*
X142371428Y-115300000D01*
X159131542Y-111297029D02*
X161307278Y-111297028D01*
X147100001Y-115299999D02*
X147600648Y-114799352D01*
X147600648Y-114799352D02*
X155629220Y-114799351D01*
X175626593Y-99401978D02*
X178898022Y-99401978D01*
X185400000Y-92900000D02*
X185400000Y-88165685D01*
X171106287Y-101498019D02*
X173530552Y-101498019D01*
D15*
X153800000Y-124200000D02*
X152300000Y-124200000D01*
X152300000Y-124200000D02*
X152000000Y-123900000D01*
X166001020Y-123000000D02*
X164801020Y-124200000D01*
X164801020Y-124200000D02*
X153800000Y-124200000D01*
X151400000Y-125000000D02*
X150700000Y-124300000D01*
X150700000Y-124300000D02*
X150700000Y-123900000D01*
X155100000Y-125000000D02*
X151400000Y-125000000D01*
X167998980Y-125000000D02*
X155100000Y-125000000D01*
X169998980Y-123000000D02*
X167998980Y-125000000D01*
D14*
X156125044Y-115996384D02*
X159627366Y-112494061D01*
X149867900Y-115996384D02*
X156125044Y-115996384D01*
X161803102Y-112494061D02*
X171602111Y-102695051D01*
X159627366Y-112494061D02*
X161803102Y-112494061D01*
X148565275Y-117299010D02*
X149867900Y-115996384D01*
X191693845Y-88299009D02*
X193300991Y-88299009D01*
X147534725Y-117299010D02*
X148565275Y-117299010D01*
X146434726Y-116199010D02*
X147534725Y-117299010D01*
X136100000Y-120900000D02*
X137900000Y-120900000D01*
X135500000Y-121500000D02*
X136100000Y-120900000D01*
X137900000Y-120900000D02*
X142600990Y-116199010D01*
X142600990Y-116199010D02*
X146434726Y-116199010D01*
X193300991Y-88299009D02*
X194100000Y-87500000D01*
X171602111Y-102695051D02*
X174026377Y-102695051D01*
X179365278Y-100599007D02*
X179393848Y-100599007D01*
X174026377Y-102695051D02*
X176122417Y-100599010D01*
X176122417Y-100599010D02*
X179365275Y-100599010D01*
X179365275Y-100599010D02*
X179365278Y-100599007D01*
X179393848Y-100599007D02*
X191693845Y-88299009D01*
X159462092Y-112095051D02*
X161637827Y-112095051D01*
X192500001Y-87899999D02*
X192900000Y-87500000D01*
X191528571Y-87899999D02*
X192500001Y-87899999D01*
X179228573Y-100199997D02*
X191528571Y-87899999D01*
X179200000Y-100200000D02*
X179200003Y-100199997D01*
X175957143Y-100200000D02*
X179200000Y-100200000D01*
X173861102Y-102296041D02*
X175957143Y-100200000D01*
X161637827Y-112095051D02*
X171436837Y-102296041D01*
X171436837Y-102296041D02*
X173861102Y-102296041D01*
X142435714Y-115800000D02*
X146600000Y-115800000D01*
X155959769Y-115597374D02*
X159462092Y-112095051D01*
X137734725Y-120500989D02*
X142435714Y-115800000D01*
X135299011Y-120500989D02*
X137734725Y-120500989D01*
X179200003Y-100199997D02*
X179228573Y-100199997D01*
X148400000Y-116900000D02*
X149702626Y-115597374D01*
X134300000Y-121500000D02*
X135299011Y-120500989D01*
X149702626Y-115597374D02*
X155959769Y-115597374D01*
X146600000Y-115800000D02*
X147700000Y-116900000D01*
X147700000Y-116900000D02*
X148400000Y-116900000D01*
X140600000Y-94200000D02*
X140200000Y-93800000D01*
X137600000Y-104400000D02*
X140600000Y-101400000D01*
X140600000Y-101400000D02*
X140600000Y-94200000D01*
X136700000Y-103700000D02*
X137735716Y-103700000D01*
X137735716Y-103700000D02*
X140200990Y-101234726D01*
X140200990Y-101234726D02*
X140200990Y-95112725D01*
X140200990Y-95112725D02*
X139087327Y-93999062D01*
X140289400Y-106639172D02*
X140028001Y-106639172D01*
X139664521Y-107206286D02*
X139376748Y-107494059D01*
X139664521Y-107002652D02*
X139664521Y-107206286D01*
X147797038Y-94897038D02*
X147797038Y-99131534D01*
X140028001Y-106639172D02*
X139664521Y-107002652D01*
X146600000Y-93700000D02*
X147797038Y-94897038D01*
X147797038Y-99131534D02*
X140289400Y-106639172D01*
X145280800Y-93600000D02*
X147398032Y-95717232D01*
X139679611Y-105999011D02*
X139339311Y-106339311D01*
X147398032Y-98966254D02*
X140365275Y-105999011D01*
X140365275Y-105999011D02*
X139679611Y-105999011D01*
X147398032Y-95717232D02*
X147398032Y-98966254D01*
X171271562Y-101897030D02*
X161472552Y-111696040D01*
X173695827Y-101897030D02*
X171271562Y-101897030D01*
X179063297Y-99800989D02*
X175791868Y-99800989D01*
X148542668Y-115766093D02*
X148142669Y-116166092D01*
X186500000Y-92364286D02*
X179063297Y-99800989D01*
X155794494Y-115198363D02*
X149110398Y-115198363D01*
X175791868Y-99800989D02*
X173695827Y-101897030D01*
X159296817Y-111696040D02*
X155794494Y-115198363D01*
X186500000Y-87600000D02*
X186500000Y-92364286D01*
X161472552Y-111696040D02*
X159296817Y-111696040D01*
X149110398Y-115198363D02*
X148542668Y-115766093D01*
X152900000Y-97548150D02*
X142988738Y-107459412D01*
X142988738Y-107459412D02*
X141230655Y-107459412D01*
X140867175Y-108110997D02*
X140528162Y-108450010D01*
X141230655Y-107459412D02*
X140867175Y-107822892D01*
X152900000Y-93700000D02*
X152900000Y-97548150D01*
X140867175Y-107822892D02*
X140867175Y-108110997D01*
X152500000Y-97383864D02*
X142945689Y-106938175D01*
X142945689Y-106938175D02*
X140763522Y-106938175D01*
X151500000Y-93780800D02*
X152500000Y-94780800D01*
X140763522Y-106938175D02*
X140363523Y-107338174D01*
X152500000Y-94780800D02*
X152500000Y-97383864D01*
X142800000Y-109800000D02*
X144205356Y-109800000D01*
X157654954Y-98980760D02*
X158183526Y-98980760D01*
X144205356Y-109800000D02*
X144506346Y-109499010D01*
X144506346Y-109499010D02*
X147136704Y-109499010D01*
X159569900Y-97594386D02*
X159569900Y-94465685D01*
X159569900Y-94465685D02*
X159569900Y-93900000D01*
X158183526Y-98980760D02*
X159569900Y-97594386D01*
X147136704Y-109499010D02*
X157654954Y-98980760D01*
X157489679Y-98581750D02*
X158018249Y-98581750D01*
X158500000Y-94416385D02*
X158500000Y-93850700D01*
X159150000Y-95066385D02*
X158500000Y-94416385D01*
X159150000Y-97449999D02*
X159150000Y-95066385D01*
X158018249Y-98581750D02*
X159150000Y-97449999D01*
X141900000Y-109100000D02*
X146971429Y-109100000D01*
X146971429Y-109100000D02*
X157489679Y-98581750D01*
X147006447Y-111365848D02*
X150267348Y-108104947D01*
X137100992Y-116699011D02*
X137536705Y-116699011D01*
X156330770Y-108104946D02*
X165700000Y-98735716D01*
X145662369Y-111365849D02*
X147006447Y-111365848D01*
X150267348Y-108104947D02*
X156330770Y-108104946D01*
X145326241Y-111701977D02*
X145662369Y-111365849D01*
X142533738Y-111701978D02*
X145326241Y-111701977D01*
X136300000Y-118000000D02*
X136699999Y-117600001D01*
X136699999Y-117600001D02*
X136699999Y-117100004D01*
X137536705Y-116699011D02*
X142533738Y-111701978D01*
X136699999Y-117100004D02*
X137100992Y-116699011D01*
X165700000Y-98735716D02*
X165700000Y-94065685D01*
X165700000Y-94065685D02*
X165700000Y-93500000D01*
X156165494Y-107705936D02*
X165200000Y-98671430D01*
X142397034Y-111302968D02*
X145160964Y-111302968D01*
X150102073Y-107705936D02*
X156165494Y-107705936D01*
X135000000Y-118200000D02*
X136900000Y-116300000D01*
X146841171Y-110966838D02*
X150102073Y-107705936D01*
X142368461Y-111302969D02*
X142397034Y-111302968D01*
X145160964Y-111302968D02*
X145497094Y-110966838D01*
X136900000Y-116300000D02*
X137371430Y-116300000D01*
X145497094Y-110966838D02*
X146841171Y-110966838D01*
X137371430Y-116300000D02*
X142368461Y-111302969D01*
X165200000Y-98671430D02*
X165200000Y-94100000D01*
X165200000Y-94100000D02*
X164999999Y-93899999D01*
X164999999Y-93899999D02*
X164600000Y-93500000D01*
X172100000Y-93500000D02*
X172499999Y-93899999D01*
X160480900Y-109301979D02*
X150763174Y-109301979D01*
X146628432Y-112562882D02*
X146549582Y-112641732D01*
X150763174Y-109301979D02*
X147502271Y-112562882D01*
X172499999Y-93899999D02*
X172499999Y-97282880D01*
X172499999Y-97282880D02*
X160480900Y-109301979D01*
X147502271Y-112562882D02*
X146628432Y-112562882D01*
X146549582Y-112641732D02*
X146149583Y-113041731D01*
X160315625Y-108902968D02*
X150597898Y-108902969D01*
X150597898Y-108902969D02*
X147336996Y-112163871D01*
X170900000Y-93580800D02*
X172000000Y-94680800D01*
X145992919Y-112163871D02*
X145450581Y-112706209D01*
X172000000Y-94680800D02*
X172000000Y-97218596D01*
X172000000Y-97218596D02*
X160315625Y-108902968D01*
X147336996Y-112163871D02*
X145992919Y-112163871D01*
X145450581Y-112706209D02*
X145450581Y-112858468D01*
X145450581Y-112858468D02*
X145156719Y-113152330D01*
X173200000Y-100700000D02*
X178500000Y-95400000D01*
X149092598Y-113701334D02*
X148526913Y-113701334D01*
X149392597Y-114001333D02*
X149092598Y-113701334D01*
X158800990Y-110499010D02*
X155298667Y-114001333D01*
X155298667Y-114001333D02*
X149392597Y-114001333D01*
X160976725Y-110499010D02*
X158800990Y-110499010D01*
X170775736Y-100700000D02*
X173200000Y-100700000D01*
X170775736Y-100700000D02*
X160976725Y-110499010D01*
X178500000Y-95400000D02*
X178500000Y-93700000D01*
X147568340Y-113660894D02*
X147487460Y-113660894D01*
X177100000Y-93600000D02*
X177100000Y-96200000D01*
X173000000Y-100300000D02*
X170611451Y-100300000D01*
X177100000Y-96200000D02*
X173000000Y-100300000D01*
X160811450Y-110099999D02*
X151129235Y-110099999D01*
X151129235Y-110099999D02*
X147568340Y-113660894D01*
X170611451Y-100300000D02*
X160811450Y-110099999D01*
G36*
X205320478Y-49589396D02*
X205625034Y-49695454D01*
X205898522Y-49866348D01*
X206127352Y-50093585D01*
X206300152Y-50365876D01*
X206408332Y-50669681D01*
X206450001Y-51019131D01*
X206450000Y-136969253D01*
X206410604Y-137320479D01*
X206304547Y-137625033D01*
X206133652Y-137898522D01*
X205906415Y-138127352D01*
X205634124Y-138300152D01*
X205330323Y-138408331D01*
X204980877Y-138450000D01*
X131028678Y-138450000D01*
X130679521Y-138410836D01*
X130374967Y-138304779D01*
X130101478Y-138133884D01*
X129872648Y-137906647D01*
X129699848Y-137634356D01*
X129591669Y-137330555D01*
X129550000Y-136981109D01*
X129550000Y-129902161D01*
X150800770Y-129902161D01*
X150800770Y-130697759D01*
X151105232Y-131432795D01*
X151667805Y-131995368D01*
X152402841Y-132299830D01*
X153198439Y-132299830D01*
X153933475Y-131995368D01*
X154496048Y-131432795D01*
X154800510Y-130697759D01*
X154800510Y-129902161D01*
X181199490Y-129902161D01*
X181199490Y-130697759D01*
X181503952Y-131432795D01*
X182066525Y-131995368D01*
X182801561Y-132299830D01*
X183597159Y-132299830D01*
X184332195Y-131995368D01*
X184894768Y-131432795D01*
X185199230Y-130697759D01*
X185199230Y-129902161D01*
X184894768Y-129167125D01*
X184332195Y-128604552D01*
X183597159Y-128300090D01*
X182801561Y-128300090D01*
X182066525Y-128604552D01*
X181503952Y-129167125D01*
X181199490Y-129902161D01*
X154800510Y-129902161D01*
X154496048Y-129167125D01*
X153933475Y-128604552D01*
X153198439Y-128300090D01*
X152402841Y-128300090D01*
X151667805Y-128604552D01*
X151105232Y-129167125D01*
X150800770Y-129902161D01*
X129550000Y-129902161D01*
X129550000Y-123720979D01*
X149800000Y-123720979D01*
X149800000Y-124079021D01*
X149937017Y-124409809D01*
X150025787Y-124498579D01*
X150040615Y-124573125D01*
X150195329Y-124804670D01*
X150253774Y-124843722D01*
X150856279Y-125446229D01*
X150895329Y-125504671D01*
X150953771Y-125543721D01*
X150953772Y-125543722D01*
X151056995Y-125612693D01*
X151126874Y-125659385D01*
X151331060Y-125700000D01*
X151331064Y-125700000D01*
X151399999Y-125713712D01*
X151468934Y-125700000D01*
X162737573Y-125700000D01*
X162465977Y-125971596D01*
X162190130Y-126637549D01*
X162190130Y-127358371D01*
X162465977Y-128024324D01*
X162975676Y-128534023D01*
X163641629Y-128809870D01*
X164362451Y-128809870D01*
X165028404Y-128534023D01*
X165538103Y-128024324D01*
X165813950Y-127358371D01*
X165813950Y-126637549D01*
X165538103Y-125971596D01*
X165266507Y-125700000D01*
X166735533Y-125700000D01*
X166463937Y-125971596D01*
X166188090Y-126637549D01*
X166188090Y-127358371D01*
X166463937Y-128024324D01*
X166973636Y-128534023D01*
X167639589Y-128809870D01*
X168360411Y-128809870D01*
X169026364Y-128534023D01*
X169536063Y-128024324D01*
X169811910Y-127358371D01*
X169811910Y-126637549D01*
X170186050Y-126637549D01*
X170186050Y-127358371D01*
X170461897Y-128024324D01*
X170971596Y-128534023D01*
X171637549Y-128809870D01*
X172358371Y-128809870D01*
X173024324Y-128534023D01*
X173534023Y-128024324D01*
X173809870Y-127358371D01*
X173809870Y-126637549D01*
X173534023Y-125971596D01*
X173024324Y-125461897D01*
X172358371Y-125186050D01*
X171637549Y-125186050D01*
X170971596Y-125461897D01*
X170461897Y-125971596D01*
X170186050Y-126637549D01*
X169811910Y-126637549D01*
X169536063Y-125971596D01*
X169026364Y-125461897D01*
X168673282Y-125315646D01*
X169312204Y-124676725D01*
X169638569Y-124811910D01*
X170359391Y-124811910D01*
X171025344Y-124536063D01*
X171535043Y-124026364D01*
X171810890Y-123360411D01*
X171810890Y-122639589D01*
X171535043Y-121973636D01*
X171025344Y-121463937D01*
X170359391Y-121188090D01*
X169638569Y-121188090D01*
X168972616Y-121463937D01*
X168462917Y-121973636D01*
X168187070Y-122639589D01*
X168187070Y-123360411D01*
X168322255Y-123686776D01*
X167709032Y-124300000D01*
X167263447Y-124300000D01*
X167537083Y-124026364D01*
X167812930Y-123360411D01*
X167812930Y-122639589D01*
X167537083Y-121973636D01*
X167027384Y-121463937D01*
X166361431Y-121188090D01*
X165640609Y-121188090D01*
X164974656Y-121463937D01*
X164464957Y-121973636D01*
X164189110Y-122639589D01*
X164189110Y-123360411D01*
X164246930Y-123500000D01*
X152808467Y-123500000D01*
X152762983Y-123390191D01*
X152509809Y-123137017D01*
X152179021Y-123000000D01*
X151820979Y-123000000D01*
X151490191Y-123137017D01*
X151350000Y-123277208D01*
X151209809Y-123137017D01*
X150879021Y-123000000D01*
X150520979Y-123000000D01*
X150190191Y-123137017D01*
X149937017Y-123390191D01*
X149800000Y-123720979D01*
X129550000Y-123720979D01*
X129550000Y-118320979D01*
X132700000Y-118320979D01*
X132700000Y-118679021D01*
X132837017Y-119009809D01*
X133090191Y-119262983D01*
X133420979Y-119400000D01*
X133668334Y-119400000D01*
X133765891Y-119465186D01*
X133940908Y-119499999D01*
X133940912Y-119499999D01*
X133999998Y-119511752D01*
X134059085Y-119499999D01*
X134908690Y-119499999D01*
X134900000Y-119520979D01*
X134900000Y-119879021D01*
X134954168Y-120009793D01*
X134866436Y-120068414D01*
X134832964Y-120118508D01*
X134351473Y-120600000D01*
X134120979Y-120600000D01*
X133790191Y-120737017D01*
X133537017Y-120990191D01*
X133400000Y-121320979D01*
X133400000Y-121679021D01*
X133537017Y-122009809D01*
X133790191Y-122262983D01*
X134120979Y-122400000D01*
X134479021Y-122400000D01*
X134809809Y-122262983D01*
X134900000Y-122172792D01*
X134990191Y-122262983D01*
X135320979Y-122400000D01*
X135679021Y-122400000D01*
X136009809Y-122262983D01*
X136262983Y-122009809D01*
X136400000Y-121679021D01*
X136400000Y-121500000D01*
X137840914Y-121500000D01*
X137900000Y-121511753D01*
X137959086Y-121500000D01*
X137959091Y-121500000D01*
X138134108Y-121465187D01*
X138332575Y-121332575D01*
X138366049Y-121282478D01*
X142849518Y-116799010D01*
X146186199Y-116799010D01*
X147068678Y-117681491D01*
X147102150Y-117731585D01*
X147300617Y-117864197D01*
X147475634Y-117899010D01*
X147475638Y-117899010D01*
X147534724Y-117910763D01*
X147593810Y-117899010D01*
X148506188Y-117899010D01*
X148565275Y-117910763D01*
X148624361Y-117899010D01*
X148624366Y-117899010D01*
X148799383Y-117864197D01*
X148997850Y-117731585D01*
X149025549Y-117690130D01*
X162180335Y-117690130D01*
X162180335Y-120313950D01*
X162219141Y-120509040D01*
X162329650Y-120674430D01*
X162495040Y-120784939D01*
X162690130Y-120823745D01*
X165313950Y-120823745D01*
X165509040Y-120784939D01*
X165674430Y-120674430D01*
X165784939Y-120509040D01*
X165823745Y-120313950D01*
X165823745Y-120223496D01*
X166785615Y-120223496D01*
X166918170Y-120499556D01*
X167573595Y-120799563D01*
X168293936Y-120825913D01*
X168969527Y-120574595D01*
X169081830Y-120499556D01*
X169214385Y-120223496D01*
X168000000Y-119009111D01*
X166785615Y-120223496D01*
X165823745Y-120223496D01*
X165823745Y-119295976D01*
X166176127Y-119295976D01*
X166427445Y-119971567D01*
X166502484Y-120083870D01*
X166778544Y-120216425D01*
X167992929Y-119002040D01*
X168007071Y-119002040D01*
X169221456Y-120216425D01*
X169497516Y-120083870D01*
X169797523Y-119428445D01*
X169823873Y-118708104D01*
X169799145Y-118641629D01*
X170186050Y-118641629D01*
X170186050Y-119362451D01*
X170461897Y-120028404D01*
X170971596Y-120538103D01*
X171637549Y-120813950D01*
X172358371Y-120813950D01*
X173024324Y-120538103D01*
X173534023Y-120028404D01*
X173809870Y-119362451D01*
X173809870Y-118641629D01*
X173534023Y-117975676D01*
X173024324Y-117465977D01*
X172358371Y-117190130D01*
X171637549Y-117190130D01*
X170971596Y-117465977D01*
X170461897Y-117975676D01*
X170186050Y-118641629D01*
X169799145Y-118641629D01*
X169572555Y-118032513D01*
X169497516Y-117920210D01*
X169221456Y-117787655D01*
X168007071Y-119002040D01*
X167992929Y-119002040D01*
X166778544Y-117787655D01*
X166502484Y-117920210D01*
X166202477Y-118575635D01*
X166176127Y-119295976D01*
X165823745Y-119295976D01*
X165823745Y-117780584D01*
X166785615Y-117780584D01*
X168000000Y-118994969D01*
X169214385Y-117780584D01*
X169081830Y-117504524D01*
X168426405Y-117204517D01*
X167706064Y-117178167D01*
X167030473Y-117429485D01*
X166918170Y-117504524D01*
X166785615Y-117780584D01*
X165823745Y-117780584D01*
X165823745Y-117690130D01*
X165784939Y-117495040D01*
X165674430Y-117329650D01*
X165509040Y-117219141D01*
X165313950Y-117180335D01*
X162690130Y-117180335D01*
X162495040Y-117219141D01*
X162329650Y-117329650D01*
X162219141Y-117495040D01*
X162180335Y-117690130D01*
X149025549Y-117690130D01*
X149031324Y-117681488D01*
X150116428Y-116596384D01*
X156065958Y-116596384D01*
X156125044Y-116608137D01*
X156184130Y-116596384D01*
X156184135Y-116596384D01*
X156359152Y-116561571D01*
X156557619Y-116428959D01*
X156591093Y-116378862D01*
X159875894Y-113094061D01*
X161744016Y-113094061D01*
X161803102Y-113105814D01*
X161862188Y-113094061D01*
X161862193Y-113094061D01*
X162037210Y-113059248D01*
X162235677Y-112926636D01*
X162269151Y-112876539D01*
X163341029Y-111804661D01*
X179698350Y-111804661D01*
X179698350Y-112600259D01*
X180002812Y-113335295D01*
X180565385Y-113897868D01*
X181300421Y-114202330D01*
X182096019Y-114202330D01*
X182831055Y-113897868D01*
X183393628Y-113335295D01*
X183698090Y-112600259D01*
X183698090Y-111804661D01*
X183393628Y-111069625D01*
X182831055Y-110507052D01*
X182096019Y-110202590D01*
X181300421Y-110202590D01*
X180565385Y-110507052D01*
X180002812Y-111069625D01*
X179698350Y-111804661D01*
X163341029Y-111804661D01*
X171850639Y-103295051D01*
X173967291Y-103295051D01*
X174026377Y-103306804D01*
X174085463Y-103295051D01*
X174085468Y-103295051D01*
X174260485Y-103260238D01*
X174458952Y-103127626D01*
X174492426Y-103077529D01*
X176370945Y-101199010D01*
X179306189Y-101199010D01*
X179365275Y-101210763D01*
X179379569Y-101207920D01*
X179393848Y-101210760D01*
X179452934Y-101199007D01*
X179452939Y-101199007D01*
X179627956Y-101164194D01*
X179826423Y-101031582D01*
X179859897Y-100981485D01*
X191942373Y-88899009D01*
X193241905Y-88899009D01*
X193300991Y-88910762D01*
X193360077Y-88899009D01*
X193360082Y-88899009D01*
X193535099Y-88864196D01*
X193733566Y-88731584D01*
X193767039Y-88681488D01*
X194048527Y-88400000D01*
X194279021Y-88400000D01*
X194609809Y-88262983D01*
X194862983Y-88009809D01*
X195000000Y-87679021D01*
X195000000Y-87320979D01*
X194862983Y-86990191D01*
X194609809Y-86737017D01*
X194279021Y-86600000D01*
X193920979Y-86600000D01*
X193590191Y-86737017D01*
X193500000Y-86827208D01*
X193409809Y-86737017D01*
X193079021Y-86600000D01*
X192720979Y-86600000D01*
X192390191Y-86737017D01*
X192137017Y-86990191D01*
X192008690Y-87299999D01*
X191587657Y-87299999D01*
X191528571Y-87288246D01*
X191469484Y-87299999D01*
X191469480Y-87299999D01*
X191294463Y-87334812D01*
X191294461Y-87334813D01*
X191294462Y-87334813D01*
X191165506Y-87420979D01*
X191095996Y-87467424D01*
X191062524Y-87517518D01*
X187100000Y-91480042D01*
X187100000Y-88272792D01*
X187262983Y-88109809D01*
X187400000Y-87779021D01*
X187400000Y-87420979D01*
X187262983Y-87090191D01*
X187009809Y-86837017D01*
X186679021Y-86700000D01*
X186320979Y-86700000D01*
X185990191Y-86837017D01*
X185950000Y-86877208D01*
X185909809Y-86837017D01*
X185579021Y-86700000D01*
X185220979Y-86700000D01*
X184890191Y-86837017D01*
X184637017Y-87090191D01*
X184500000Y-87420979D01*
X184500000Y-87779021D01*
X184637017Y-88109809D01*
X184800001Y-88272793D01*
X184800000Y-92651472D01*
X179979642Y-97471831D01*
X179862983Y-97190191D01*
X179609809Y-96937017D01*
X179279021Y-96800000D01*
X178920979Y-96800000D01*
X178590191Y-96937017D01*
X178337017Y-97190191D01*
X178200000Y-97520979D01*
X178200000Y-97751472D01*
X177551473Y-98400000D01*
X176348528Y-98400000D01*
X178882482Y-95866046D01*
X178932575Y-95832575D01*
X179065187Y-95634108D01*
X179100000Y-95459091D01*
X179100000Y-95459087D01*
X179111753Y-95400000D01*
X179100000Y-95340914D01*
X179100000Y-94372792D01*
X179262983Y-94209809D01*
X179400000Y-93879021D01*
X179400000Y-93520979D01*
X179262983Y-93190191D01*
X179009809Y-92937017D01*
X178679021Y-92800000D01*
X178320979Y-92800000D01*
X177990191Y-92937017D01*
X177850000Y-93077208D01*
X177609809Y-92837017D01*
X177279021Y-92700000D01*
X176920979Y-92700000D01*
X176590191Y-92837017D01*
X176337017Y-93090191D01*
X176200000Y-93420979D01*
X176200000Y-93779021D01*
X176337017Y-94109809D01*
X176500000Y-94272792D01*
X176500001Y-95951471D01*
X172751473Y-99700000D01*
X171495695Y-99700000D01*
X172661451Y-98534243D01*
X172690191Y-98562983D01*
X173020979Y-98700000D01*
X173379021Y-98700000D01*
X173709809Y-98562983D01*
X173962983Y-98309809D01*
X174100000Y-97979021D01*
X174100000Y-97620979D01*
X173962983Y-97290191D01*
X173709809Y-97037017D01*
X173379021Y-96900000D01*
X173099999Y-96900000D01*
X173099999Y-93959085D01*
X173111752Y-93899998D01*
X173099999Y-93840912D01*
X173099999Y-93840908D01*
X173065186Y-93665891D01*
X173000000Y-93568334D01*
X173000000Y-93320979D01*
X172862983Y-92990191D01*
X172609809Y-92737017D01*
X172279021Y-92600000D01*
X171920979Y-92600000D01*
X171590191Y-92737017D01*
X171459600Y-92867608D01*
X171409809Y-92817817D01*
X171079021Y-92680800D01*
X170720979Y-92680800D01*
X170390191Y-92817817D01*
X170137017Y-93070991D01*
X170000000Y-93401779D01*
X170000000Y-93759821D01*
X170137017Y-94090609D01*
X170390191Y-94343783D01*
X170720979Y-94480800D01*
X170951473Y-94480800D01*
X171400000Y-94929328D01*
X171400001Y-96970067D01*
X160067098Y-108302968D01*
X157911244Y-108302969D01*
X167382482Y-98831731D01*
X167432575Y-98798260D01*
X167476751Y-98732147D01*
X167490785Y-98711144D01*
X167565187Y-98599793D01*
X167588078Y-98484714D01*
X167762983Y-98309809D01*
X167900000Y-97979021D01*
X167900000Y-97620979D01*
X167762983Y-97290191D01*
X167509809Y-97037017D01*
X167179021Y-96900000D01*
X166820979Y-96900000D01*
X166490191Y-97037017D01*
X166300000Y-97227208D01*
X166300000Y-94172792D01*
X166462983Y-94009809D01*
X166600000Y-93679021D01*
X166600000Y-93320979D01*
X166462983Y-92990191D01*
X166209809Y-92737017D01*
X165879021Y-92600000D01*
X165520979Y-92600000D01*
X165190191Y-92737017D01*
X165150000Y-92777208D01*
X165109809Y-92737017D01*
X164779021Y-92600000D01*
X164420979Y-92600000D01*
X164090191Y-92737017D01*
X163837017Y-92990191D01*
X163700000Y-93320979D01*
X163700000Y-93679021D01*
X163837017Y-94009809D01*
X164090191Y-94262983D01*
X164420979Y-94400000D01*
X164600001Y-94400000D01*
X164600000Y-98422902D01*
X155916967Y-107105936D01*
X150942591Y-107105936D01*
X157448528Y-100600000D01*
X159327208Y-100600000D01*
X159490191Y-100762983D01*
X159820979Y-100900000D01*
X160179021Y-100900000D01*
X160509809Y-100762983D01*
X160762983Y-100509809D01*
X160900000Y-100179021D01*
X160900000Y-99820979D01*
X160762983Y-99490191D01*
X160509809Y-99237017D01*
X160179021Y-99100000D01*
X159820979Y-99100000D01*
X159490191Y-99237017D01*
X159327208Y-99400000D01*
X158625011Y-99400000D01*
X158649575Y-99363238D01*
X159952382Y-98060432D01*
X160002475Y-98026961D01*
X160135087Y-97828494D01*
X160169900Y-97653477D01*
X160169900Y-97653473D01*
X160181653Y-97594386D01*
X160169900Y-97535300D01*
X160169900Y-94572792D01*
X160332883Y-94409809D01*
X160469900Y-94079021D01*
X160469900Y-93720979D01*
X160332883Y-93390191D01*
X160079709Y-93137017D01*
X159748921Y-93000000D01*
X159390879Y-93000000D01*
X159060091Y-93137017D01*
X159059600Y-93137508D01*
X159009809Y-93087717D01*
X158679021Y-92950700D01*
X158320979Y-92950700D01*
X157990191Y-93087717D01*
X157737017Y-93340891D01*
X157600000Y-93671679D01*
X157600000Y-94029721D01*
X157737017Y-94360509D01*
X157911923Y-94535415D01*
X157934813Y-94650492D01*
X158067425Y-94848960D01*
X158117521Y-94882433D01*
X158550001Y-95314914D01*
X158550000Y-97201471D01*
X157769722Y-97981750D01*
X157548767Y-97981750D01*
X157489679Y-97969997D01*
X157430591Y-97981750D01*
X157430588Y-97981750D01*
X157297366Y-98008249D01*
X157255570Y-98016563D01*
X157107198Y-98115703D01*
X157057104Y-98149175D01*
X157023632Y-98199269D01*
X146722902Y-108500000D01*
X143848527Y-108500000D01*
X153648528Y-98700000D01*
X153879021Y-98700000D01*
X154209809Y-98562983D01*
X154462983Y-98309809D01*
X154600000Y-97979021D01*
X154600000Y-97620979D01*
X154462983Y-97290191D01*
X154209809Y-97037017D01*
X153879021Y-96900000D01*
X153520979Y-96900000D01*
X153500000Y-96908690D01*
X153500000Y-94372792D01*
X153662983Y-94209809D01*
X153800000Y-93879021D01*
X153800000Y-93520979D01*
X153662983Y-93190191D01*
X153409809Y-92937017D01*
X153079021Y-92800000D01*
X152720979Y-92800000D01*
X152390191Y-92937017D01*
X152159600Y-93167608D01*
X152009809Y-93017817D01*
X151679021Y-92880800D01*
X151320979Y-92880800D01*
X150990191Y-93017817D01*
X150737017Y-93270991D01*
X150600000Y-93601779D01*
X150600000Y-93959821D01*
X150737017Y-94290609D01*
X150990191Y-94543783D01*
X151320979Y-94680800D01*
X151551472Y-94680800D01*
X151900000Y-95029329D01*
X151900001Y-97135335D01*
X142697162Y-106338175D01*
X141438924Y-106338175D01*
X148179519Y-99597581D01*
X148229613Y-99564109D01*
X148362225Y-99365642D01*
X148397038Y-99190625D01*
X148397038Y-99190621D01*
X148408791Y-99131535D01*
X148397038Y-99072449D01*
X148397038Y-94956123D01*
X148408791Y-94897037D01*
X148397038Y-94837951D01*
X148397038Y-94837947D01*
X148362225Y-94662930D01*
X148229613Y-94464463D01*
X148179520Y-94430992D01*
X147500000Y-93751473D01*
X147500000Y-93520979D01*
X147362983Y-93190191D01*
X147109809Y-92937017D01*
X146779021Y-92800000D01*
X146420979Y-92800000D01*
X146090191Y-92937017D01*
X145990400Y-93036808D01*
X145790609Y-92837017D01*
X145459821Y-92700000D01*
X145101779Y-92700000D01*
X144770991Y-92837017D01*
X144517817Y-93090191D01*
X144380800Y-93420979D01*
X144380800Y-93779021D01*
X144517817Y-94109809D01*
X144770991Y-94362983D01*
X145101779Y-94500000D01*
X145332273Y-94500000D01*
X146798032Y-95965760D01*
X146798032Y-97311212D01*
X146609809Y-97122989D01*
X146279021Y-96985972D01*
X145920979Y-96985972D01*
X145590191Y-97122989D01*
X145337017Y-97376163D01*
X145200000Y-97706951D01*
X145200000Y-98064993D01*
X145337017Y-98395781D01*
X145500001Y-98558765D01*
X145500000Y-99451472D01*
X139951473Y-105000000D01*
X138887750Y-105000000D01*
X138965187Y-104884108D01*
X139000000Y-104709091D01*
X139000000Y-104709087D01*
X139011753Y-104650001D01*
X139000000Y-104590915D01*
X139000000Y-104412812D01*
X141381492Y-102031321D01*
X141431585Y-101997850D01*
X141564197Y-101799383D01*
X141599010Y-101624366D01*
X141599010Y-101624362D01*
X141610763Y-101565276D01*
X141599010Y-101506189D01*
X141599010Y-100249517D01*
X142834028Y-99014500D01*
X143079021Y-99014500D01*
X143409809Y-98877483D01*
X143662983Y-98624309D01*
X143800000Y-98293521D01*
X143800000Y-97935479D01*
X143662983Y-97604691D01*
X143409809Y-97351517D01*
X143079021Y-97214500D01*
X142720979Y-97214500D01*
X142390191Y-97351517D01*
X142137017Y-97604691D01*
X142000000Y-97935479D01*
X142000000Y-98151472D01*
X141200000Y-98951473D01*
X141200000Y-94259085D01*
X141211753Y-94199999D01*
X141200000Y-94140913D01*
X141200000Y-94140909D01*
X141165187Y-93965892D01*
X141100000Y-93868333D01*
X141100000Y-93620979D01*
X140962983Y-93290191D01*
X140709809Y-93037017D01*
X140379021Y-92900000D01*
X140020979Y-92900000D01*
X139690191Y-93037017D01*
X139522178Y-93205030D01*
X139266348Y-93099062D01*
X138908306Y-93099062D01*
X138577518Y-93236079D01*
X138324344Y-93489253D01*
X138187327Y-93820041D01*
X138187327Y-94178083D01*
X138324344Y-94508871D01*
X138577518Y-94762045D01*
X138908306Y-94899062D01*
X139138800Y-94899062D01*
X139600991Y-95361254D01*
X139600990Y-100986198D01*
X137487189Y-103100000D01*
X137372792Y-103100000D01*
X137209809Y-102937017D01*
X136879021Y-102800000D01*
X136520979Y-102800000D01*
X136190191Y-102937017D01*
X135937017Y-103190191D01*
X135800000Y-103520979D01*
X135800000Y-103879021D01*
X135937017Y-104209809D01*
X136027208Y-104300000D01*
X135920979Y-104300000D01*
X135590191Y-104437017D01*
X135337017Y-104690191D01*
X135200000Y-105020979D01*
X135200000Y-105379021D01*
X135337017Y-105709809D01*
X135590191Y-105962983D01*
X135920979Y-106100000D01*
X136279021Y-106100000D01*
X136609809Y-105962983D01*
X136772792Y-105800000D01*
X137667181Y-105800000D01*
X137576034Y-105891147D01*
X137439017Y-106221935D01*
X137439017Y-106579977D01*
X137576034Y-106910765D01*
X137829208Y-107163939D01*
X138159996Y-107300956D01*
X138482581Y-107300956D01*
X138476748Y-107315038D01*
X138476748Y-107673080D01*
X138613765Y-108003868D01*
X138866939Y-108257042D01*
X139197727Y-108394059D01*
X139555769Y-108394059D01*
X139628162Y-108364073D01*
X139628162Y-108629031D01*
X139765179Y-108959819D01*
X140018353Y-109212993D01*
X140349141Y-109350010D01*
X140707183Y-109350010D01*
X141000000Y-109228721D01*
X141000000Y-109279021D01*
X141137017Y-109609809D01*
X141390191Y-109862983D01*
X141720979Y-110000000D01*
X141908690Y-110000000D01*
X142037017Y-110309809D01*
X142290191Y-110562983D01*
X142500000Y-110649889D01*
X142500000Y-110702968D01*
X142456114Y-110702968D01*
X142456104Y-110702966D01*
X142427537Y-110702967D01*
X142368460Y-110691216D01*
X142309359Y-110702972D01*
X142309350Y-110702972D01*
X142260402Y-110712710D01*
X142134352Y-110737783D01*
X142134343Y-110737789D01*
X142134334Y-110737791D01*
X142056465Y-110789825D01*
X141985980Y-110836922D01*
X141985969Y-110836933D01*
X141935871Y-110870410D01*
X141902409Y-110920493D01*
X137122903Y-115700000D01*
X136959088Y-115700000D01*
X136900000Y-115688247D01*
X136840912Y-115700000D01*
X136840909Y-115700000D01*
X136707687Y-115726499D01*
X136665891Y-115734813D01*
X136521217Y-115831482D01*
X136467425Y-115867425D01*
X136433953Y-115917519D01*
X135051473Y-117300000D01*
X134820979Y-117300000D01*
X134490191Y-117437017D01*
X134237017Y-117690191D01*
X134186044Y-117813252D01*
X134109809Y-117737017D01*
X133779021Y-117600000D01*
X133420979Y-117600000D01*
X133090191Y-117737017D01*
X132837017Y-117990191D01*
X132700000Y-118320979D01*
X129550000Y-118320979D01*
X129550000Y-116122792D01*
X129690191Y-116262983D01*
X130020979Y-116400000D01*
X130379021Y-116400000D01*
X130709809Y-116262983D01*
X130962983Y-116009809D01*
X131100000Y-115679021D01*
X131100000Y-115448528D01*
X131348528Y-115200000D01*
X135085054Y-115200000D01*
X135089117Y-115209809D01*
X135342291Y-115462983D01*
X135673079Y-115600000D01*
X136031121Y-115600000D01*
X136361909Y-115462983D01*
X136615083Y-115209809D01*
X136752100Y-114879021D01*
X136752100Y-114520979D01*
X136615083Y-114190191D01*
X136361909Y-113937017D01*
X136031121Y-113800000D01*
X135673079Y-113800000D01*
X135342291Y-113937017D01*
X135279308Y-114000000D01*
X131159086Y-114000000D01*
X131099999Y-113988247D01*
X131040913Y-114000000D01*
X131040909Y-114000000D01*
X130865892Y-114034813D01*
X130667425Y-114167425D01*
X130633953Y-114217519D01*
X130251472Y-114600000D01*
X130020979Y-114600000D01*
X129690191Y-114737017D01*
X129550000Y-114877208D01*
X129550000Y-71902161D01*
X140800790Y-71902161D01*
X140800790Y-72697759D01*
X141105252Y-73432795D01*
X141667825Y-73995368D01*
X142402861Y-74299830D01*
X143198459Y-74299830D01*
X143933495Y-73995368D01*
X144496068Y-73432795D01*
X144800530Y-72697759D01*
X144800530Y-71902161D01*
X191199470Y-71902161D01*
X191199470Y-72697759D01*
X191503932Y-73432795D01*
X192066505Y-73995368D01*
X192801541Y-74299830D01*
X193597139Y-74299830D01*
X194332175Y-73995368D01*
X194894748Y-73432795D01*
X195199210Y-72697759D01*
X195199210Y-71902161D01*
X194894748Y-71167125D01*
X194332175Y-70604552D01*
X193597139Y-70300090D01*
X192801541Y-70300090D01*
X192066505Y-70604552D01*
X191503932Y-71167125D01*
X191199470Y-71902161D01*
X144800530Y-71902161D01*
X144496068Y-71167125D01*
X143933495Y-70604552D01*
X143198459Y-70300090D01*
X142402861Y-70300090D01*
X141667825Y-70604552D01*
X141105252Y-71167125D01*
X140800790Y-71902161D01*
X129550000Y-71902161D01*
X129550000Y-68637549D01*
X152190150Y-68637549D01*
X152190150Y-69358371D01*
X152465997Y-70024324D01*
X152975696Y-70534023D01*
X153641649Y-70809870D01*
X154362471Y-70809870D01*
X155028424Y-70534023D01*
X155538123Y-70024324D01*
X155813970Y-69358371D01*
X155813970Y-68637549D01*
X156188110Y-68637549D01*
X156188110Y-69358371D01*
X156463957Y-70024324D01*
X156973656Y-70534023D01*
X157639609Y-70809870D01*
X158360431Y-70809870D01*
X159026384Y-70534023D01*
X159536083Y-70024324D01*
X159811930Y-69358371D01*
X159811930Y-68637549D01*
X160188610Y-68637549D01*
X160188610Y-69358371D01*
X160464457Y-70024324D01*
X160974156Y-70534023D01*
X161640109Y-70809870D01*
X162360931Y-70809870D01*
X163026884Y-70534023D01*
X163536583Y-70024324D01*
X163812430Y-69358371D01*
X163812430Y-68637549D01*
X164189110Y-68637549D01*
X164189110Y-69358371D01*
X164464957Y-70024324D01*
X164974656Y-70534023D01*
X165640609Y-70809870D01*
X166361431Y-70809870D01*
X167027384Y-70534023D01*
X167537083Y-70024324D01*
X167812930Y-69358371D01*
X167812930Y-68637549D01*
X168187070Y-68637549D01*
X168187070Y-69358371D01*
X168462917Y-70024324D01*
X168972616Y-70534023D01*
X169638569Y-70809870D01*
X170359391Y-70809870D01*
X171025344Y-70534023D01*
X171535043Y-70024324D01*
X171810890Y-69358371D01*
X171810890Y-68637549D01*
X172187570Y-68637549D01*
X172187570Y-69358371D01*
X172463417Y-70024324D01*
X172973116Y-70534023D01*
X173639069Y-70809870D01*
X174359891Y-70809870D01*
X175025844Y-70534023D01*
X175535543Y-70024324D01*
X175811390Y-69358371D01*
X175811390Y-68637549D01*
X176188070Y-68637549D01*
X176188070Y-69358371D01*
X176463917Y-70024324D01*
X176973616Y-70534023D01*
X177639569Y-70809870D01*
X178360391Y-70809870D01*
X179026344Y-70534023D01*
X179536043Y-70024324D01*
X179811890Y-69358371D01*
X179811890Y-68637549D01*
X180186030Y-68637549D01*
X180186030Y-69358371D01*
X180461877Y-70024324D01*
X180971576Y-70534023D01*
X181637529Y-70809870D01*
X182358351Y-70809870D01*
X183024304Y-70534023D01*
X183534003Y-70024324D01*
X183809850Y-69358371D01*
X183809850Y-68637549D01*
X183534003Y-67971596D01*
X183024304Y-67461897D01*
X182358351Y-67186050D01*
X181637529Y-67186050D01*
X180971576Y-67461897D01*
X180461877Y-67971596D01*
X180186030Y-68637549D01*
X179811890Y-68637549D01*
X179536043Y-67971596D01*
X179026344Y-67461897D01*
X178360391Y-67186050D01*
X177639569Y-67186050D01*
X176973616Y-67461897D01*
X176463917Y-67971596D01*
X176188070Y-68637549D01*
X175811390Y-68637549D01*
X175535543Y-67971596D01*
X175025844Y-67461897D01*
X174359891Y-67186050D01*
X173639069Y-67186050D01*
X172973116Y-67461897D01*
X172463417Y-67971596D01*
X172187570Y-68637549D01*
X171810890Y-68637549D01*
X171535043Y-67971596D01*
X171025344Y-67461897D01*
X170359391Y-67186050D01*
X169638569Y-67186050D01*
X168972616Y-67461897D01*
X168462917Y-67971596D01*
X168187070Y-68637549D01*
X167812930Y-68637549D01*
X167537083Y-67971596D01*
X167027384Y-67461897D01*
X166361431Y-67186050D01*
X165640609Y-67186050D01*
X164974656Y-67461897D01*
X164464957Y-67971596D01*
X164189110Y-68637549D01*
X163812430Y-68637549D01*
X163536583Y-67971596D01*
X163026884Y-67461897D01*
X162360931Y-67186050D01*
X161640109Y-67186050D01*
X160974156Y-67461897D01*
X160464457Y-67971596D01*
X160188610Y-68637549D01*
X159811930Y-68637549D01*
X159536083Y-67971596D01*
X159026384Y-67461897D01*
X158360431Y-67186050D01*
X157639609Y-67186050D01*
X156973656Y-67461897D01*
X156463957Y-67971596D01*
X156188110Y-68637549D01*
X155813970Y-68637549D01*
X155538123Y-67971596D01*
X155028424Y-67461897D01*
X154362471Y-67186050D01*
X153641649Y-67186050D01*
X152975696Y-67461897D01*
X152465997Y-67971596D01*
X152190150Y-68637549D01*
X129550000Y-68637549D01*
X129550000Y-64639589D01*
X154189130Y-64639589D01*
X154189130Y-65360411D01*
X154464977Y-66026364D01*
X154974676Y-66536063D01*
X155640629Y-66811910D01*
X156361451Y-66811910D01*
X157027404Y-66536063D01*
X157537103Y-66026364D01*
X157812950Y-65360411D01*
X157812950Y-64639589D01*
X158189630Y-64639589D01*
X158189630Y-65360411D01*
X158465477Y-66026364D01*
X158975176Y-66536063D01*
X159641129Y-66811910D01*
X160361951Y-66811910D01*
X161027904Y-66536063D01*
X161537603Y-66026364D01*
X161813450Y-65360411D01*
X161813450Y-64639589D01*
X162190130Y-64639589D01*
X162190130Y-65360411D01*
X162465977Y-66026364D01*
X162975676Y-66536063D01*
X163641629Y-66811910D01*
X164362451Y-66811910D01*
X165028404Y-66536063D01*
X165538103Y-66026364D01*
X165813950Y-65360411D01*
X165813950Y-64639589D01*
X166188090Y-64639589D01*
X166188090Y-65360411D01*
X166463937Y-66026364D01*
X166973636Y-66536063D01*
X167639589Y-66811910D01*
X168360411Y-66811910D01*
X169026364Y-66536063D01*
X169536063Y-66026364D01*
X169811910Y-65360411D01*
X169811910Y-64639589D01*
X170186050Y-64639589D01*
X170186050Y-65360411D01*
X170461897Y-66026364D01*
X170971596Y-66536063D01*
X171637549Y-66811910D01*
X172358371Y-66811910D01*
X173024324Y-66536063D01*
X173534023Y-66026364D01*
X173809870Y-65360411D01*
X173809870Y-64639589D01*
X174186550Y-64639589D01*
X174186550Y-65360411D01*
X174462397Y-66026364D01*
X174972096Y-66536063D01*
X175638049Y-66811910D01*
X176358871Y-66811910D01*
X177024824Y-66536063D01*
X177534523Y-66026364D01*
X177810370Y-65360411D01*
X177810370Y-64639589D01*
X178187050Y-64639589D01*
X178187050Y-65360411D01*
X178462897Y-66026364D01*
X178972596Y-66536063D01*
X179638549Y-66811910D01*
X180359371Y-66811910D01*
X181025324Y-66536063D01*
X181535023Y-66026364D01*
X181810870Y-65360411D01*
X181810870Y-64639589D01*
X181535023Y-63973636D01*
X181025324Y-63463937D01*
X180359371Y-63188090D01*
X179638549Y-63188090D01*
X178972596Y-63463937D01*
X178462897Y-63973636D01*
X178187050Y-64639589D01*
X177810370Y-64639589D01*
X177534523Y-63973636D01*
X177024824Y-63463937D01*
X176358871Y-63188090D01*
X175638049Y-63188090D01*
X174972096Y-63463937D01*
X174462397Y-63973636D01*
X174186550Y-64639589D01*
X173809870Y-64639589D01*
X173534023Y-63973636D01*
X173024324Y-63463937D01*
X172358371Y-63188090D01*
X171637549Y-63188090D01*
X170971596Y-63463937D01*
X170461897Y-63973636D01*
X170186050Y-64639589D01*
X169811910Y-64639589D01*
X169536063Y-63973636D01*
X169026364Y-63463937D01*
X168360411Y-63188090D01*
X167639589Y-63188090D01*
X166973636Y-63463937D01*
X166463937Y-63973636D01*
X166188090Y-64639589D01*
X165813950Y-64639589D01*
X165538103Y-63973636D01*
X165028404Y-63463937D01*
X164362451Y-63188090D01*
X163641629Y-63188090D01*
X162975676Y-63463937D01*
X162465977Y-63973636D01*
X162190130Y-64639589D01*
X161813450Y-64639589D01*
X161537603Y-63973636D01*
X161027904Y-63463937D01*
X160361951Y-63188090D01*
X159641129Y-63188090D01*
X158975176Y-63463937D01*
X158465477Y-63973636D01*
X158189630Y-64639589D01*
X157812950Y-64639589D01*
X157537103Y-63973636D01*
X157027404Y-63463937D01*
X156361451Y-63188090D01*
X155640629Y-63188090D01*
X154974676Y-63463937D01*
X154464977Y-63973636D01*
X154189130Y-64639589D01*
X129550000Y-64639589D01*
X129550000Y-59690130D01*
X152180355Y-59690130D01*
X152180355Y-62313950D01*
X152219161Y-62509040D01*
X152329670Y-62674430D01*
X152495060Y-62784939D01*
X152690150Y-62823745D01*
X155313970Y-62823745D01*
X155509060Y-62784939D01*
X155674450Y-62674430D01*
X155784959Y-62509040D01*
X155823765Y-62313950D01*
X155823765Y-60641629D01*
X156188110Y-60641629D01*
X156188110Y-61362451D01*
X156463957Y-62028404D01*
X156973656Y-62538103D01*
X157639609Y-62813950D01*
X158360431Y-62813950D01*
X159026384Y-62538103D01*
X159536083Y-62028404D01*
X159811930Y-61362451D01*
X159811930Y-60641629D01*
X160188610Y-60641629D01*
X160188610Y-61362451D01*
X160464457Y-62028404D01*
X160974156Y-62538103D01*
X161640109Y-62813950D01*
X162360931Y-62813950D01*
X163026884Y-62538103D01*
X163536583Y-62028404D01*
X163812430Y-61362451D01*
X163812430Y-60641629D01*
X164189110Y-60641629D01*
X164189110Y-61362451D01*
X164464957Y-62028404D01*
X164974656Y-62538103D01*
X165640609Y-62813950D01*
X166361431Y-62813950D01*
X167027384Y-62538103D01*
X167537083Y-62028404D01*
X167812930Y-61362451D01*
X167812930Y-60641629D01*
X168187070Y-60641629D01*
X168187070Y-61362451D01*
X168462917Y-62028404D01*
X168972616Y-62538103D01*
X169638569Y-62813950D01*
X170359391Y-62813950D01*
X171025344Y-62538103D01*
X171535043Y-62028404D01*
X171810890Y-61362451D01*
X171810890Y-60641629D01*
X172187570Y-60641629D01*
X172187570Y-61362451D01*
X172463417Y-62028404D01*
X172973116Y-62538103D01*
X173639069Y-62813950D01*
X174359891Y-62813950D01*
X175025844Y-62538103D01*
X175535543Y-62028404D01*
X175811390Y-61362451D01*
X175811390Y-60641629D01*
X176188070Y-60641629D01*
X176188070Y-61362451D01*
X176463917Y-62028404D01*
X176973616Y-62538103D01*
X177639569Y-62813950D01*
X178360391Y-62813950D01*
X179026344Y-62538103D01*
X179536043Y-62028404D01*
X179811890Y-61362451D01*
X179811890Y-60641629D01*
X180186030Y-60641629D01*
X180186030Y-61362451D01*
X180461877Y-62028404D01*
X180971576Y-62538103D01*
X181637529Y-62813950D01*
X182358351Y-62813950D01*
X183024304Y-62538103D01*
X183534003Y-62028404D01*
X183809850Y-61362451D01*
X183809850Y-60641629D01*
X183534003Y-59975676D01*
X183024304Y-59465977D01*
X182358351Y-59190130D01*
X181637529Y-59190130D01*
X180971576Y-59465977D01*
X180461877Y-59975676D01*
X180186030Y-60641629D01*
X179811890Y-60641629D01*
X179536043Y-59975676D01*
X179026344Y-59465977D01*
X178360391Y-59190130D01*
X177639569Y-59190130D01*
X176973616Y-59465977D01*
X176463917Y-59975676D01*
X176188070Y-60641629D01*
X175811390Y-60641629D01*
X175535543Y-59975676D01*
X175025844Y-59465977D01*
X174359891Y-59190130D01*
X173639069Y-59190130D01*
X172973116Y-59465977D01*
X172463417Y-59975676D01*
X172187570Y-60641629D01*
X171810890Y-60641629D01*
X171535043Y-59975676D01*
X171025344Y-59465977D01*
X170359391Y-59190130D01*
X169638569Y-59190130D01*
X168972616Y-59465977D01*
X168462917Y-59975676D01*
X168187070Y-60641629D01*
X167812930Y-60641629D01*
X167537083Y-59975676D01*
X167027384Y-59465977D01*
X166361431Y-59190130D01*
X165640609Y-59190130D01*
X164974656Y-59465977D01*
X164464957Y-59975676D01*
X164189110Y-60641629D01*
X163812430Y-60641629D01*
X163536583Y-59975676D01*
X163026884Y-59465977D01*
X162360931Y-59190130D01*
X161640109Y-59190130D01*
X160974156Y-59465977D01*
X160464457Y-59975676D01*
X160188610Y-60641629D01*
X159811930Y-60641629D01*
X159536083Y-59975676D01*
X159026384Y-59465977D01*
X158360431Y-59190130D01*
X157639609Y-59190130D01*
X156973656Y-59465977D01*
X156463957Y-59975676D01*
X156188110Y-60641629D01*
X155823765Y-60641629D01*
X155823765Y-59690130D01*
X155784959Y-59495040D01*
X155674450Y-59329650D01*
X155509060Y-59219141D01*
X155313970Y-59180335D01*
X152690150Y-59180335D01*
X152495060Y-59219141D01*
X152329670Y-59329650D01*
X152219161Y-59495040D01*
X152180355Y-59690130D01*
X129550000Y-59690130D01*
X129550000Y-57720979D01*
X164600000Y-57720979D01*
X164600000Y-58079021D01*
X164737017Y-58409809D01*
X164990191Y-58662983D01*
X165320979Y-58800000D01*
X165679021Y-58800000D01*
X166009809Y-58662983D01*
X166262983Y-58409809D01*
X166362984Y-58168386D01*
X167431370Y-57100000D01*
X175879558Y-57100000D01*
X176120979Y-57200000D01*
X176479021Y-57200000D01*
X176809809Y-57062983D01*
X177062983Y-56809809D01*
X177200000Y-56479021D01*
X177200000Y-56120979D01*
X177062983Y-55790191D01*
X176809809Y-55537017D01*
X176479021Y-55400000D01*
X176120979Y-55400000D01*
X175879558Y-55500000D01*
X167178785Y-55500000D01*
X167100000Y-55484329D01*
X167021215Y-55500000D01*
X167021211Y-55500000D01*
X166837950Y-55536453D01*
X166787855Y-55546417D01*
X166671347Y-55624266D01*
X166523233Y-55723233D01*
X166478602Y-55790028D01*
X165231614Y-57037016D01*
X164990191Y-57137017D01*
X164737017Y-57390191D01*
X164600000Y-57720979D01*
X129550000Y-57720979D01*
X129550000Y-53804661D01*
X142301930Y-53804661D01*
X142301930Y-54600259D01*
X142606392Y-55335295D01*
X143168965Y-55897868D01*
X143904001Y-56202330D01*
X144699599Y-56202330D01*
X145434635Y-55897868D01*
X145997208Y-55335295D01*
X146301670Y-54600259D01*
X146301670Y-53804661D01*
X145997208Y-53069625D01*
X145683562Y-52755979D01*
X163800000Y-52755979D01*
X163800000Y-53114021D01*
X163937017Y-53444809D01*
X164190191Y-53697983D01*
X164520979Y-53835000D01*
X164879021Y-53835000D01*
X164952265Y-53804661D01*
X189698330Y-53804661D01*
X189698330Y-54600259D01*
X190002792Y-55335295D01*
X190565365Y-55897868D01*
X191300401Y-56202330D01*
X192095999Y-56202330D01*
X192831035Y-55897868D01*
X193393608Y-55335295D01*
X193698070Y-54600259D01*
X193698070Y-53804661D01*
X193393608Y-53069625D01*
X192831035Y-52507052D01*
X192095999Y-52202590D01*
X191300401Y-52202590D01*
X190565365Y-52507052D01*
X190002792Y-53069625D01*
X189698330Y-53804661D01*
X164952265Y-53804661D01*
X165209809Y-53697983D01*
X165216743Y-53691049D01*
X165261745Y-53700000D01*
X165261750Y-53700000D01*
X165330685Y-53713712D01*
X165399620Y-53700000D01*
X174931065Y-53700000D01*
X175000000Y-53713712D01*
X175068935Y-53700000D01*
X175068940Y-53700000D01*
X175273126Y-53659385D01*
X175504671Y-53504671D01*
X175543724Y-53446224D01*
X175689948Y-53300000D01*
X175779021Y-53300000D01*
X176109809Y-53162983D01*
X176362983Y-52909809D01*
X176500000Y-52579021D01*
X176500000Y-52220979D01*
X176362983Y-51890191D01*
X176109809Y-51637017D01*
X175779021Y-51500000D01*
X175420979Y-51500000D01*
X175090191Y-51637017D01*
X174837017Y-51890191D01*
X174700000Y-52220979D01*
X174700000Y-52300000D01*
X165575306Y-52300000D01*
X165538811Y-52275615D01*
X165334625Y-52235000D01*
X165334620Y-52235000D01*
X165265685Y-52221288D01*
X165260176Y-52222384D01*
X165209809Y-52172017D01*
X164879021Y-52035000D01*
X164520979Y-52035000D01*
X164190191Y-52172017D01*
X163937017Y-52425191D01*
X163800000Y-52755979D01*
X145683562Y-52755979D01*
X145434635Y-52507052D01*
X144699599Y-52202590D01*
X143904001Y-52202590D01*
X143168965Y-52507052D01*
X142606392Y-53069625D01*
X142301930Y-53804661D01*
X129550000Y-53804661D01*
X129550000Y-51030746D01*
X129589396Y-50679522D01*
X129695454Y-50374966D01*
X129866348Y-50101478D01*
X130093585Y-49872648D01*
X130365876Y-49699848D01*
X130669681Y-49591668D01*
X131019122Y-49550000D01*
X204969254Y-49550000D01*
X205320478Y-49589396D01*
X205320478Y-49589396D01*
G37*
X205320478Y-49589396D02*
X205625034Y-49695454D01*
X205898522Y-49866348D01*
X206127352Y-50093585D01*
X206300152Y-50365876D01*
X206408332Y-50669681D01*
X206450001Y-51019131D01*
X206450000Y-136969253D01*
X206410604Y-137320479D01*
X206304547Y-137625033D01*
X206133652Y-137898522D01*
X205906415Y-138127352D01*
X205634124Y-138300152D01*
X205330323Y-138408331D01*
X204980877Y-138450000D01*
X131028678Y-138450000D01*
X130679521Y-138410836D01*
X130374967Y-138304779D01*
X130101478Y-138133884D01*
X129872648Y-137906647D01*
X129699848Y-137634356D01*
X129591669Y-137330555D01*
X129550000Y-136981109D01*
X129550000Y-129902161D01*
X150800770Y-129902161D01*
X150800770Y-130697759D01*
X151105232Y-131432795D01*
X151667805Y-131995368D01*
X152402841Y-132299830D01*
X153198439Y-132299830D01*
X153933475Y-131995368D01*
X154496048Y-131432795D01*
X154800510Y-130697759D01*
X154800510Y-129902161D01*
X181199490Y-129902161D01*
X181199490Y-130697759D01*
X181503952Y-131432795D01*
X182066525Y-131995368D01*
X182801561Y-132299830D01*
X183597159Y-132299830D01*
X184332195Y-131995368D01*
X184894768Y-131432795D01*
X185199230Y-130697759D01*
X185199230Y-129902161D01*
X184894768Y-129167125D01*
X184332195Y-128604552D01*
X183597159Y-128300090D01*
X182801561Y-128300090D01*
X182066525Y-128604552D01*
X181503952Y-129167125D01*
X181199490Y-129902161D01*
X154800510Y-129902161D01*
X154496048Y-129167125D01*
X153933475Y-128604552D01*
X153198439Y-128300090D01*
X152402841Y-128300090D01*
X151667805Y-128604552D01*
X151105232Y-129167125D01*
X150800770Y-129902161D01*
X129550000Y-129902161D01*
X129550000Y-123720979D01*
X149800000Y-123720979D01*
X149800000Y-124079021D01*
X149937017Y-124409809D01*
X150025787Y-124498579D01*
X150040615Y-124573125D01*
X150195329Y-124804670D01*
X150253774Y-124843722D01*
X150856279Y-125446229D01*
X150895329Y-125504671D01*
X150953771Y-125543721D01*
X150953772Y-125543722D01*
X151056995Y-125612693D01*
X151126874Y-125659385D01*
X151331060Y-125700000D01*
X151331064Y-125700000D01*
X151399999Y-125713712D01*
X151468934Y-125700000D01*
X162737573Y-125700000D01*
X162465977Y-125971596D01*
X162190130Y-126637549D01*
X162190130Y-127358371D01*
X162465977Y-128024324D01*
X162975676Y-128534023D01*
X163641629Y-128809870D01*
X164362451Y-128809870D01*
X165028404Y-128534023D01*
X165538103Y-128024324D01*
X165813950Y-127358371D01*
X165813950Y-126637549D01*
X165538103Y-125971596D01*
X165266507Y-125700000D01*
X166735533Y-125700000D01*
X166463937Y-125971596D01*
X166188090Y-126637549D01*
X166188090Y-127358371D01*
X166463937Y-128024324D01*
X166973636Y-128534023D01*
X167639589Y-128809870D01*
X168360411Y-128809870D01*
X169026364Y-128534023D01*
X169536063Y-128024324D01*
X169811910Y-127358371D01*
X169811910Y-126637549D01*
X170186050Y-126637549D01*
X170186050Y-127358371D01*
X170461897Y-128024324D01*
X170971596Y-128534023D01*
X171637549Y-128809870D01*
X172358371Y-128809870D01*
X173024324Y-128534023D01*
X173534023Y-128024324D01*
X173809870Y-127358371D01*
X173809870Y-126637549D01*
X173534023Y-125971596D01*
X173024324Y-125461897D01*
X172358371Y-125186050D01*
X171637549Y-125186050D01*
X170971596Y-125461897D01*
X170461897Y-125971596D01*
X170186050Y-126637549D01*
X169811910Y-126637549D01*
X169536063Y-125971596D01*
X169026364Y-125461897D01*
X168673282Y-125315646D01*
X169312204Y-124676725D01*
X169638569Y-124811910D01*
X170359391Y-124811910D01*
X171025344Y-124536063D01*
X171535043Y-124026364D01*
X171810890Y-123360411D01*
X171810890Y-122639589D01*
X171535043Y-121973636D01*
X171025344Y-121463937D01*
X170359391Y-121188090D01*
X169638569Y-121188090D01*
X168972616Y-121463937D01*
X168462917Y-121973636D01*
X168187070Y-122639589D01*
X168187070Y-123360411D01*
X168322255Y-123686776D01*
X167709032Y-124300000D01*
X167263447Y-124300000D01*
X167537083Y-124026364D01*
X167812930Y-123360411D01*
X167812930Y-122639589D01*
X167537083Y-121973636D01*
X167027384Y-121463937D01*
X166361431Y-121188090D01*
X165640609Y-121188090D01*
X164974656Y-121463937D01*
X164464957Y-121973636D01*
X164189110Y-122639589D01*
X164189110Y-123360411D01*
X164246930Y-123500000D01*
X152808467Y-123500000D01*
X152762983Y-123390191D01*
X152509809Y-123137017D01*
X152179021Y-123000000D01*
X151820979Y-123000000D01*
X151490191Y-123137017D01*
X151350000Y-123277208D01*
X151209809Y-123137017D01*
X150879021Y-123000000D01*
X150520979Y-123000000D01*
X150190191Y-123137017D01*
X149937017Y-123390191D01*
X149800000Y-123720979D01*
X129550000Y-123720979D01*
X129550000Y-118320979D01*
X132700000Y-118320979D01*
X132700000Y-118679021D01*
X132837017Y-119009809D01*
X133090191Y-119262983D01*
X133420979Y-119400000D01*
X133668334Y-119400000D01*
X133765891Y-119465186D01*
X133940908Y-119499999D01*
X133940912Y-119499999D01*
X133999998Y-119511752D01*
X134059085Y-119499999D01*
X134908690Y-119499999D01*
X134900000Y-119520979D01*
X134900000Y-119879021D01*
X134954168Y-120009793D01*
X134866436Y-120068414D01*
X134832964Y-120118508D01*
X134351473Y-120600000D01*
X134120979Y-120600000D01*
X133790191Y-120737017D01*
X133537017Y-120990191D01*
X133400000Y-121320979D01*
X133400000Y-121679021D01*
X133537017Y-122009809D01*
X133790191Y-122262983D01*
X134120979Y-122400000D01*
X134479021Y-122400000D01*
X134809809Y-122262983D01*
X134900000Y-122172792D01*
X134990191Y-122262983D01*
X135320979Y-122400000D01*
X135679021Y-122400000D01*
X136009809Y-122262983D01*
X136262983Y-122009809D01*
X136400000Y-121679021D01*
X136400000Y-121500000D01*
X137840914Y-121500000D01*
X137900000Y-121511753D01*
X137959086Y-121500000D01*
X137959091Y-121500000D01*
X138134108Y-121465187D01*
X138332575Y-121332575D01*
X138366049Y-121282478D01*
X142849518Y-116799010D01*
X146186199Y-116799010D01*
X147068678Y-117681491D01*
X147102150Y-117731585D01*
X147300617Y-117864197D01*
X147475634Y-117899010D01*
X147475638Y-117899010D01*
X147534724Y-117910763D01*
X147593810Y-117899010D01*
X148506188Y-117899010D01*
X148565275Y-117910763D01*
X148624361Y-117899010D01*
X148624366Y-117899010D01*
X148799383Y-117864197D01*
X148997850Y-117731585D01*
X149025549Y-117690130D01*
X162180335Y-117690130D01*
X162180335Y-120313950D01*
X162219141Y-120509040D01*
X162329650Y-120674430D01*
X162495040Y-120784939D01*
X162690130Y-120823745D01*
X165313950Y-120823745D01*
X165509040Y-120784939D01*
X165674430Y-120674430D01*
X165784939Y-120509040D01*
X165823745Y-120313950D01*
X165823745Y-120223496D01*
X166785615Y-120223496D01*
X166918170Y-120499556D01*
X167573595Y-120799563D01*
X168293936Y-120825913D01*
X168969527Y-120574595D01*
X169081830Y-120499556D01*
X169214385Y-120223496D01*
X168000000Y-119009111D01*
X166785615Y-120223496D01*
X165823745Y-120223496D01*
X165823745Y-119295976D01*
X166176127Y-119295976D01*
X166427445Y-119971567D01*
X166502484Y-120083870D01*
X166778544Y-120216425D01*
X167992929Y-119002040D01*
X168007071Y-119002040D01*
X169221456Y-120216425D01*
X169497516Y-120083870D01*
X169797523Y-119428445D01*
X169823873Y-118708104D01*
X169799145Y-118641629D01*
X170186050Y-118641629D01*
X170186050Y-119362451D01*
X170461897Y-120028404D01*
X170971596Y-120538103D01*
X171637549Y-120813950D01*
X172358371Y-120813950D01*
X173024324Y-120538103D01*
X173534023Y-120028404D01*
X173809870Y-119362451D01*
X173809870Y-118641629D01*
X173534023Y-117975676D01*
X173024324Y-117465977D01*
X172358371Y-117190130D01*
X171637549Y-117190130D01*
X170971596Y-117465977D01*
X170461897Y-117975676D01*
X170186050Y-118641629D01*
X169799145Y-118641629D01*
X169572555Y-118032513D01*
X169497516Y-117920210D01*
X169221456Y-117787655D01*
X168007071Y-119002040D01*
X167992929Y-119002040D01*
X166778544Y-117787655D01*
X166502484Y-117920210D01*
X166202477Y-118575635D01*
X166176127Y-119295976D01*
X165823745Y-119295976D01*
X165823745Y-117780584D01*
X166785615Y-117780584D01*
X168000000Y-118994969D01*
X169214385Y-117780584D01*
X169081830Y-117504524D01*
X168426405Y-117204517D01*
X167706064Y-117178167D01*
X167030473Y-117429485D01*
X166918170Y-117504524D01*
X166785615Y-117780584D01*
X165823745Y-117780584D01*
X165823745Y-117690130D01*
X165784939Y-117495040D01*
X165674430Y-117329650D01*
X165509040Y-117219141D01*
X165313950Y-117180335D01*
X162690130Y-117180335D01*
X162495040Y-117219141D01*
X162329650Y-117329650D01*
X162219141Y-117495040D01*
X162180335Y-117690130D01*
X149025549Y-117690130D01*
X149031324Y-117681488D01*
X150116428Y-116596384D01*
X156065958Y-116596384D01*
X156125044Y-116608137D01*
X156184130Y-116596384D01*
X156184135Y-116596384D01*
X156359152Y-116561571D01*
X156557619Y-116428959D01*
X156591093Y-116378862D01*
X159875894Y-113094061D01*
X161744016Y-113094061D01*
X161803102Y-113105814D01*
X161862188Y-113094061D01*
X161862193Y-113094061D01*
X162037210Y-113059248D01*
X162235677Y-112926636D01*
X162269151Y-112876539D01*
X163341029Y-111804661D01*
X179698350Y-111804661D01*
X179698350Y-112600259D01*
X180002812Y-113335295D01*
X180565385Y-113897868D01*
X181300421Y-114202330D01*
X182096019Y-114202330D01*
X182831055Y-113897868D01*
X183393628Y-113335295D01*
X183698090Y-112600259D01*
X183698090Y-111804661D01*
X183393628Y-111069625D01*
X182831055Y-110507052D01*
X182096019Y-110202590D01*
X181300421Y-110202590D01*
X180565385Y-110507052D01*
X180002812Y-111069625D01*
X179698350Y-111804661D01*
X163341029Y-111804661D01*
X171850639Y-103295051D01*
X173967291Y-103295051D01*
X174026377Y-103306804D01*
X174085463Y-103295051D01*
X174085468Y-103295051D01*
X174260485Y-103260238D01*
X174458952Y-103127626D01*
X174492426Y-103077529D01*
X176370945Y-101199010D01*
X179306189Y-101199010D01*
X179365275Y-101210763D01*
X179379569Y-101207920D01*
X179393848Y-101210760D01*
X179452934Y-101199007D01*
X179452939Y-101199007D01*
X179627956Y-101164194D01*
X179826423Y-101031582D01*
X179859897Y-100981485D01*
X191942373Y-88899009D01*
X193241905Y-88899009D01*
X193300991Y-88910762D01*
X193360077Y-88899009D01*
X193360082Y-88899009D01*
X193535099Y-88864196D01*
X193733566Y-88731584D01*
X193767039Y-88681488D01*
X194048527Y-88400000D01*
X194279021Y-88400000D01*
X194609809Y-88262983D01*
X194862983Y-88009809D01*
X195000000Y-87679021D01*
X195000000Y-87320979D01*
X194862983Y-86990191D01*
X194609809Y-86737017D01*
X194279021Y-86600000D01*
X193920979Y-86600000D01*
X193590191Y-86737017D01*
X193500000Y-86827208D01*
X193409809Y-86737017D01*
X193079021Y-86600000D01*
X192720979Y-86600000D01*
X192390191Y-86737017D01*
X192137017Y-86990191D01*
X192008690Y-87299999D01*
X191587657Y-87299999D01*
X191528571Y-87288246D01*
X191469484Y-87299999D01*
X191469480Y-87299999D01*
X191294463Y-87334812D01*
X191294461Y-87334813D01*
X191294462Y-87334813D01*
X191165506Y-87420979D01*
X191095996Y-87467424D01*
X191062524Y-87517518D01*
X187100000Y-91480042D01*
X187100000Y-88272792D01*
X187262983Y-88109809D01*
X187400000Y-87779021D01*
X187400000Y-87420979D01*
X187262983Y-87090191D01*
X187009809Y-86837017D01*
X186679021Y-86700000D01*
X186320979Y-86700000D01*
X185990191Y-86837017D01*
X185950000Y-86877208D01*
X185909809Y-86837017D01*
X185579021Y-86700000D01*
X185220979Y-86700000D01*
X184890191Y-86837017D01*
X184637017Y-87090191D01*
X184500000Y-87420979D01*
X184500000Y-87779021D01*
X184637017Y-88109809D01*
X184800001Y-88272793D01*
X184800000Y-92651472D01*
X179979642Y-97471831D01*
X179862983Y-97190191D01*
X179609809Y-96937017D01*
X179279021Y-96800000D01*
X178920979Y-96800000D01*
X178590191Y-96937017D01*
X178337017Y-97190191D01*
X178200000Y-97520979D01*
X178200000Y-97751472D01*
X177551473Y-98400000D01*
X176348528Y-98400000D01*
X178882482Y-95866046D01*
X178932575Y-95832575D01*
X179065187Y-95634108D01*
X179100000Y-95459091D01*
X179100000Y-95459087D01*
X179111753Y-95400000D01*
X179100000Y-95340914D01*
X179100000Y-94372792D01*
X179262983Y-94209809D01*
X179400000Y-93879021D01*
X179400000Y-93520979D01*
X179262983Y-93190191D01*
X179009809Y-92937017D01*
X178679021Y-92800000D01*
X178320979Y-92800000D01*
X177990191Y-92937017D01*
X177850000Y-93077208D01*
X177609809Y-92837017D01*
X177279021Y-92700000D01*
X176920979Y-92700000D01*
X176590191Y-92837017D01*
X176337017Y-93090191D01*
X176200000Y-93420979D01*
X176200000Y-93779021D01*
X176337017Y-94109809D01*
X176500000Y-94272792D01*
X176500001Y-95951471D01*
X172751473Y-99700000D01*
X171495695Y-99700000D01*
X172661451Y-98534243D01*
X172690191Y-98562983D01*
X173020979Y-98700000D01*
X173379021Y-98700000D01*
X173709809Y-98562983D01*
X173962983Y-98309809D01*
X174100000Y-97979021D01*
X174100000Y-97620979D01*
X173962983Y-97290191D01*
X173709809Y-97037017D01*
X173379021Y-96900000D01*
X173099999Y-96900000D01*
X173099999Y-93959085D01*
X173111752Y-93899998D01*
X173099999Y-93840912D01*
X173099999Y-93840908D01*
X173065186Y-93665891D01*
X173000000Y-93568334D01*
X173000000Y-93320979D01*
X172862983Y-92990191D01*
X172609809Y-92737017D01*
X172279021Y-92600000D01*
X171920979Y-92600000D01*
X171590191Y-92737017D01*
X171459600Y-92867608D01*
X171409809Y-92817817D01*
X171079021Y-92680800D01*
X170720979Y-92680800D01*
X170390191Y-92817817D01*
X170137017Y-93070991D01*
X170000000Y-93401779D01*
X170000000Y-93759821D01*
X170137017Y-94090609D01*
X170390191Y-94343783D01*
X170720979Y-94480800D01*
X170951473Y-94480800D01*
X171400000Y-94929328D01*
X171400001Y-96970067D01*
X160067098Y-108302968D01*
X157911244Y-108302969D01*
X167382482Y-98831731D01*
X167432575Y-98798260D01*
X167476751Y-98732147D01*
X167490785Y-98711144D01*
X167565187Y-98599793D01*
X167588078Y-98484714D01*
X167762983Y-98309809D01*
X167900000Y-97979021D01*
X167900000Y-97620979D01*
X167762983Y-97290191D01*
X167509809Y-97037017D01*
X167179021Y-96900000D01*
X166820979Y-96900000D01*
X166490191Y-97037017D01*
X166300000Y-97227208D01*
X166300000Y-94172792D01*
X166462983Y-94009809D01*
X166600000Y-93679021D01*
X166600000Y-93320979D01*
X166462983Y-92990191D01*
X166209809Y-92737017D01*
X165879021Y-92600000D01*
X165520979Y-92600000D01*
X165190191Y-92737017D01*
X165150000Y-92777208D01*
X165109809Y-92737017D01*
X164779021Y-92600000D01*
X164420979Y-92600000D01*
X164090191Y-92737017D01*
X163837017Y-92990191D01*
X163700000Y-93320979D01*
X163700000Y-93679021D01*
X163837017Y-94009809D01*
X164090191Y-94262983D01*
X164420979Y-94400000D01*
X164600001Y-94400000D01*
X164600000Y-98422902D01*
X155916967Y-107105936D01*
X150942591Y-107105936D01*
X157448528Y-100600000D01*
X159327208Y-100600000D01*
X159490191Y-100762983D01*
X159820979Y-100900000D01*
X160179021Y-100900000D01*
X160509809Y-100762983D01*
X160762983Y-100509809D01*
X160900000Y-100179021D01*
X160900000Y-99820979D01*
X160762983Y-99490191D01*
X160509809Y-99237017D01*
X160179021Y-99100000D01*
X159820979Y-99100000D01*
X159490191Y-99237017D01*
X159327208Y-99400000D01*
X158625011Y-99400000D01*
X158649575Y-99363238D01*
X159952382Y-98060432D01*
X160002475Y-98026961D01*
X160135087Y-97828494D01*
X160169900Y-97653477D01*
X160169900Y-97653473D01*
X160181653Y-97594386D01*
X160169900Y-97535300D01*
X160169900Y-94572792D01*
X160332883Y-94409809D01*
X160469900Y-94079021D01*
X160469900Y-93720979D01*
X160332883Y-93390191D01*
X160079709Y-93137017D01*
X159748921Y-93000000D01*
X159390879Y-93000000D01*
X159060091Y-93137017D01*
X159059600Y-93137508D01*
X159009809Y-93087717D01*
X158679021Y-92950700D01*
X158320979Y-92950700D01*
X157990191Y-93087717D01*
X157737017Y-93340891D01*
X157600000Y-93671679D01*
X157600000Y-94029721D01*
X157737017Y-94360509D01*
X157911923Y-94535415D01*
X157934813Y-94650492D01*
X158067425Y-94848960D01*
X158117521Y-94882433D01*
X158550001Y-95314914D01*
X158550000Y-97201471D01*
X157769722Y-97981750D01*
X157548767Y-97981750D01*
X157489679Y-97969997D01*
X157430591Y-97981750D01*
X157430588Y-97981750D01*
X157297366Y-98008249D01*
X157255570Y-98016563D01*
X157107198Y-98115703D01*
X157057104Y-98149175D01*
X157023632Y-98199269D01*
X146722902Y-108500000D01*
X143848527Y-108500000D01*
X153648528Y-98700000D01*
X153879021Y-98700000D01*
X154209809Y-98562983D01*
X154462983Y-98309809D01*
X154600000Y-97979021D01*
X154600000Y-97620979D01*
X154462983Y-97290191D01*
X154209809Y-97037017D01*
X153879021Y-96900000D01*
X153520979Y-96900000D01*
X153500000Y-96908690D01*
X153500000Y-94372792D01*
X153662983Y-94209809D01*
X153800000Y-93879021D01*
X153800000Y-93520979D01*
X153662983Y-93190191D01*
X153409809Y-92937017D01*
X153079021Y-92800000D01*
X152720979Y-92800000D01*
X152390191Y-92937017D01*
X152159600Y-93167608D01*
X152009809Y-93017817D01*
X151679021Y-92880800D01*
X151320979Y-92880800D01*
X150990191Y-93017817D01*
X150737017Y-93270991D01*
X150600000Y-93601779D01*
X150600000Y-93959821D01*
X150737017Y-94290609D01*
X150990191Y-94543783D01*
X151320979Y-94680800D01*
X151551472Y-94680800D01*
X151900000Y-95029329D01*
X151900001Y-97135335D01*
X142697162Y-106338175D01*
X141438924Y-106338175D01*
X148179519Y-99597581D01*
X148229613Y-99564109D01*
X148362225Y-99365642D01*
X148397038Y-99190625D01*
X148397038Y-99190621D01*
X148408791Y-99131535D01*
X148397038Y-99072449D01*
X148397038Y-94956123D01*
X148408791Y-94897037D01*
X148397038Y-94837951D01*
X148397038Y-94837947D01*
X148362225Y-94662930D01*
X148229613Y-94464463D01*
X148179520Y-94430992D01*
X147500000Y-93751473D01*
X147500000Y-93520979D01*
X147362983Y-93190191D01*
X147109809Y-92937017D01*
X146779021Y-92800000D01*
X146420979Y-92800000D01*
X146090191Y-92937017D01*
X145990400Y-93036808D01*
X145790609Y-92837017D01*
X145459821Y-92700000D01*
X145101779Y-92700000D01*
X144770991Y-92837017D01*
X144517817Y-93090191D01*
X144380800Y-93420979D01*
X144380800Y-93779021D01*
X144517817Y-94109809D01*
X144770991Y-94362983D01*
X145101779Y-94500000D01*
X145332273Y-94500000D01*
X146798032Y-95965760D01*
X146798032Y-97311212D01*
X146609809Y-97122989D01*
X146279021Y-96985972D01*
X145920979Y-96985972D01*
X145590191Y-97122989D01*
X145337017Y-97376163D01*
X145200000Y-97706951D01*
X145200000Y-98064993D01*
X145337017Y-98395781D01*
X145500001Y-98558765D01*
X145500000Y-99451472D01*
X139951473Y-105000000D01*
X138887750Y-105000000D01*
X138965187Y-104884108D01*
X139000000Y-104709091D01*
X139000000Y-104709087D01*
X139011753Y-104650001D01*
X139000000Y-104590915D01*
X139000000Y-104412812D01*
X141381492Y-102031321D01*
X141431585Y-101997850D01*
X141564197Y-101799383D01*
X141599010Y-101624366D01*
X141599010Y-101624362D01*
X141610763Y-101565276D01*
X141599010Y-101506189D01*
X141599010Y-100249517D01*
X142834028Y-99014500D01*
X143079021Y-99014500D01*
X143409809Y-98877483D01*
X143662983Y-98624309D01*
X143800000Y-98293521D01*
X143800000Y-97935479D01*
X143662983Y-97604691D01*
X143409809Y-97351517D01*
X143079021Y-97214500D01*
X142720979Y-97214500D01*
X142390191Y-97351517D01*
X142137017Y-97604691D01*
X142000000Y-97935479D01*
X142000000Y-98151472D01*
X141200000Y-98951473D01*
X141200000Y-94259085D01*
X141211753Y-94199999D01*
X141200000Y-94140913D01*
X141200000Y-94140909D01*
X141165187Y-93965892D01*
X141100000Y-93868333D01*
X141100000Y-93620979D01*
X140962983Y-93290191D01*
X140709809Y-93037017D01*
X140379021Y-92900000D01*
X140020979Y-92900000D01*
X139690191Y-93037017D01*
X139522178Y-93205030D01*
X139266348Y-93099062D01*
X138908306Y-93099062D01*
X138577518Y-93236079D01*
X138324344Y-93489253D01*
X138187327Y-93820041D01*
X138187327Y-94178083D01*
X138324344Y-94508871D01*
X138577518Y-94762045D01*
X138908306Y-94899062D01*
X139138800Y-94899062D01*
X139600991Y-95361254D01*
X139600990Y-100986198D01*
X137487189Y-103100000D01*
X137372792Y-103100000D01*
X137209809Y-102937017D01*
X136879021Y-102800000D01*
X136520979Y-102800000D01*
X136190191Y-102937017D01*
X135937017Y-103190191D01*
X135800000Y-103520979D01*
X135800000Y-103879021D01*
X135937017Y-104209809D01*
X136027208Y-104300000D01*
X135920979Y-104300000D01*
X135590191Y-104437017D01*
X135337017Y-104690191D01*
X135200000Y-105020979D01*
X135200000Y-105379021D01*
X135337017Y-105709809D01*
X135590191Y-105962983D01*
X135920979Y-106100000D01*
X136279021Y-106100000D01*
X136609809Y-105962983D01*
X136772792Y-105800000D01*
X137667181Y-105800000D01*
X137576034Y-105891147D01*
X137439017Y-106221935D01*
X137439017Y-106579977D01*
X137576034Y-106910765D01*
X137829208Y-107163939D01*
X138159996Y-107300956D01*
X138482581Y-107300956D01*
X138476748Y-107315038D01*
X138476748Y-107673080D01*
X138613765Y-108003868D01*
X138866939Y-108257042D01*
X139197727Y-108394059D01*
X139555769Y-108394059D01*
X139628162Y-108364073D01*
X139628162Y-108629031D01*
X139765179Y-108959819D01*
X140018353Y-109212993D01*
X140349141Y-109350010D01*
X140707183Y-109350010D01*
X141000000Y-109228721D01*
X141000000Y-109279021D01*
X141137017Y-109609809D01*
X141390191Y-109862983D01*
X141720979Y-110000000D01*
X141908690Y-110000000D01*
X142037017Y-110309809D01*
X142290191Y-110562983D01*
X142500000Y-110649889D01*
X142500000Y-110702968D01*
X142456114Y-110702968D01*
X142456104Y-110702966D01*
X142427537Y-110702967D01*
X142368460Y-110691216D01*
X142309359Y-110702972D01*
X142309350Y-110702972D01*
X142260402Y-110712710D01*
X142134352Y-110737783D01*
X142134343Y-110737789D01*
X142134334Y-110737791D01*
X142056465Y-110789825D01*
X141985980Y-110836922D01*
X141985969Y-110836933D01*
X141935871Y-110870410D01*
X141902409Y-110920493D01*
X137122903Y-115700000D01*
X136959088Y-115700000D01*
X136900000Y-115688247D01*
X136840912Y-115700000D01*
X136840909Y-115700000D01*
X136707687Y-115726499D01*
X136665891Y-115734813D01*
X136521217Y-115831482D01*
X136467425Y-115867425D01*
X136433953Y-115917519D01*
X135051473Y-117300000D01*
X134820979Y-117300000D01*
X134490191Y-117437017D01*
X134237017Y-117690191D01*
X134186044Y-117813252D01*
X134109809Y-117737017D01*
X133779021Y-117600000D01*
X133420979Y-117600000D01*
X133090191Y-117737017D01*
X132837017Y-117990191D01*
X132700000Y-118320979D01*
X129550000Y-118320979D01*
X129550000Y-116122792D01*
X129690191Y-116262983D01*
X130020979Y-116400000D01*
X130379021Y-116400000D01*
X130709809Y-116262983D01*
X130962983Y-116009809D01*
X131100000Y-115679021D01*
X131100000Y-115448528D01*
X131348528Y-115200000D01*
X135085054Y-115200000D01*
X135089117Y-115209809D01*
X135342291Y-115462983D01*
X135673079Y-115600000D01*
X136031121Y-115600000D01*
X136361909Y-115462983D01*
X136615083Y-115209809D01*
X136752100Y-114879021D01*
X136752100Y-114520979D01*
X136615083Y-114190191D01*
X136361909Y-113937017D01*
X136031121Y-113800000D01*
X135673079Y-113800000D01*
X135342291Y-113937017D01*
X135279308Y-114000000D01*
X131159086Y-114000000D01*
X131099999Y-113988247D01*
X131040913Y-114000000D01*
X131040909Y-114000000D01*
X130865892Y-114034813D01*
X130667425Y-114167425D01*
X130633953Y-114217519D01*
X130251472Y-114600000D01*
X130020979Y-114600000D01*
X129690191Y-114737017D01*
X129550000Y-114877208D01*
X129550000Y-71902161D01*
X140800790Y-71902161D01*
X140800790Y-72697759D01*
X141105252Y-73432795D01*
X141667825Y-73995368D01*
X142402861Y-74299830D01*
X143198459Y-74299830D01*
X143933495Y-73995368D01*
X144496068Y-73432795D01*
X144800530Y-72697759D01*
X144800530Y-71902161D01*
X191199470Y-71902161D01*
X191199470Y-72697759D01*
X191503932Y-73432795D01*
X192066505Y-73995368D01*
X192801541Y-74299830D01*
X193597139Y-74299830D01*
X194332175Y-73995368D01*
X194894748Y-73432795D01*
X195199210Y-72697759D01*
X195199210Y-71902161D01*
X194894748Y-71167125D01*
X194332175Y-70604552D01*
X193597139Y-70300090D01*
X192801541Y-70300090D01*
X192066505Y-70604552D01*
X191503932Y-71167125D01*
X191199470Y-71902161D01*
X144800530Y-71902161D01*
X144496068Y-71167125D01*
X143933495Y-70604552D01*
X143198459Y-70300090D01*
X142402861Y-70300090D01*
X141667825Y-70604552D01*
X141105252Y-71167125D01*
X140800790Y-71902161D01*
X129550000Y-71902161D01*
X129550000Y-68637549D01*
X152190150Y-68637549D01*
X152190150Y-69358371D01*
X152465997Y-70024324D01*
X152975696Y-70534023D01*
X153641649Y-70809870D01*
X154362471Y-70809870D01*
X155028424Y-70534023D01*
X155538123Y-70024324D01*
X155813970Y-69358371D01*
X155813970Y-68637549D01*
X156188110Y-68637549D01*
X156188110Y-69358371D01*
X156463957Y-70024324D01*
X156973656Y-70534023D01*
X157639609Y-70809870D01*
X158360431Y-70809870D01*
X159026384Y-70534023D01*
X159536083Y-70024324D01*
X159811930Y-69358371D01*
X159811930Y-68637549D01*
X160188610Y-68637549D01*
X160188610Y-69358371D01*
X160464457Y-70024324D01*
X160974156Y-70534023D01*
X161640109Y-70809870D01*
X162360931Y-70809870D01*
X163026884Y-70534023D01*
X163536583Y-70024324D01*
X163812430Y-69358371D01*
X163812430Y-68637549D01*
X164189110Y-68637549D01*
X164189110Y-69358371D01*
X164464957Y-70024324D01*
X164974656Y-70534023D01*
X165640609Y-70809870D01*
X166361431Y-70809870D01*
X167027384Y-70534023D01*
X167537083Y-70024324D01*
X167812930Y-69358371D01*
X167812930Y-68637549D01*
X168187070Y-68637549D01*
X168187070Y-69358371D01*
X168462917Y-70024324D01*
X168972616Y-70534023D01*
X169638569Y-70809870D01*
X170359391Y-70809870D01*
X171025344Y-70534023D01*
X171535043Y-70024324D01*
X171810890Y-69358371D01*
X171810890Y-68637549D01*
X172187570Y-68637549D01*
X172187570Y-69358371D01*
X172463417Y-70024324D01*
X172973116Y-70534023D01*
X173639069Y-70809870D01*
X174359891Y-70809870D01*
X175025844Y-70534023D01*
X175535543Y-70024324D01*
X175811390Y-69358371D01*
X175811390Y-68637549D01*
X176188070Y-68637549D01*
X176188070Y-69358371D01*
X176463917Y-70024324D01*
X176973616Y-70534023D01*
X177639569Y-70809870D01*
X178360391Y-70809870D01*
X179026344Y-70534023D01*
X179536043Y-70024324D01*
X179811890Y-69358371D01*
X179811890Y-68637549D01*
X180186030Y-68637549D01*
X180186030Y-69358371D01*
X180461877Y-70024324D01*
X180971576Y-70534023D01*
X181637529Y-70809870D01*
X182358351Y-70809870D01*
X183024304Y-70534023D01*
X183534003Y-70024324D01*
X183809850Y-69358371D01*
X183809850Y-68637549D01*
X183534003Y-67971596D01*
X183024304Y-67461897D01*
X182358351Y-67186050D01*
X181637529Y-67186050D01*
X180971576Y-67461897D01*
X180461877Y-67971596D01*
X180186030Y-68637549D01*
X179811890Y-68637549D01*
X179536043Y-67971596D01*
X179026344Y-67461897D01*
X178360391Y-67186050D01*
X177639569Y-67186050D01*
X176973616Y-67461897D01*
X176463917Y-67971596D01*
X176188070Y-68637549D01*
X175811390Y-68637549D01*
X175535543Y-67971596D01*
X175025844Y-67461897D01*
X174359891Y-67186050D01*
X173639069Y-67186050D01*
X172973116Y-67461897D01*
X172463417Y-67971596D01*
X172187570Y-68637549D01*
X171810890Y-68637549D01*
X171535043Y-67971596D01*
X171025344Y-67461897D01*
X170359391Y-67186050D01*
X169638569Y-67186050D01*
X168972616Y-67461897D01*
X168462917Y-67971596D01*
X168187070Y-68637549D01*
X167812930Y-68637549D01*
X167537083Y-67971596D01*
X167027384Y-67461897D01*
X166361431Y-67186050D01*
X165640609Y-67186050D01*
X164974656Y-67461897D01*
X164464957Y-67971596D01*
X164189110Y-68637549D01*
X163812430Y-68637549D01*
X163536583Y-67971596D01*
X163026884Y-67461897D01*
X162360931Y-67186050D01*
X161640109Y-67186050D01*
X160974156Y-67461897D01*
X160464457Y-67971596D01*
X160188610Y-68637549D01*
X159811930Y-68637549D01*
X159536083Y-67971596D01*
X159026384Y-67461897D01*
X158360431Y-67186050D01*
X157639609Y-67186050D01*
X156973656Y-67461897D01*
X156463957Y-67971596D01*
X156188110Y-68637549D01*
X155813970Y-68637549D01*
X155538123Y-67971596D01*
X155028424Y-67461897D01*
X154362471Y-67186050D01*
X153641649Y-67186050D01*
X152975696Y-67461897D01*
X152465997Y-67971596D01*
X152190150Y-68637549D01*
X129550000Y-68637549D01*
X129550000Y-64639589D01*
X154189130Y-64639589D01*
X154189130Y-65360411D01*
X154464977Y-66026364D01*
X154974676Y-66536063D01*
X155640629Y-66811910D01*
X156361451Y-66811910D01*
X157027404Y-66536063D01*
X157537103Y-66026364D01*
X157812950Y-65360411D01*
X157812950Y-64639589D01*
X158189630Y-64639589D01*
X158189630Y-65360411D01*
X158465477Y-66026364D01*
X158975176Y-66536063D01*
X159641129Y-66811910D01*
X160361951Y-66811910D01*
X161027904Y-66536063D01*
X161537603Y-66026364D01*
X161813450Y-65360411D01*
X161813450Y-64639589D01*
X162190130Y-64639589D01*
X162190130Y-65360411D01*
X162465977Y-66026364D01*
X162975676Y-66536063D01*
X163641629Y-66811910D01*
X164362451Y-66811910D01*
X165028404Y-66536063D01*
X165538103Y-66026364D01*
X165813950Y-65360411D01*
X165813950Y-64639589D01*
X166188090Y-64639589D01*
X166188090Y-65360411D01*
X166463937Y-66026364D01*
X166973636Y-66536063D01*
X167639589Y-66811910D01*
X168360411Y-66811910D01*
X169026364Y-66536063D01*
X169536063Y-66026364D01*
X169811910Y-65360411D01*
X169811910Y-64639589D01*
X170186050Y-64639589D01*
X170186050Y-65360411D01*
X170461897Y-66026364D01*
X170971596Y-66536063D01*
X171637549Y-66811910D01*
X172358371Y-66811910D01*
X173024324Y-66536063D01*
X173534023Y-66026364D01*
X173809870Y-65360411D01*
X173809870Y-64639589D01*
X174186550Y-64639589D01*
X174186550Y-65360411D01*
X174462397Y-66026364D01*
X174972096Y-66536063D01*
X175638049Y-66811910D01*
X176358871Y-66811910D01*
X177024824Y-66536063D01*
X177534523Y-66026364D01*
X177810370Y-65360411D01*
X177810370Y-64639589D01*
X178187050Y-64639589D01*
X178187050Y-65360411D01*
X178462897Y-66026364D01*
X178972596Y-66536063D01*
X179638549Y-66811910D01*
X180359371Y-66811910D01*
X181025324Y-66536063D01*
X181535023Y-66026364D01*
X181810870Y-65360411D01*
X181810870Y-64639589D01*
X181535023Y-63973636D01*
X181025324Y-63463937D01*
X180359371Y-63188090D01*
X179638549Y-63188090D01*
X178972596Y-63463937D01*
X178462897Y-63973636D01*
X178187050Y-64639589D01*
X177810370Y-64639589D01*
X177534523Y-63973636D01*
X177024824Y-63463937D01*
X176358871Y-63188090D01*
X175638049Y-63188090D01*
X174972096Y-63463937D01*
X174462397Y-63973636D01*
X174186550Y-64639589D01*
X173809870Y-64639589D01*
X173534023Y-63973636D01*
X173024324Y-63463937D01*
X172358371Y-63188090D01*
X171637549Y-63188090D01*
X170971596Y-63463937D01*
X170461897Y-63973636D01*
X170186050Y-64639589D01*
X169811910Y-64639589D01*
X169536063Y-63973636D01*
X169026364Y-63463937D01*
X168360411Y-63188090D01*
X167639589Y-63188090D01*
X166973636Y-63463937D01*
X166463937Y-63973636D01*
X166188090Y-64639589D01*
X165813950Y-64639589D01*
X165538103Y-63973636D01*
X165028404Y-63463937D01*
X164362451Y-63188090D01*
X163641629Y-63188090D01*
X162975676Y-63463937D01*
X162465977Y-63973636D01*
X162190130Y-64639589D01*
X161813450Y-64639589D01*
X161537603Y-63973636D01*
X161027904Y-63463937D01*
X160361951Y-63188090D01*
X159641129Y-63188090D01*
X158975176Y-63463937D01*
X158465477Y-63973636D01*
X158189630Y-64639589D01*
X157812950Y-64639589D01*
X157537103Y-63973636D01*
X157027404Y-63463937D01*
X156361451Y-63188090D01*
X155640629Y-63188090D01*
X154974676Y-63463937D01*
X154464977Y-63973636D01*
X154189130Y-64639589D01*
X129550000Y-64639589D01*
X129550000Y-59690130D01*
X152180355Y-59690130D01*
X152180355Y-62313950D01*
X152219161Y-62509040D01*
X152329670Y-62674430D01*
X152495060Y-62784939D01*
X152690150Y-62823745D01*
X155313970Y-62823745D01*
X155509060Y-62784939D01*
X155674450Y-62674430D01*
X155784959Y-62509040D01*
X155823765Y-62313950D01*
X155823765Y-60641629D01*
X156188110Y-60641629D01*
X156188110Y-61362451D01*
X156463957Y-62028404D01*
X156973656Y-62538103D01*
X157639609Y-62813950D01*
X158360431Y-62813950D01*
X159026384Y-62538103D01*
X159536083Y-62028404D01*
X159811930Y-61362451D01*
X159811930Y-60641629D01*
X160188610Y-60641629D01*
X160188610Y-61362451D01*
X160464457Y-62028404D01*
X160974156Y-62538103D01*
X161640109Y-62813950D01*
X162360931Y-62813950D01*
X163026884Y-62538103D01*
X163536583Y-62028404D01*
X163812430Y-61362451D01*
X163812430Y-60641629D01*
X164189110Y-60641629D01*
X164189110Y-61362451D01*
X164464957Y-62028404D01*
X164974656Y-62538103D01*
X165640609Y-62813950D01*
X166361431Y-62813950D01*
X167027384Y-62538103D01*
X167537083Y-62028404D01*
X167812930Y-61362451D01*
X167812930Y-60641629D01*
X168187070Y-60641629D01*
X168187070Y-61362451D01*
X168462917Y-62028404D01*
X168972616Y-62538103D01*
X169638569Y-62813950D01*
X170359391Y-62813950D01*
X171025344Y-62538103D01*
X171535043Y-62028404D01*
X171810890Y-61362451D01*
X171810890Y-60641629D01*
X172187570Y-60641629D01*
X172187570Y-61362451D01*
X172463417Y-62028404D01*
X172973116Y-62538103D01*
X173639069Y-62813950D01*
X174359891Y-62813950D01*
X175025844Y-62538103D01*
X175535543Y-62028404D01*
X175811390Y-61362451D01*
X175811390Y-60641629D01*
X176188070Y-60641629D01*
X176188070Y-61362451D01*
X176463917Y-62028404D01*
X176973616Y-62538103D01*
X177639569Y-62813950D01*
X178360391Y-62813950D01*
X179026344Y-62538103D01*
X179536043Y-62028404D01*
X179811890Y-61362451D01*
X179811890Y-60641629D01*
X180186030Y-60641629D01*
X180186030Y-61362451D01*
X180461877Y-62028404D01*
X180971576Y-62538103D01*
X181637529Y-62813950D01*
X182358351Y-62813950D01*
X183024304Y-62538103D01*
X183534003Y-62028404D01*
X183809850Y-61362451D01*
X183809850Y-60641629D01*
X183534003Y-59975676D01*
X183024304Y-59465977D01*
X182358351Y-59190130D01*
X181637529Y-59190130D01*
X180971576Y-59465977D01*
X180461877Y-59975676D01*
X180186030Y-60641629D01*
X179811890Y-60641629D01*
X179536043Y-59975676D01*
X179026344Y-59465977D01*
X178360391Y-59190130D01*
X177639569Y-59190130D01*
X176973616Y-59465977D01*
X176463917Y-59975676D01*
X176188070Y-60641629D01*
X175811390Y-60641629D01*
X175535543Y-59975676D01*
X175025844Y-59465977D01*
X174359891Y-59190130D01*
X173639069Y-59190130D01*
X172973116Y-59465977D01*
X172463417Y-59975676D01*
X172187570Y-60641629D01*
X171810890Y-60641629D01*
X171535043Y-59975676D01*
X171025344Y-59465977D01*
X170359391Y-59190130D01*
X169638569Y-59190130D01*
X168972616Y-59465977D01*
X168462917Y-59975676D01*
X168187070Y-60641629D01*
X167812930Y-60641629D01*
X167537083Y-59975676D01*
X167027384Y-59465977D01*
X166361431Y-59190130D01*
X165640609Y-59190130D01*
X164974656Y-59465977D01*
X164464957Y-59975676D01*
X164189110Y-60641629D01*
X163812430Y-60641629D01*
X163536583Y-59975676D01*
X163026884Y-59465977D01*
X162360931Y-59190130D01*
X161640109Y-59190130D01*
X160974156Y-59465977D01*
X160464457Y-59975676D01*
X160188610Y-60641629D01*
X159811930Y-60641629D01*
X159536083Y-59975676D01*
X159026384Y-59465977D01*
X158360431Y-59190130D01*
X157639609Y-59190130D01*
X156973656Y-59465977D01*
X156463957Y-59975676D01*
X156188110Y-60641629D01*
X155823765Y-60641629D01*
X155823765Y-59690130D01*
X155784959Y-59495040D01*
X155674450Y-59329650D01*
X155509060Y-59219141D01*
X155313970Y-59180335D01*
X152690150Y-59180335D01*
X152495060Y-59219141D01*
X152329670Y-59329650D01*
X152219161Y-59495040D01*
X152180355Y-59690130D01*
X129550000Y-59690130D01*
X129550000Y-57720979D01*
X164600000Y-57720979D01*
X164600000Y-58079021D01*
X164737017Y-58409809D01*
X164990191Y-58662983D01*
X165320979Y-58800000D01*
X165679021Y-58800000D01*
X166009809Y-58662983D01*
X166262983Y-58409809D01*
X166362984Y-58168386D01*
X167431370Y-57100000D01*
X175879558Y-57100000D01*
X176120979Y-57200000D01*
X176479021Y-57200000D01*
X176809809Y-57062983D01*
X177062983Y-56809809D01*
X177200000Y-56479021D01*
X177200000Y-56120979D01*
X177062983Y-55790191D01*
X176809809Y-55537017D01*
X176479021Y-55400000D01*
X176120979Y-55400000D01*
X175879558Y-55500000D01*
X167178785Y-55500000D01*
X167100000Y-55484329D01*
X167021215Y-55500000D01*
X167021211Y-55500000D01*
X166837950Y-55536453D01*
X166787855Y-55546417D01*
X166671347Y-55624266D01*
X166523233Y-55723233D01*
X166478602Y-55790028D01*
X165231614Y-57037016D01*
X164990191Y-57137017D01*
X164737017Y-57390191D01*
X164600000Y-57720979D01*
X129550000Y-57720979D01*
X129550000Y-53804661D01*
X142301930Y-53804661D01*
X142301930Y-54600259D01*
X142606392Y-55335295D01*
X143168965Y-55897868D01*
X143904001Y-56202330D01*
X144699599Y-56202330D01*
X145434635Y-55897868D01*
X145997208Y-55335295D01*
X146301670Y-54600259D01*
X146301670Y-53804661D01*
X145997208Y-53069625D01*
X145683562Y-52755979D01*
X163800000Y-52755979D01*
X163800000Y-53114021D01*
X163937017Y-53444809D01*
X164190191Y-53697983D01*
X164520979Y-53835000D01*
X164879021Y-53835000D01*
X164952265Y-53804661D01*
X189698330Y-53804661D01*
X189698330Y-54600259D01*
X190002792Y-55335295D01*
X190565365Y-55897868D01*
X191300401Y-56202330D01*
X192095999Y-56202330D01*
X192831035Y-55897868D01*
X193393608Y-55335295D01*
X193698070Y-54600259D01*
X193698070Y-53804661D01*
X193393608Y-53069625D01*
X192831035Y-52507052D01*
X192095999Y-52202590D01*
X191300401Y-52202590D01*
X190565365Y-52507052D01*
X190002792Y-53069625D01*
X189698330Y-53804661D01*
X164952265Y-53804661D01*
X165209809Y-53697983D01*
X165216743Y-53691049D01*
X165261745Y-53700000D01*
X165261750Y-53700000D01*
X165330685Y-53713712D01*
X165399620Y-53700000D01*
X174931065Y-53700000D01*
X175000000Y-53713712D01*
X175068935Y-53700000D01*
X175068940Y-53700000D01*
X175273126Y-53659385D01*
X175504671Y-53504671D01*
X175543724Y-53446224D01*
X175689948Y-53300000D01*
X175779021Y-53300000D01*
X176109809Y-53162983D01*
X176362983Y-52909809D01*
X176500000Y-52579021D01*
X176500000Y-52220979D01*
X176362983Y-51890191D01*
X176109809Y-51637017D01*
X175779021Y-51500000D01*
X175420979Y-51500000D01*
X175090191Y-51637017D01*
X174837017Y-51890191D01*
X174700000Y-52220979D01*
X174700000Y-52300000D01*
X165575306Y-52300000D01*
X165538811Y-52275615D01*
X165334625Y-52235000D01*
X165334620Y-52235000D01*
X165265685Y-52221288D01*
X165260176Y-52222384D01*
X165209809Y-52172017D01*
X164879021Y-52035000D01*
X164520979Y-52035000D01*
X164190191Y-52172017D01*
X163937017Y-52425191D01*
X163800000Y-52755979D01*
X145683562Y-52755979D01*
X145434635Y-52507052D01*
X144699599Y-52202590D01*
X143904001Y-52202590D01*
X143168965Y-52507052D01*
X142606392Y-53069625D01*
X142301930Y-53804661D01*
X129550000Y-53804661D01*
X129550000Y-51030746D01*
X129589396Y-50679522D01*
X129695454Y-50374966D01*
X129866348Y-50101478D01*
X130093585Y-49872648D01*
X130365876Y-49699848D01*
X130669681Y-49591668D01*
X131019122Y-49550000D01*
X204969254Y-49550000D01*
X205320478Y-49589396D01*
G36*
X144256719Y-112973309D02*
X144256719Y-113331351D01*
X144393736Y-113662139D01*
X144633576Y-113901979D01*
X142099965Y-113901979D01*
X142040877Y-113890226D01*
X141981791Y-113901979D01*
X141981787Y-113901979D01*
X141806770Y-113936792D01*
X141608303Y-114069404D01*
X141574831Y-114119498D01*
X138300000Y-117394331D01*
X138300000Y-117348527D01*
X142947539Y-112700989D01*
X144369518Y-112700989D01*
X144256719Y-112973309D01*
X144256719Y-112973309D01*
G37*
X144256719Y-112973309D02*
X144256719Y-113331351D01*
X144393736Y-113662139D01*
X144633576Y-113901979D01*
X142099965Y-113901979D01*
X142040877Y-113890226D01*
X141981791Y-113901979D01*
X141981787Y-113901979D01*
X141806770Y-113936792D01*
X141608303Y-114069404D01*
X141574831Y-114119498D01*
X138300000Y-117394331D01*
X138300000Y-117348527D01*
X142947539Y-112700989D01*
X144369518Y-112700989D01*
X144256719Y-112973309D01*
M02*
