G04 #@! TF.GenerationSoftware,KiCad,Pcbnew,(5.0.2-dirty)*
G04 #@! TF.CreationDate,2019-02-10T17:18:53+02:00*
G04 #@! TF.ProjectId,ccu,6363752e-6b69-4636-9164-5f7063625858,rev?*
G04 #@! TF.SameCoordinates,Original*
G04 #@! TF.FileFunction,Soldermask,Top*
G04 #@! TF.FilePolarity,Negative*
%FSLAX46Y46*%
G04 Gerber Fmt 4.6, Leading zero omitted, Abs format (unit mm)*
G04 Created by KiCad (PCBNEW (5.0.2-dirty)) date su 10. helmikuuta 2019 17.18.53*
%MOMM*%
%LPD*%
G01*
G04 APERTURE LIST*
%ADD10C,0.100000*%
G04 APERTURE END LIST*
D10*
G36*
X158450000Y-138275000D02*
X157750000Y-138275000D01*
X157750000Y-136925000D01*
X158450000Y-136925000D01*
X158450000Y-138275000D01*
X158450000Y-138275000D01*
G37*
G36*
X178114270Y-137599770D02*
X176816330Y-137599770D01*
X176816330Y-136200230D01*
X178114270Y-136200230D01*
X178114270Y-137599770D01*
X178114270Y-137599770D01*
G37*
G36*
X174583670Y-137599770D02*
X173285730Y-137599770D01*
X173285730Y-136200230D01*
X174583670Y-136200230D01*
X174583670Y-137599770D01*
X174583670Y-137599770D01*
G37*
G36*
X191499110Y-137547360D02*
X190500890Y-137547360D01*
X190500890Y-133549400D01*
X191499110Y-133549400D01*
X191499110Y-137547360D01*
X191499110Y-137547360D01*
G37*
G36*
X167800000Y-137500000D02*
X166200000Y-137500000D01*
X166200000Y-134900000D01*
X167800000Y-134900000D01*
X167800000Y-137500000D01*
X167800000Y-137500000D01*
G37*
G36*
X171800000Y-137500000D02*
X170200000Y-137500000D01*
X170200000Y-134900000D01*
X171800000Y-134900000D01*
X171800000Y-137500000D01*
X171800000Y-137500000D01*
G37*
G36*
X142642800Y-137469900D02*
X141880800Y-137469900D01*
X141880800Y-136530100D01*
X142642800Y-136530100D01*
X142642800Y-137469900D01*
X142642800Y-137469900D01*
G37*
G36*
X139242800Y-137469900D02*
X138480800Y-137469900D01*
X138480800Y-136530100D01*
X139242800Y-136530100D01*
X139242800Y-137469900D01*
X139242800Y-137469900D01*
G37*
G36*
X140919200Y-137469900D02*
X140157200Y-137469900D01*
X140157200Y-136530100D01*
X140919200Y-136530100D01*
X140919200Y-137469900D01*
X140919200Y-137469900D01*
G37*
G36*
X144319200Y-137469900D02*
X143557200Y-137469900D01*
X143557200Y-136530100D01*
X144319200Y-136530100D01*
X144319200Y-137469900D01*
X144319200Y-137469900D01*
G37*
G36*
X163950000Y-136450000D02*
X161150000Y-136450000D01*
X161150000Y-134750000D01*
X163950000Y-134750000D01*
X163950000Y-136450000D01*
X163950000Y-136450000D01*
G37*
G36*
X177219200Y-135769900D02*
X176457200Y-135769900D01*
X176457200Y-134830100D01*
X177219200Y-134830100D01*
X177219200Y-135769900D01*
X177219200Y-135769900D01*
G37*
G36*
X175542800Y-135769900D02*
X174780800Y-135769900D01*
X174780800Y-134830100D01*
X175542800Y-134830100D01*
X175542800Y-135769900D01*
X175542800Y-135769900D01*
G37*
G36*
X157450000Y-135675000D02*
X156750000Y-135675000D01*
X156750000Y-134325000D01*
X157450000Y-134325000D01*
X157450000Y-135675000D01*
X157450000Y-135675000D01*
G37*
G36*
X159450000Y-135675000D02*
X158750000Y-135675000D01*
X158750000Y-134325000D01*
X159450000Y-134325000D01*
X159450000Y-135675000D01*
X159450000Y-135675000D01*
G37*
G36*
X139912500Y-135657500D02*
X138007500Y-135657500D01*
X138007500Y-135022500D01*
X139912500Y-135022500D01*
X139912500Y-135657500D01*
X139912500Y-135657500D01*
G37*
G36*
X144992500Y-135657500D02*
X143087500Y-135657500D01*
X143087500Y-135022500D01*
X144992500Y-135022500D01*
X144992500Y-135657500D01*
X144992500Y-135657500D01*
G37*
G36*
X135950000Y-135300000D02*
X134650000Y-135300000D01*
X134650000Y-133300000D01*
X135950000Y-133300000D01*
X135950000Y-135300000D01*
X135950000Y-135300000D01*
G37*
G36*
X130870000Y-135300000D02*
X129570000Y-135300000D01*
X129570000Y-133300000D01*
X130870000Y-133300000D01*
X130870000Y-135300000D01*
X130870000Y-135300000D01*
G37*
G36*
X139912500Y-134387500D02*
X138007500Y-134387500D01*
X138007500Y-133752500D01*
X139912500Y-133752500D01*
X139912500Y-134387500D01*
X139912500Y-134387500D01*
G37*
G36*
X144992500Y-134387500D02*
X143087500Y-134387500D01*
X143087500Y-133752500D01*
X144992500Y-133752500D01*
X144992500Y-134387500D01*
X144992500Y-134387500D01*
G37*
G36*
X173741000Y-133905000D02*
X172217000Y-133905000D01*
X172217000Y-133305000D01*
X173741000Y-133305000D01*
X173741000Y-133905000D01*
X173741000Y-133905000D01*
G37*
G36*
X179583000Y-133905000D02*
X178059000Y-133905000D01*
X178059000Y-133305000D01*
X179583000Y-133305000D01*
X179583000Y-133905000D01*
X179583000Y-133905000D01*
G37*
G36*
X157542800Y-133769900D02*
X156780800Y-133769900D01*
X156780800Y-132830100D01*
X157542800Y-132830100D01*
X157542800Y-133769900D01*
X157542800Y-133769900D01*
G37*
G36*
X159219200Y-133769900D02*
X158457200Y-133769900D01*
X158457200Y-132830100D01*
X159219200Y-132830100D01*
X159219200Y-133769900D01*
X159219200Y-133769900D01*
G37*
G36*
X171469900Y-133219200D02*
X170530100Y-133219200D01*
X170530100Y-132457200D01*
X171469900Y-132457200D01*
X171469900Y-133219200D01*
X171469900Y-133219200D01*
G37*
G36*
X139912500Y-133117500D02*
X138007500Y-133117500D01*
X138007500Y-132482500D01*
X139912500Y-132482500D01*
X139912500Y-133117500D01*
X139912500Y-133117500D01*
G37*
G36*
X144992500Y-133117500D02*
X143087500Y-133117500D01*
X143087500Y-132482500D01*
X144992500Y-132482500D01*
X144992500Y-133117500D01*
X144992500Y-133117500D01*
G37*
G36*
X163950000Y-132950000D02*
X161150000Y-132950000D01*
X161150000Y-131250000D01*
X163950000Y-131250000D01*
X163950000Y-132950000D01*
X163950000Y-132950000D01*
G37*
G36*
X173741000Y-132635000D02*
X172217000Y-132635000D01*
X172217000Y-132035000D01*
X173741000Y-132035000D01*
X173741000Y-132635000D01*
X173741000Y-132635000D01*
G37*
G36*
X179583000Y-132617500D02*
X178059000Y-132617500D01*
X178059000Y-131982500D01*
X179583000Y-131982500D01*
X179583000Y-132617500D01*
X179583000Y-132617500D01*
G37*
G36*
X134142800Y-131969900D02*
X133380800Y-131969900D01*
X133380800Y-131030100D01*
X134142800Y-131030100D01*
X134142800Y-131969900D01*
X134142800Y-131969900D01*
G37*
G36*
X130442800Y-131969900D02*
X129680800Y-131969900D01*
X129680800Y-131030100D01*
X130442800Y-131030100D01*
X130442800Y-131969900D01*
X130442800Y-131969900D01*
G37*
G36*
X135819200Y-131969900D02*
X135057200Y-131969900D01*
X135057200Y-131030100D01*
X135819200Y-131030100D01*
X135819200Y-131969900D01*
X135819200Y-131969900D01*
G37*
G36*
X132119200Y-131969900D02*
X131357200Y-131969900D01*
X131357200Y-131030100D01*
X132119200Y-131030100D01*
X132119200Y-131969900D01*
X132119200Y-131969900D01*
G37*
G36*
X139912500Y-131847500D02*
X138007500Y-131847500D01*
X138007500Y-131212500D01*
X139912500Y-131212500D01*
X139912500Y-131847500D01*
X139912500Y-131847500D01*
G37*
G36*
X153141545Y-128838516D02*
X153238136Y-128857729D01*
X153351199Y-128904562D01*
X153511094Y-128970792D01*
X153756754Y-129134937D01*
X153965663Y-129343846D01*
X154129808Y-129589506D01*
X154242871Y-129862465D01*
X154300510Y-130152234D01*
X154300510Y-130447686D01*
X154242871Y-130737455D01*
X154129808Y-131010414D01*
X153965663Y-131256074D01*
X153756754Y-131464983D01*
X153511094Y-131629128D01*
X153351199Y-131695358D01*
X153238136Y-131742191D01*
X153141545Y-131761404D01*
X152948366Y-131799830D01*
X152652914Y-131799830D01*
X152459735Y-131761404D01*
X152363144Y-131742191D01*
X152250081Y-131695358D01*
X152090186Y-131629128D01*
X151844526Y-131464983D01*
X151635617Y-131256074D01*
X151471472Y-131010414D01*
X151358409Y-130737455D01*
X151300770Y-130447686D01*
X151300770Y-130152234D01*
X151358409Y-129862465D01*
X151471472Y-129589506D01*
X151635617Y-129343846D01*
X151844526Y-129134937D01*
X152090186Y-128970792D01*
X152250081Y-128904562D01*
X152363144Y-128857729D01*
X152459735Y-128838516D01*
X152652914Y-128800090D01*
X152948366Y-128800090D01*
X153141545Y-128838516D01*
X153141545Y-128838516D01*
G37*
G36*
X183540265Y-128838516D02*
X183636856Y-128857729D01*
X183749919Y-128904562D01*
X183909814Y-128970792D01*
X184155474Y-129134937D01*
X184364383Y-129343846D01*
X184528528Y-129589506D01*
X184641591Y-129862465D01*
X184699230Y-130152234D01*
X184699230Y-130447686D01*
X184641591Y-130737455D01*
X184528528Y-131010414D01*
X184364383Y-131256074D01*
X184155474Y-131464983D01*
X183909814Y-131629128D01*
X183749919Y-131695358D01*
X183636856Y-131742191D01*
X183540265Y-131761404D01*
X183347086Y-131799830D01*
X183051634Y-131799830D01*
X182858455Y-131761404D01*
X182761864Y-131742191D01*
X182648801Y-131695358D01*
X182488906Y-131629128D01*
X182243246Y-131464983D01*
X182034337Y-131256074D01*
X181870192Y-131010414D01*
X181757129Y-130737455D01*
X181699490Y-130447686D01*
X181699490Y-130152234D01*
X181757129Y-129862465D01*
X181870192Y-129589506D01*
X182034337Y-129343846D01*
X182243246Y-129134937D01*
X182488906Y-128970792D01*
X182648801Y-128904562D01*
X182761864Y-128857729D01*
X182858455Y-128838516D01*
X183051634Y-128800090D01*
X183347086Y-128800090D01*
X183540265Y-128838516D01*
X183540265Y-128838516D01*
G37*
G36*
X171469900Y-131542800D02*
X170530100Y-131542800D01*
X170530100Y-130780800D01*
X171469900Y-130780800D01*
X171469900Y-131542800D01*
X171469900Y-131542800D01*
G37*
G36*
X173741000Y-131365000D02*
X172217000Y-131365000D01*
X172217000Y-130765000D01*
X173741000Y-130765000D01*
X173741000Y-131365000D01*
X173741000Y-131365000D01*
G37*
G36*
X179583000Y-131365000D02*
X178059000Y-131365000D01*
X178059000Y-130765000D01*
X179583000Y-130765000D01*
X179583000Y-131365000D01*
X179583000Y-131365000D01*
G37*
G36*
X139912500Y-130577500D02*
X138007500Y-130577500D01*
X138007500Y-129942500D01*
X139912500Y-129942500D01*
X139912500Y-130577500D01*
X139912500Y-130577500D01*
G37*
G36*
X144992500Y-130577500D02*
X143087500Y-130577500D01*
X143087500Y-129942500D01*
X144992500Y-129942500D01*
X144992500Y-130577500D01*
X144992500Y-130577500D01*
G37*
G36*
X191499110Y-130450600D02*
X190500890Y-130450600D01*
X190500890Y-126452640D01*
X191499110Y-126452640D01*
X191499110Y-130450600D01*
X191499110Y-130450600D01*
G37*
G36*
X179583000Y-130095000D02*
X178059000Y-130095000D01*
X178059000Y-129495000D01*
X179583000Y-129495000D01*
X179583000Y-130095000D01*
X179583000Y-130095000D01*
G37*
G36*
X173741000Y-130095000D02*
X172217000Y-130095000D01*
X172217000Y-129495000D01*
X173741000Y-129495000D01*
X173741000Y-130095000D01*
X173741000Y-130095000D01*
G37*
G36*
X168382667Y-125736465D02*
X168382669Y-125736466D01*
X168382670Y-125736466D01*
X168621423Y-125835360D01*
X168835324Y-125978285D01*
X168836297Y-125978935D01*
X169019025Y-126161663D01*
X169019027Y-126161666D01*
X169162600Y-126376537D01*
X169261494Y-126615290D01*
X169311910Y-126868748D01*
X169311910Y-127127172D01*
X169261494Y-127380630D01*
X169162600Y-127619383D01*
X169019675Y-127833284D01*
X169019025Y-127834257D01*
X168836297Y-128016985D01*
X168836294Y-128016987D01*
X168621423Y-128160560D01*
X168382670Y-128259454D01*
X168382669Y-128259454D01*
X168382667Y-128259455D01*
X168129213Y-128309870D01*
X167870787Y-128309870D01*
X167617333Y-128259455D01*
X167617331Y-128259454D01*
X167617330Y-128259454D01*
X167378577Y-128160560D01*
X167163706Y-128016987D01*
X167163703Y-128016985D01*
X166980975Y-127834257D01*
X166980325Y-127833284D01*
X166837400Y-127619383D01*
X166738506Y-127380630D01*
X166688090Y-127127172D01*
X166688090Y-126868748D01*
X166738506Y-126615290D01*
X166837400Y-126376537D01*
X166980973Y-126161666D01*
X166980975Y-126161663D01*
X167163703Y-125978935D01*
X167164676Y-125978285D01*
X167378577Y-125835360D01*
X167617330Y-125736466D01*
X167617331Y-125736466D01*
X167617333Y-125736465D01*
X167870787Y-125686050D01*
X168129213Y-125686050D01*
X168382667Y-125736465D01*
X168382667Y-125736465D01*
G37*
G36*
X164384707Y-125736465D02*
X164384709Y-125736466D01*
X164384710Y-125736466D01*
X164623463Y-125835360D01*
X164837364Y-125978285D01*
X164838337Y-125978935D01*
X165021065Y-126161663D01*
X165021067Y-126161666D01*
X165164640Y-126376537D01*
X165263534Y-126615290D01*
X165313950Y-126868748D01*
X165313950Y-127127172D01*
X165263534Y-127380630D01*
X165164640Y-127619383D01*
X165021715Y-127833284D01*
X165021065Y-127834257D01*
X164838337Y-128016985D01*
X164838334Y-128016987D01*
X164623463Y-128160560D01*
X164384710Y-128259454D01*
X164384709Y-128259454D01*
X164384707Y-128259455D01*
X164131253Y-128309870D01*
X163872827Y-128309870D01*
X163619373Y-128259455D01*
X163619371Y-128259454D01*
X163619370Y-128259454D01*
X163380617Y-128160560D01*
X163165746Y-128016987D01*
X163165743Y-128016985D01*
X162983015Y-127834257D01*
X162982365Y-127833284D01*
X162839440Y-127619383D01*
X162740546Y-127380630D01*
X162690130Y-127127172D01*
X162690130Y-126868748D01*
X162740546Y-126615290D01*
X162839440Y-126376537D01*
X162983013Y-126161666D01*
X162983015Y-126161663D01*
X163165743Y-125978935D01*
X163166716Y-125978285D01*
X163380617Y-125835360D01*
X163619370Y-125736466D01*
X163619371Y-125736466D01*
X163619373Y-125736465D01*
X163872827Y-125686050D01*
X164131253Y-125686050D01*
X164384707Y-125736465D01*
X164384707Y-125736465D01*
G37*
G36*
X172380627Y-125736465D02*
X172380629Y-125736466D01*
X172380630Y-125736466D01*
X172619383Y-125835360D01*
X172833284Y-125978285D01*
X172834257Y-125978935D01*
X173016985Y-126161663D01*
X173016987Y-126161666D01*
X173160560Y-126376537D01*
X173259454Y-126615290D01*
X173309870Y-126868748D01*
X173309870Y-127127172D01*
X173259454Y-127380630D01*
X173160560Y-127619383D01*
X173017635Y-127833284D01*
X173016985Y-127834257D01*
X172834257Y-128016985D01*
X172834254Y-128016987D01*
X172619383Y-128160560D01*
X172380630Y-128259454D01*
X172380629Y-128259454D01*
X172380627Y-128259455D01*
X172127173Y-128309870D01*
X171868747Y-128309870D01*
X171615293Y-128259455D01*
X171615291Y-128259454D01*
X171615290Y-128259454D01*
X171376537Y-128160560D01*
X171161666Y-128016987D01*
X171161663Y-128016985D01*
X170978935Y-127834257D01*
X170978285Y-127833284D01*
X170835360Y-127619383D01*
X170736466Y-127380630D01*
X170686050Y-127127172D01*
X170686050Y-126868748D01*
X170736466Y-126615290D01*
X170835360Y-126376537D01*
X170978933Y-126161666D01*
X170978935Y-126161663D01*
X171161663Y-125978935D01*
X171162636Y-125978285D01*
X171376537Y-125835360D01*
X171615290Y-125736466D01*
X171615291Y-125736466D01*
X171615293Y-125736465D01*
X171868747Y-125686050D01*
X172127173Y-125686050D01*
X172380627Y-125736465D01*
X172380627Y-125736465D01*
G37*
G36*
X151065000Y-126183000D02*
X150465000Y-126183000D01*
X150465000Y-124659000D01*
X151065000Y-124659000D01*
X151065000Y-126183000D01*
X151065000Y-126183000D01*
G37*
G36*
X152335000Y-126183000D02*
X151735000Y-126183000D01*
X151735000Y-124659000D01*
X152335000Y-124659000D01*
X152335000Y-126183000D01*
X152335000Y-126183000D01*
G37*
G36*
X149795000Y-126183000D02*
X149195000Y-126183000D01*
X149195000Y-124659000D01*
X149795000Y-124659000D01*
X149795000Y-126183000D01*
X149795000Y-126183000D01*
G37*
G36*
X153605000Y-126183000D02*
X153005000Y-126183000D01*
X153005000Y-124659000D01*
X153605000Y-124659000D01*
X153605000Y-126183000D01*
X153605000Y-126183000D01*
G37*
G36*
X138519200Y-125769900D02*
X137757200Y-125769900D01*
X137757200Y-124830100D01*
X138519200Y-124830100D01*
X138519200Y-125769900D01*
X138519200Y-125769900D01*
G37*
G36*
X136842800Y-125769900D02*
X136080800Y-125769900D01*
X136080800Y-124830100D01*
X136842800Y-124830100D01*
X136842800Y-125769900D01*
X136842800Y-125769900D01*
G37*
G36*
X178150000Y-124789660D02*
X176250000Y-124789660D01*
X176250000Y-122610340D01*
X178150000Y-122610340D01*
X178150000Y-124789660D01*
X178150000Y-124789660D01*
G37*
G36*
X183150000Y-124789660D02*
X181250000Y-124789660D01*
X181250000Y-122610340D01*
X183150000Y-122610340D01*
X183150000Y-124789660D01*
X183150000Y-124789660D01*
G37*
G36*
X166383687Y-121738505D02*
X166383689Y-121738506D01*
X166383690Y-121738506D01*
X166622443Y-121837400D01*
X166836344Y-121980325D01*
X166837317Y-121980975D01*
X167020045Y-122163703D01*
X167020047Y-122163706D01*
X167163620Y-122378577D01*
X167262514Y-122617330D01*
X167312930Y-122870788D01*
X167312930Y-123129212D01*
X167262514Y-123382670D01*
X167163620Y-123621423D01*
X167079591Y-123747180D01*
X167020045Y-123836297D01*
X166837317Y-124019025D01*
X166837314Y-124019027D01*
X166622443Y-124162600D01*
X166383690Y-124261494D01*
X166383689Y-124261494D01*
X166383687Y-124261495D01*
X166130233Y-124311910D01*
X165871807Y-124311910D01*
X165618353Y-124261495D01*
X165618351Y-124261494D01*
X165618350Y-124261494D01*
X165379597Y-124162600D01*
X165164726Y-124019027D01*
X165164723Y-124019025D01*
X164981995Y-123836297D01*
X164922449Y-123747180D01*
X164838420Y-123621423D01*
X164739526Y-123382670D01*
X164689110Y-123129212D01*
X164689110Y-122870788D01*
X164739526Y-122617330D01*
X164838420Y-122378577D01*
X164981993Y-122163706D01*
X164981995Y-122163703D01*
X165164723Y-121980975D01*
X165165696Y-121980325D01*
X165379597Y-121837400D01*
X165618350Y-121738506D01*
X165618351Y-121738506D01*
X165618353Y-121738505D01*
X165871807Y-121688090D01*
X166130233Y-121688090D01*
X166383687Y-121738505D01*
X166383687Y-121738505D01*
G37*
G36*
X170381647Y-121738505D02*
X170381649Y-121738506D01*
X170381650Y-121738506D01*
X170620403Y-121837400D01*
X170834304Y-121980325D01*
X170835277Y-121980975D01*
X171018005Y-122163703D01*
X171018007Y-122163706D01*
X171161580Y-122378577D01*
X171260474Y-122617330D01*
X171310890Y-122870788D01*
X171310890Y-123129212D01*
X171260474Y-123382670D01*
X171161580Y-123621423D01*
X171077551Y-123747180D01*
X171018005Y-123836297D01*
X170835277Y-124019025D01*
X170835274Y-124019027D01*
X170620403Y-124162600D01*
X170381650Y-124261494D01*
X170381649Y-124261494D01*
X170381647Y-124261495D01*
X170128193Y-124311910D01*
X169869767Y-124311910D01*
X169616313Y-124261495D01*
X169616311Y-124261494D01*
X169616310Y-124261494D01*
X169377557Y-124162600D01*
X169162686Y-124019027D01*
X169162683Y-124019025D01*
X168979955Y-123836297D01*
X168920409Y-123747180D01*
X168836380Y-123621423D01*
X168737486Y-123382670D01*
X168687070Y-123129212D01*
X168687070Y-122870788D01*
X168737486Y-122617330D01*
X168836380Y-122378577D01*
X168979953Y-122163706D01*
X168979955Y-122163703D01*
X169162683Y-121980975D01*
X169163656Y-121980325D01*
X169377557Y-121837400D01*
X169616310Y-121738506D01*
X169616311Y-121738506D01*
X169616313Y-121738505D01*
X169869767Y-121688090D01*
X170128193Y-121688090D01*
X170381647Y-121738505D01*
X170381647Y-121738505D01*
G37*
G36*
X142109390Y-123747180D02*
X134090610Y-123747180D01*
X134090610Y-122248580D01*
X142109390Y-122248580D01*
X142109390Y-123747180D01*
X142109390Y-123747180D01*
G37*
G36*
X146469900Y-122181000D02*
X145530100Y-122181000D01*
X145530100Y-121419000D01*
X146469900Y-121419000D01*
X146469900Y-122181000D01*
X146469900Y-122181000D01*
G37*
G36*
X132951420Y-121109390D02*
X131452820Y-121109390D01*
X131452820Y-113090610D01*
X132951420Y-113090610D01*
X132951420Y-121109390D01*
X132951420Y-121109390D01*
G37*
G36*
X144747180Y-121109390D02*
X143248580Y-121109390D01*
X143248580Y-113090610D01*
X144747180Y-113090610D01*
X144747180Y-121109390D01*
X144747180Y-121109390D01*
G37*
G36*
X146469900Y-120504600D02*
X145530100Y-120504600D01*
X145530100Y-119742600D01*
X146469900Y-119742600D01*
X146469900Y-120504600D01*
X146469900Y-120504600D01*
G37*
G36*
X186197710Y-120349960D02*
X185199490Y-120349960D01*
X185199490Y-118450040D01*
X186197710Y-118450040D01*
X186197710Y-120349960D01*
X186197710Y-120349960D01*
G37*
G36*
X183200510Y-120349960D02*
X182202290Y-120349960D01*
X182202290Y-118450040D01*
X183200510Y-118450040D01*
X183200510Y-120349960D01*
X183200510Y-120349960D01*
G37*
G36*
X153605000Y-120341000D02*
X153005000Y-120341000D01*
X153005000Y-118817000D01*
X153605000Y-118817000D01*
X153605000Y-120341000D01*
X153605000Y-120341000D01*
G37*
G36*
X152317500Y-120341000D02*
X151682500Y-120341000D01*
X151682500Y-118817000D01*
X152317500Y-118817000D01*
X152317500Y-120341000D01*
X152317500Y-120341000D01*
G37*
G36*
X151065000Y-120341000D02*
X150465000Y-120341000D01*
X150465000Y-118817000D01*
X151065000Y-118817000D01*
X151065000Y-120341000D01*
X151065000Y-120341000D01*
G37*
G36*
X149795000Y-120341000D02*
X149195000Y-120341000D01*
X149195000Y-118817000D01*
X149795000Y-118817000D01*
X149795000Y-120341000D01*
X149795000Y-120341000D01*
G37*
G36*
X165313950Y-120313950D02*
X162690130Y-120313950D01*
X162690130Y-117690130D01*
X165313950Y-117690130D01*
X165313950Y-120313950D01*
X165313950Y-120313950D01*
G37*
G36*
X172380627Y-117740545D02*
X172380629Y-117740546D01*
X172380630Y-117740546D01*
X172619383Y-117839440D01*
X172833284Y-117982365D01*
X172834257Y-117983015D01*
X173016985Y-118165743D01*
X173016987Y-118165746D01*
X173160560Y-118380617D01*
X173259454Y-118619370D01*
X173309870Y-118872828D01*
X173309870Y-119131252D01*
X173259454Y-119384710D01*
X173160560Y-119623463D01*
X173017635Y-119837364D01*
X173016985Y-119838337D01*
X172834257Y-120021065D01*
X172834254Y-120021067D01*
X172619383Y-120164640D01*
X172380630Y-120263534D01*
X172380629Y-120263534D01*
X172380627Y-120263535D01*
X172127173Y-120313950D01*
X171868747Y-120313950D01*
X171615293Y-120263535D01*
X171615291Y-120263534D01*
X171615290Y-120263534D01*
X171376537Y-120164640D01*
X171161666Y-120021067D01*
X171161663Y-120021065D01*
X170978935Y-119838337D01*
X170978285Y-119837364D01*
X170835360Y-119623463D01*
X170736466Y-119384710D01*
X170686050Y-119131252D01*
X170686050Y-118872828D01*
X170736466Y-118619370D01*
X170835360Y-118380617D01*
X170978933Y-118165746D01*
X170978935Y-118165743D01*
X171161663Y-117983015D01*
X171162636Y-117982365D01*
X171376537Y-117839440D01*
X171615290Y-117740546D01*
X171615291Y-117740546D01*
X171615293Y-117740545D01*
X171868747Y-117690130D01*
X172127173Y-117690130D01*
X172380627Y-117740545D01*
X172380627Y-117740545D01*
G37*
G36*
X168382667Y-117740545D02*
X168382669Y-117740546D01*
X168382670Y-117740546D01*
X168621423Y-117839440D01*
X168835324Y-117982365D01*
X168836297Y-117983015D01*
X169019025Y-118165743D01*
X169019027Y-118165746D01*
X169162600Y-118380617D01*
X169261494Y-118619370D01*
X169311910Y-118872828D01*
X169311910Y-119131252D01*
X169261494Y-119384710D01*
X169162600Y-119623463D01*
X169019675Y-119837364D01*
X169019025Y-119838337D01*
X168836297Y-120021065D01*
X168836294Y-120021067D01*
X168621423Y-120164640D01*
X168382670Y-120263534D01*
X168382669Y-120263534D01*
X168382667Y-120263535D01*
X168129213Y-120313950D01*
X167870787Y-120313950D01*
X167617333Y-120263535D01*
X167617331Y-120263534D01*
X167617330Y-120263534D01*
X167378577Y-120164640D01*
X167163706Y-120021067D01*
X167163703Y-120021065D01*
X166980975Y-119838337D01*
X166980325Y-119837364D01*
X166837400Y-119623463D01*
X166738506Y-119384710D01*
X166688090Y-119131252D01*
X166688090Y-118872828D01*
X166738506Y-118619370D01*
X166837400Y-118380617D01*
X166980973Y-118165746D01*
X166980975Y-118165743D01*
X167163703Y-117983015D01*
X167164676Y-117982365D01*
X167378577Y-117839440D01*
X167617330Y-117740546D01*
X167617331Y-117740546D01*
X167617333Y-117740545D01*
X167870787Y-117690130D01*
X168129213Y-117690130D01*
X168382667Y-117740545D01*
X168382667Y-117740545D01*
G37*
G36*
X180614270Y-119999770D02*
X179316330Y-119999770D01*
X179316330Y-118600230D01*
X180614270Y-118600230D01*
X180614270Y-119999770D01*
X180614270Y-119999770D01*
G37*
G36*
X177083670Y-119999770D02*
X175785730Y-119999770D01*
X175785730Y-118600230D01*
X177083670Y-118600230D01*
X177083670Y-119999770D01*
X177083670Y-119999770D01*
G37*
G36*
X146469900Y-118919200D02*
X145530100Y-118919200D01*
X145530100Y-118157200D01*
X146469900Y-118157200D01*
X146469900Y-118919200D01*
X146469900Y-118919200D01*
G37*
G36*
X130669900Y-118419200D02*
X129730100Y-118419200D01*
X129730100Y-117657200D01*
X130669900Y-117657200D01*
X130669900Y-118419200D01*
X130669900Y-118419200D01*
G37*
G36*
X152619200Y-118169900D02*
X151857200Y-118169900D01*
X151857200Y-117230100D01*
X152619200Y-117230100D01*
X152619200Y-118169900D01*
X152619200Y-118169900D01*
G37*
G36*
X150942800Y-118169900D02*
X150180800Y-118169900D01*
X150180800Y-117230100D01*
X150942800Y-117230100D01*
X150942800Y-118169900D01*
X150942800Y-118169900D01*
G37*
G36*
X146469900Y-117242800D02*
X145530100Y-117242800D01*
X145530100Y-116480800D01*
X146469900Y-116480800D01*
X146469900Y-117242800D01*
X146469900Y-117242800D01*
G37*
G36*
X163790000Y-116835000D02*
X162390000Y-116835000D01*
X162390000Y-114935000D01*
X163790000Y-114935000D01*
X163790000Y-116835000D01*
X163790000Y-116835000D01*
G37*
G36*
X159210000Y-116835000D02*
X157810000Y-116835000D01*
X157810000Y-114935000D01*
X159210000Y-114935000D01*
X159210000Y-116835000D01*
X159210000Y-116835000D01*
G37*
G36*
X130669900Y-116742800D02*
X129730100Y-116742800D01*
X129730100Y-115980800D01*
X130669900Y-115980800D01*
X130669900Y-116742800D01*
X130669900Y-116742800D01*
G37*
G36*
X169750000Y-116500000D02*
X166450000Y-116500000D01*
X166450000Y-114100000D01*
X169750000Y-114100000D01*
X169750000Y-116500000D01*
X169750000Y-116500000D01*
G37*
G36*
X130669900Y-115119200D02*
X129730100Y-115119200D01*
X129730100Y-114357200D01*
X130669900Y-114357200D01*
X130669900Y-115119200D01*
X130669900Y-115119200D01*
G37*
G36*
X202702145Y-109255681D02*
X203202612Y-109462981D01*
X203653026Y-109763938D01*
X204036062Y-110146974D01*
X204337019Y-110597388D01*
X204544319Y-111097855D01*
X204650000Y-111629147D01*
X204650000Y-112170853D01*
X204544319Y-112702145D01*
X204337019Y-113202612D01*
X204036062Y-113653026D01*
X203653026Y-114036062D01*
X203202612Y-114337019D01*
X202702145Y-114544319D01*
X202170853Y-114650000D01*
X201629147Y-114650000D01*
X201097855Y-114544319D01*
X200597388Y-114337019D01*
X200146974Y-114036062D01*
X199763938Y-113653026D01*
X199462981Y-113202612D01*
X199255681Y-112702145D01*
X199150000Y-112170853D01*
X199150000Y-111629147D01*
X199255681Y-111097855D01*
X199462981Y-110597388D01*
X199763938Y-110146974D01*
X200146974Y-109763938D01*
X200597388Y-109462981D01*
X201097855Y-109255681D01*
X201629147Y-109150000D01*
X202170853Y-109150000D01*
X202702145Y-109255681D01*
X202702145Y-109255681D01*
G37*
G36*
X154642685Y-110741016D02*
X154739276Y-110760229D01*
X154852339Y-110807062D01*
X155012234Y-110873292D01*
X155257894Y-111037437D01*
X155466803Y-111246346D01*
X155630948Y-111492006D01*
X155687754Y-111629149D01*
X155744011Y-111764964D01*
X155801650Y-112054736D01*
X155801650Y-112350184D01*
X155744011Y-112639956D01*
X155718251Y-112702145D01*
X155630948Y-112912914D01*
X155466803Y-113158574D01*
X155257894Y-113367483D01*
X155012234Y-113531628D01*
X154852339Y-113597858D01*
X154739276Y-113644691D01*
X154642685Y-113663904D01*
X154449506Y-113702330D01*
X154154054Y-113702330D01*
X153960875Y-113663904D01*
X153864284Y-113644691D01*
X153751221Y-113597858D01*
X153591326Y-113531628D01*
X153345666Y-113367483D01*
X153136757Y-113158574D01*
X152972612Y-112912914D01*
X152885309Y-112702145D01*
X152859549Y-112639956D01*
X152801910Y-112350184D01*
X152801910Y-112054736D01*
X152859549Y-111764964D01*
X152915806Y-111629149D01*
X152972612Y-111492006D01*
X153136757Y-111246346D01*
X153345666Y-111037437D01*
X153591326Y-110873292D01*
X153751221Y-110807062D01*
X153864284Y-110760229D01*
X153960875Y-110741016D01*
X154154054Y-110702590D01*
X154449506Y-110702590D01*
X154642685Y-110741016D01*
X154642685Y-110741016D01*
G37*
G36*
X182039125Y-110741016D02*
X182135716Y-110760229D01*
X182248779Y-110807062D01*
X182408674Y-110873292D01*
X182654334Y-111037437D01*
X182863243Y-111246346D01*
X183027388Y-111492006D01*
X183084194Y-111629149D01*
X183140451Y-111764964D01*
X183198090Y-112054736D01*
X183198090Y-112350184D01*
X183140451Y-112639956D01*
X183114691Y-112702145D01*
X183027388Y-112912914D01*
X182863243Y-113158574D01*
X182654334Y-113367483D01*
X182408674Y-113531628D01*
X182248779Y-113597858D01*
X182135716Y-113644691D01*
X182039125Y-113663904D01*
X181845946Y-113702330D01*
X181550494Y-113702330D01*
X181357315Y-113663904D01*
X181260724Y-113644691D01*
X181147661Y-113597858D01*
X180987766Y-113531628D01*
X180742106Y-113367483D01*
X180533197Y-113158574D01*
X180369052Y-112912914D01*
X180281749Y-112702145D01*
X180255989Y-112639956D01*
X180198350Y-112350184D01*
X180198350Y-112054736D01*
X180255989Y-111764964D01*
X180312246Y-111629149D01*
X180369052Y-111492006D01*
X180533197Y-111246346D01*
X180742106Y-111037437D01*
X180987766Y-110873292D01*
X181147661Y-110807062D01*
X181260724Y-110760229D01*
X181357315Y-110741016D01*
X181550494Y-110702590D01*
X181845946Y-110702590D01*
X182039125Y-110741016D01*
X182039125Y-110741016D01*
G37*
G36*
X130669900Y-113442800D02*
X129730100Y-113442800D01*
X129730100Y-112680800D01*
X130669900Y-112680800D01*
X130669900Y-113442800D01*
X130669900Y-113442800D01*
G37*
G36*
X163850000Y-112785000D02*
X157750000Y-112785000D01*
X157750000Y-106815000D01*
X163850000Y-106815000D01*
X163850000Y-112785000D01*
X163850000Y-112785000D01*
G37*
G36*
X142109390Y-111951420D02*
X134090610Y-111951420D01*
X134090610Y-110452820D01*
X142109390Y-110452820D01*
X142109390Y-111951420D01*
X142109390Y-111951420D01*
G37*
G36*
X169750000Y-109900000D02*
X166450000Y-109900000D01*
X166450000Y-107500000D01*
X169750000Y-107500000D01*
X169750000Y-109900000D01*
X169750000Y-109900000D01*
G37*
G36*
X133742800Y-109769900D02*
X132980800Y-109769900D01*
X132980800Y-108830100D01*
X133742800Y-108830100D01*
X133742800Y-109769900D01*
X133742800Y-109769900D01*
G37*
G36*
X135419200Y-109769900D02*
X134657200Y-109769900D01*
X134657200Y-108830100D01*
X135419200Y-108830100D01*
X135419200Y-109769900D01*
X135419200Y-109769900D01*
G37*
G36*
X159000000Y-99315000D02*
X158370000Y-99315000D01*
X158370000Y-98485000D01*
X159000000Y-98485000D01*
X159000000Y-99315000D01*
X159000000Y-99315000D01*
G37*
G36*
X148330000Y-99315000D02*
X147700000Y-99315000D01*
X147700000Y-98485000D01*
X148330000Y-98485000D01*
X148330000Y-99315000D01*
X148330000Y-99315000D01*
G37*
G36*
X146100000Y-99315000D02*
X145470000Y-99315000D01*
X145470000Y-98485000D01*
X146100000Y-98485000D01*
X146100000Y-99315000D01*
X146100000Y-99315000D01*
G37*
G36*
X141830000Y-99315000D02*
X141200000Y-99315000D01*
X141200000Y-98485000D01*
X141830000Y-98485000D01*
X141830000Y-99315000D01*
X141830000Y-99315000D01*
G37*
G36*
X139600000Y-99315000D02*
X138970000Y-99315000D01*
X138970000Y-98485000D01*
X139600000Y-98485000D01*
X139600000Y-99315000D01*
X139600000Y-99315000D01*
G37*
G36*
X180630000Y-99315000D02*
X180000000Y-99315000D01*
X180000000Y-98485000D01*
X180630000Y-98485000D01*
X180630000Y-99315000D01*
X180630000Y-99315000D01*
G37*
G36*
X178400000Y-99315000D02*
X177770000Y-99315000D01*
X177770000Y-98485000D01*
X178400000Y-98485000D01*
X178400000Y-99315000D01*
X178400000Y-99315000D01*
G37*
G36*
X171800000Y-99315000D02*
X171170000Y-99315000D01*
X171170000Y-98485000D01*
X171800000Y-98485000D01*
X171800000Y-99315000D01*
X171800000Y-99315000D01*
G37*
G36*
X167530000Y-99315000D02*
X166900000Y-99315000D01*
X166900000Y-98485000D01*
X167530000Y-98485000D01*
X167530000Y-99315000D01*
X167530000Y-99315000D01*
G37*
G36*
X165300000Y-99315000D02*
X164670000Y-99315000D01*
X164670000Y-98485000D01*
X165300000Y-98485000D01*
X165300000Y-99315000D01*
X165300000Y-99315000D01*
G37*
G36*
X161230000Y-99315000D02*
X160600000Y-99315000D01*
X160600000Y-98485000D01*
X161230000Y-98485000D01*
X161230000Y-99315000D01*
X161230000Y-99315000D01*
G37*
G36*
X154930000Y-99315000D02*
X154300000Y-99315000D01*
X154300000Y-98485000D01*
X154930000Y-98485000D01*
X154930000Y-99315000D01*
X154930000Y-99315000D01*
G37*
G36*
X152700000Y-99315000D02*
X152070000Y-99315000D01*
X152070000Y-98485000D01*
X152700000Y-98485000D01*
X152700000Y-99315000D01*
X152700000Y-99315000D01*
G37*
G36*
X174030000Y-99315000D02*
X173400000Y-99315000D01*
X173400000Y-98485000D01*
X174030000Y-98485000D01*
X174030000Y-99315000D01*
X174030000Y-99315000D01*
G37*
G36*
X154569900Y-97019200D02*
X153630100Y-97019200D01*
X153630100Y-96257200D01*
X154569900Y-96257200D01*
X154569900Y-97019200D01*
X154569900Y-97019200D01*
G37*
G36*
X167369900Y-97019200D02*
X166430100Y-97019200D01*
X166430100Y-96257200D01*
X167369900Y-96257200D01*
X167369900Y-97019200D01*
X167369900Y-97019200D01*
G37*
G36*
X164169900Y-97019200D02*
X163230100Y-97019200D01*
X163230100Y-96257200D01*
X164169900Y-96257200D01*
X164169900Y-97019200D01*
X164169900Y-97019200D01*
G37*
G36*
X140169900Y-97019200D02*
X139230100Y-97019200D01*
X139230100Y-96257200D01*
X140169900Y-96257200D01*
X140169900Y-97019200D01*
X140169900Y-97019200D01*
G37*
G36*
X160969900Y-97019200D02*
X160030100Y-97019200D01*
X160030100Y-96257200D01*
X160969900Y-96257200D01*
X160969900Y-97019200D01*
X160969900Y-97019200D01*
G37*
G36*
X157769900Y-97019200D02*
X156830100Y-97019200D01*
X156830100Y-96257200D01*
X157769900Y-96257200D01*
X157769900Y-97019200D01*
X157769900Y-97019200D01*
G37*
G36*
X159369900Y-97019200D02*
X158430100Y-97019200D01*
X158430100Y-96257200D01*
X159369900Y-96257200D01*
X159369900Y-97019200D01*
X159369900Y-97019200D01*
G37*
G36*
X152969900Y-97019200D02*
X152030100Y-97019200D01*
X152030100Y-96257200D01*
X152969900Y-96257200D01*
X152969900Y-97019200D01*
X152969900Y-97019200D01*
G37*
G36*
X148169900Y-97019200D02*
X147230100Y-97019200D01*
X147230100Y-96257200D01*
X148169900Y-96257200D01*
X148169900Y-97019200D01*
X148169900Y-97019200D01*
G37*
G36*
X144969900Y-97019200D02*
X144030100Y-97019200D01*
X144030100Y-96257200D01*
X144969900Y-96257200D01*
X144969900Y-97019200D01*
X144969900Y-97019200D01*
G37*
G36*
X146569900Y-97019200D02*
X145630100Y-97019200D01*
X145630100Y-96257200D01*
X146569900Y-96257200D01*
X146569900Y-97019200D01*
X146569900Y-97019200D01*
G37*
G36*
X141769900Y-97019200D02*
X140830100Y-97019200D01*
X140830100Y-96257200D01*
X141769900Y-96257200D01*
X141769900Y-97019200D01*
X141769900Y-97019200D01*
G37*
G36*
X138569900Y-97019200D02*
X137630100Y-97019200D01*
X137630100Y-96257200D01*
X138569900Y-96257200D01*
X138569900Y-97019200D01*
X138569900Y-97019200D01*
G37*
G36*
X165769900Y-97019200D02*
X164830100Y-97019200D01*
X164830100Y-96257200D01*
X165769900Y-96257200D01*
X165769900Y-97019200D01*
X165769900Y-97019200D01*
G37*
G36*
X176969900Y-97019200D02*
X176030100Y-97019200D01*
X176030100Y-96257200D01*
X176969900Y-96257200D01*
X176969900Y-97019200D01*
X176969900Y-97019200D01*
G37*
G36*
X178569900Y-97019200D02*
X177630100Y-97019200D01*
X177630100Y-96257200D01*
X178569900Y-96257200D01*
X178569900Y-97019200D01*
X178569900Y-97019200D01*
G37*
G36*
X180169900Y-97019200D02*
X179230100Y-97019200D01*
X179230100Y-96257200D01*
X180169900Y-96257200D01*
X180169900Y-97019200D01*
X180169900Y-97019200D01*
G37*
G36*
X143369900Y-97019200D02*
X142430100Y-97019200D01*
X142430100Y-96257200D01*
X143369900Y-96257200D01*
X143369900Y-97019200D01*
X143369900Y-97019200D01*
G37*
G36*
X149769900Y-97019200D02*
X148830100Y-97019200D01*
X148830100Y-96257200D01*
X149769900Y-96257200D01*
X149769900Y-97019200D01*
X149769900Y-97019200D01*
G37*
G36*
X156169900Y-97019200D02*
X155230100Y-97019200D01*
X155230100Y-96257200D01*
X156169900Y-96257200D01*
X156169900Y-97019200D01*
X156169900Y-97019200D01*
G37*
G36*
X162569900Y-97019200D02*
X161630100Y-97019200D01*
X161630100Y-96257200D01*
X162569900Y-96257200D01*
X162569900Y-97019200D01*
X162569900Y-97019200D01*
G37*
G36*
X168969900Y-97019200D02*
X168030100Y-97019200D01*
X168030100Y-96257200D01*
X168969900Y-96257200D01*
X168969900Y-97019200D01*
X168969900Y-97019200D01*
G37*
G36*
X175369900Y-97019200D02*
X174430100Y-97019200D01*
X174430100Y-96257200D01*
X175369900Y-96257200D01*
X175369900Y-97019200D01*
X175369900Y-97019200D01*
G37*
G36*
X151369900Y-97019200D02*
X150430100Y-97019200D01*
X150430100Y-96257200D01*
X151369900Y-96257200D01*
X151369900Y-97019200D01*
X151369900Y-97019200D01*
G37*
G36*
X181769900Y-97019200D02*
X180830100Y-97019200D01*
X180830100Y-96257200D01*
X181769900Y-96257200D01*
X181769900Y-97019200D01*
X181769900Y-97019200D01*
G37*
G36*
X173769900Y-97019200D02*
X172830100Y-97019200D01*
X172830100Y-96257200D01*
X173769900Y-96257200D01*
X173769900Y-97019200D01*
X173769900Y-97019200D01*
G37*
G36*
X172169900Y-97019200D02*
X171230100Y-97019200D01*
X171230100Y-96257200D01*
X172169900Y-96257200D01*
X172169900Y-97019200D01*
X172169900Y-97019200D01*
G37*
G36*
X170569900Y-97019200D02*
X169630100Y-97019200D01*
X169630100Y-96257200D01*
X170569900Y-96257200D01*
X170569900Y-97019200D01*
X170569900Y-97019200D01*
G37*
G36*
X196850000Y-95420000D02*
X190550000Y-95420000D01*
X190550000Y-89320000D01*
X196850000Y-89320000D01*
X196850000Y-95420000D01*
X196850000Y-95420000D01*
G37*
G36*
X189210000Y-95420000D02*
X182910000Y-95420000D01*
X182910000Y-89320000D01*
X189210000Y-89320000D01*
X189210000Y-95420000D01*
X189210000Y-95420000D01*
G37*
G36*
X141769900Y-95342800D02*
X140830100Y-95342800D01*
X140830100Y-94580800D01*
X141769900Y-94580800D01*
X141769900Y-95342800D01*
X141769900Y-95342800D01*
G37*
G36*
X154569900Y-95342800D02*
X153630100Y-95342800D01*
X153630100Y-94580800D01*
X154569900Y-94580800D01*
X154569900Y-95342800D01*
X154569900Y-95342800D01*
G37*
G36*
X178569900Y-95342800D02*
X177630100Y-95342800D01*
X177630100Y-94580800D01*
X178569900Y-94580800D01*
X178569900Y-95342800D01*
X178569900Y-95342800D01*
G37*
G36*
X176969900Y-95342800D02*
X176030100Y-95342800D01*
X176030100Y-94580800D01*
X176969900Y-94580800D01*
X176969900Y-95342800D01*
X176969900Y-95342800D01*
G37*
G36*
X180169900Y-95342800D02*
X179230100Y-95342800D01*
X179230100Y-94580800D01*
X180169900Y-94580800D01*
X180169900Y-95342800D01*
X180169900Y-95342800D01*
G37*
G36*
X170569900Y-95342800D02*
X169630100Y-95342800D01*
X169630100Y-94580800D01*
X170569900Y-94580800D01*
X170569900Y-95342800D01*
X170569900Y-95342800D01*
G37*
G36*
X167369900Y-95342800D02*
X166430100Y-95342800D01*
X166430100Y-94580800D01*
X167369900Y-94580800D01*
X167369900Y-95342800D01*
X167369900Y-95342800D01*
G37*
G36*
X173769900Y-95342800D02*
X172830100Y-95342800D01*
X172830100Y-94580800D01*
X173769900Y-94580800D01*
X173769900Y-95342800D01*
X173769900Y-95342800D01*
G37*
G36*
X164169900Y-95342800D02*
X163230100Y-95342800D01*
X163230100Y-94580800D01*
X164169900Y-94580800D01*
X164169900Y-95342800D01*
X164169900Y-95342800D01*
G37*
G36*
X165769900Y-95342800D02*
X164830100Y-95342800D01*
X164830100Y-94580800D01*
X165769900Y-94580800D01*
X165769900Y-95342800D01*
X165769900Y-95342800D01*
G37*
G36*
X160969900Y-95342800D02*
X160030100Y-95342800D01*
X160030100Y-94580800D01*
X160969900Y-94580800D01*
X160969900Y-95342800D01*
X160969900Y-95342800D01*
G37*
G36*
X172169900Y-95342800D02*
X171230100Y-95342800D01*
X171230100Y-94580800D01*
X172169900Y-94580800D01*
X172169900Y-95342800D01*
X172169900Y-95342800D01*
G37*
G36*
X157769900Y-95342800D02*
X156830100Y-95342800D01*
X156830100Y-94580800D01*
X157769900Y-94580800D01*
X157769900Y-95342800D01*
X157769900Y-95342800D01*
G37*
G36*
X159369900Y-95342800D02*
X158430100Y-95342800D01*
X158430100Y-94580800D01*
X159369900Y-94580800D01*
X159369900Y-95342800D01*
X159369900Y-95342800D01*
G37*
G36*
X138569900Y-95342800D02*
X137630100Y-95342800D01*
X137630100Y-94580800D01*
X138569900Y-94580800D01*
X138569900Y-95342800D01*
X138569900Y-95342800D01*
G37*
G36*
X149769900Y-95342800D02*
X148830100Y-95342800D01*
X148830100Y-94580800D01*
X149769900Y-94580800D01*
X149769900Y-95342800D01*
X149769900Y-95342800D01*
G37*
G36*
X140169900Y-95342800D02*
X139230100Y-95342800D01*
X139230100Y-94580800D01*
X140169900Y-94580800D01*
X140169900Y-95342800D01*
X140169900Y-95342800D01*
G37*
G36*
X152969900Y-95342800D02*
X152030100Y-95342800D01*
X152030100Y-94580800D01*
X152969900Y-94580800D01*
X152969900Y-95342800D01*
X152969900Y-95342800D01*
G37*
G36*
X143369900Y-95342800D02*
X142430100Y-95342800D01*
X142430100Y-94580800D01*
X143369900Y-94580800D01*
X143369900Y-95342800D01*
X143369900Y-95342800D01*
G37*
G36*
X144969900Y-95342800D02*
X144030100Y-95342800D01*
X144030100Y-94580800D01*
X144969900Y-94580800D01*
X144969900Y-95342800D01*
X144969900Y-95342800D01*
G37*
G36*
X146569900Y-95342800D02*
X145630100Y-95342800D01*
X145630100Y-94580800D01*
X146569900Y-94580800D01*
X146569900Y-95342800D01*
X146569900Y-95342800D01*
G37*
G36*
X148169900Y-95342800D02*
X147230100Y-95342800D01*
X147230100Y-94580800D01*
X148169900Y-94580800D01*
X148169900Y-95342800D01*
X148169900Y-95342800D01*
G37*
G36*
X181769900Y-95342800D02*
X180830100Y-95342800D01*
X180830100Y-94580800D01*
X181769900Y-94580800D01*
X181769900Y-95342800D01*
X181769900Y-95342800D01*
G37*
G36*
X175369900Y-95342800D02*
X174430100Y-95342800D01*
X174430100Y-94580800D01*
X175369900Y-94580800D01*
X175369900Y-95342800D01*
X175369900Y-95342800D01*
G37*
G36*
X168969900Y-95342800D02*
X168030100Y-95342800D01*
X168030100Y-94580800D01*
X168969900Y-94580800D01*
X168969900Y-95342800D01*
X168969900Y-95342800D01*
G37*
G36*
X162569900Y-95342800D02*
X161630100Y-95342800D01*
X161630100Y-94580800D01*
X162569900Y-94580800D01*
X162569900Y-95342800D01*
X162569900Y-95342800D01*
G37*
G36*
X156169900Y-95342800D02*
X155230100Y-95342800D01*
X155230100Y-94580800D01*
X156169900Y-94580800D01*
X156169900Y-95342800D01*
X156169900Y-95342800D01*
G37*
G36*
X151369900Y-95342800D02*
X150430100Y-95342800D01*
X150430100Y-94580800D01*
X151369900Y-94580800D01*
X151369900Y-95342800D01*
X151369900Y-95342800D01*
G37*
G36*
X158700000Y-92900000D02*
X158300000Y-92900000D01*
X158300000Y-91700000D01*
X158700000Y-91700000D01*
X158700000Y-92900000D01*
X158700000Y-92900000D01*
G37*
G36*
X170700000Y-92900000D02*
X170300000Y-92900000D01*
X170300000Y-91700000D01*
X170700000Y-91700000D01*
X170700000Y-92900000D01*
X170700000Y-92900000D01*
G37*
G36*
X161100000Y-92900000D02*
X160700000Y-92900000D01*
X160700000Y-91700000D01*
X161100000Y-91700000D01*
X161100000Y-92900000D01*
X161100000Y-92900000D01*
G37*
G36*
X172300000Y-92900000D02*
X171900000Y-92900000D01*
X171900000Y-91700000D01*
X172300000Y-91700000D01*
X172300000Y-92900000D01*
X172300000Y-92900000D01*
G37*
G36*
X173100000Y-92900000D02*
X172700000Y-92900000D01*
X172700000Y-91700000D01*
X173100000Y-91700000D01*
X173100000Y-92900000D01*
X173100000Y-92900000D01*
G37*
G36*
X173900000Y-92900000D02*
X173500000Y-92900000D01*
X173500000Y-91700000D01*
X173900000Y-91700000D01*
X173900000Y-92900000D01*
X173900000Y-92900000D01*
G37*
G36*
X174700000Y-92900000D02*
X174300000Y-92900000D01*
X174300000Y-91700000D01*
X174700000Y-91700000D01*
X174700000Y-92900000D01*
X174700000Y-92900000D01*
G37*
G36*
X157900000Y-92900000D02*
X157500000Y-92900000D01*
X157500000Y-91700000D01*
X157900000Y-91700000D01*
X157900000Y-92900000D01*
X157900000Y-92900000D01*
G37*
G36*
X164300000Y-92900000D02*
X163900000Y-92900000D01*
X163900000Y-91700000D01*
X164300000Y-91700000D01*
X164300000Y-92900000D01*
X164300000Y-92900000D01*
G37*
G36*
X165100000Y-92900000D02*
X164700000Y-92900000D01*
X164700000Y-91700000D01*
X165100000Y-91700000D01*
X165100000Y-92900000D01*
X165100000Y-92900000D01*
G37*
G36*
X165900000Y-92900000D02*
X165500000Y-92900000D01*
X165500000Y-91700000D01*
X165900000Y-91700000D01*
X165900000Y-92900000D01*
X165900000Y-92900000D01*
G37*
G36*
X166700000Y-92900000D02*
X166300000Y-92900000D01*
X166300000Y-91700000D01*
X166700000Y-91700000D01*
X166700000Y-92900000D01*
X166700000Y-92900000D01*
G37*
G36*
X167500000Y-92900000D02*
X167100000Y-92900000D01*
X167100000Y-91700000D01*
X167500000Y-91700000D01*
X167500000Y-92900000D01*
X167500000Y-92900000D01*
G37*
G36*
X168300000Y-92900000D02*
X167900000Y-92900000D01*
X167900000Y-91700000D01*
X168300000Y-91700000D01*
X168300000Y-92900000D01*
X168300000Y-92900000D01*
G37*
G36*
X177100000Y-92900000D02*
X176700000Y-92900000D01*
X176700000Y-91700000D01*
X177100000Y-91700000D01*
X177100000Y-92900000D01*
X177100000Y-92900000D01*
G37*
G36*
X178700000Y-92900000D02*
X178300000Y-92900000D01*
X178300000Y-91700000D01*
X178700000Y-91700000D01*
X178700000Y-92900000D01*
X178700000Y-92900000D01*
G37*
G36*
X179500000Y-92900000D02*
X179100000Y-92900000D01*
X179100000Y-91700000D01*
X179500000Y-91700000D01*
X179500000Y-92900000D01*
X179500000Y-92900000D01*
G37*
G36*
X180300000Y-92900000D02*
X179900000Y-92900000D01*
X179900000Y-91700000D01*
X180300000Y-91700000D01*
X180300000Y-92900000D01*
X180300000Y-92900000D01*
G37*
G36*
X181100000Y-92900000D02*
X180700000Y-92900000D01*
X180700000Y-91700000D01*
X181100000Y-91700000D01*
X181100000Y-92900000D01*
X181100000Y-92900000D01*
G37*
G36*
X177900000Y-92900000D02*
X177500000Y-92900000D01*
X177500000Y-91700000D01*
X177900000Y-91700000D01*
X177900000Y-92900000D01*
X177900000Y-92900000D01*
G37*
G36*
X138800000Y-92900000D02*
X138400000Y-92900000D01*
X138400000Y-91700000D01*
X138800000Y-91700000D01*
X138800000Y-92900000D01*
X138800000Y-92900000D01*
G37*
G36*
X154700000Y-92900000D02*
X154300000Y-92900000D01*
X154300000Y-91700000D01*
X154700000Y-91700000D01*
X154700000Y-92900000D01*
X154700000Y-92900000D01*
G37*
G36*
X155500000Y-92900000D02*
X155100000Y-92900000D01*
X155100000Y-91700000D01*
X155500000Y-91700000D01*
X155500000Y-92900000D01*
X155500000Y-92900000D01*
G37*
G36*
X146800000Y-92900000D02*
X146400000Y-92900000D01*
X146400000Y-91700000D01*
X146800000Y-91700000D01*
X146800000Y-92900000D01*
X146800000Y-92900000D01*
G37*
G36*
X161900000Y-92900000D02*
X161500000Y-92900000D01*
X161500000Y-91700000D01*
X161900000Y-91700000D01*
X161900000Y-92900000D01*
X161900000Y-92900000D01*
G37*
G36*
X147600000Y-92900000D02*
X147200000Y-92900000D01*
X147200000Y-91700000D01*
X147600000Y-91700000D01*
X147600000Y-92900000D01*
X147600000Y-92900000D01*
G37*
G36*
X140400000Y-92900000D02*
X140000000Y-92900000D01*
X140000000Y-91700000D01*
X140400000Y-91700000D01*
X140400000Y-92900000D01*
X140400000Y-92900000D01*
G37*
G36*
X148400000Y-92900000D02*
X148000000Y-92900000D01*
X148000000Y-91700000D01*
X148400000Y-91700000D01*
X148400000Y-92900000D01*
X148400000Y-92900000D01*
G37*
G36*
X149200000Y-92900000D02*
X148800000Y-92900000D01*
X148800000Y-91700000D01*
X149200000Y-91700000D01*
X149200000Y-92900000D01*
X149200000Y-92900000D01*
G37*
G36*
X145200000Y-92900000D02*
X144800000Y-92900000D01*
X144800000Y-91700000D01*
X145200000Y-91700000D01*
X145200000Y-92900000D01*
X145200000Y-92900000D01*
G37*
G36*
X146000000Y-92900000D02*
X145600000Y-92900000D01*
X145600000Y-91700000D01*
X146000000Y-91700000D01*
X146000000Y-92900000D01*
X146000000Y-92900000D01*
G37*
G36*
X142800000Y-92900000D02*
X142400000Y-92900000D01*
X142400000Y-91700000D01*
X142800000Y-91700000D01*
X142800000Y-92900000D01*
X142800000Y-92900000D01*
G37*
G36*
X142000000Y-92900000D02*
X141600000Y-92900000D01*
X141600000Y-91700000D01*
X142000000Y-91700000D01*
X142000000Y-92900000D01*
X142000000Y-92900000D01*
G37*
G36*
X141200000Y-92900000D02*
X140800000Y-92900000D01*
X140800000Y-91700000D01*
X141200000Y-91700000D01*
X141200000Y-92900000D01*
X141200000Y-92900000D01*
G37*
G36*
X139600000Y-92900000D02*
X139200000Y-92900000D01*
X139200000Y-91700000D01*
X139600000Y-91700000D01*
X139600000Y-92900000D01*
X139600000Y-92900000D01*
G37*
G36*
X159500000Y-92900000D02*
X159100000Y-92900000D01*
X159100000Y-91700000D01*
X159500000Y-91700000D01*
X159500000Y-92900000D01*
X159500000Y-92900000D01*
G37*
G36*
X160300000Y-92900000D02*
X159900000Y-92900000D01*
X159900000Y-91700000D01*
X160300000Y-91700000D01*
X160300000Y-92900000D01*
X160300000Y-92900000D01*
G37*
G36*
X171500000Y-92900000D02*
X171100000Y-92900000D01*
X171100000Y-91700000D01*
X171500000Y-91700000D01*
X171500000Y-92900000D01*
X171500000Y-92900000D01*
G37*
G36*
X151500000Y-92900000D02*
X151100000Y-92900000D01*
X151100000Y-91700000D01*
X151500000Y-91700000D01*
X151500000Y-92900000D01*
X151500000Y-92900000D01*
G37*
G36*
X152300000Y-92900000D02*
X151900000Y-92900000D01*
X151900000Y-91700000D01*
X152300000Y-91700000D01*
X152300000Y-92900000D01*
X152300000Y-92900000D01*
G37*
G36*
X153100000Y-92900000D02*
X152700000Y-92900000D01*
X152700000Y-91700000D01*
X153100000Y-91700000D01*
X153100000Y-92900000D01*
X153100000Y-92900000D01*
G37*
G36*
X153900000Y-92900000D02*
X153500000Y-92900000D01*
X153500000Y-91700000D01*
X153900000Y-91700000D01*
X153900000Y-92900000D01*
X153900000Y-92900000D01*
G37*
G36*
X180700000Y-90450000D02*
X177100000Y-90450000D01*
X177100000Y-88550000D01*
X180700000Y-88550000D01*
X180700000Y-90450000D01*
X180700000Y-90450000D01*
G37*
G36*
X148800000Y-90450000D02*
X145200000Y-90450000D01*
X145200000Y-88550000D01*
X148800000Y-88550000D01*
X148800000Y-90450000D01*
X148800000Y-90450000D01*
G37*
G36*
X161500000Y-90450000D02*
X157900000Y-90450000D01*
X157900000Y-88550000D01*
X161500000Y-88550000D01*
X161500000Y-90450000D01*
X161500000Y-90450000D01*
G37*
G36*
X142400000Y-90450000D02*
X138800000Y-90450000D01*
X138800000Y-88550000D01*
X142400000Y-88550000D01*
X142400000Y-90450000D01*
X142400000Y-90450000D01*
G37*
G36*
X167900000Y-90450000D02*
X164300000Y-90450000D01*
X164300000Y-88550000D01*
X167900000Y-88550000D01*
X167900000Y-90450000D01*
X167900000Y-90450000D01*
G37*
G36*
X174300000Y-90450000D02*
X170700000Y-90450000D01*
X170700000Y-88550000D01*
X174300000Y-88550000D01*
X174300000Y-90450000D01*
X174300000Y-90450000D01*
G37*
G36*
X155100000Y-90450000D02*
X151500000Y-90450000D01*
X151500000Y-88550000D01*
X155100000Y-88550000D01*
X155100000Y-90450000D01*
X155100000Y-90450000D01*
G37*
G36*
X146000000Y-87300000D02*
X145600000Y-87300000D01*
X145600000Y-86100000D01*
X146000000Y-86100000D01*
X146000000Y-87300000D01*
X146000000Y-87300000D01*
G37*
G36*
X153100000Y-87300000D02*
X152700000Y-87300000D01*
X152700000Y-86100000D01*
X153100000Y-86100000D01*
X153100000Y-87300000D01*
X153100000Y-87300000D01*
G37*
G36*
X145200000Y-87300000D02*
X144800000Y-87300000D01*
X144800000Y-86100000D01*
X145200000Y-86100000D01*
X145200000Y-87300000D01*
X145200000Y-87300000D01*
G37*
G36*
X142800000Y-87300000D02*
X142400000Y-87300000D01*
X142400000Y-86100000D01*
X142800000Y-86100000D01*
X142800000Y-87300000D01*
X142800000Y-87300000D01*
G37*
G36*
X142000000Y-87300000D02*
X141600000Y-87300000D01*
X141600000Y-86100000D01*
X142000000Y-86100000D01*
X142000000Y-87300000D01*
X142000000Y-87300000D01*
G37*
G36*
X141200000Y-87300000D02*
X140800000Y-87300000D01*
X140800000Y-86100000D01*
X141200000Y-86100000D01*
X141200000Y-87300000D01*
X141200000Y-87300000D01*
G37*
G36*
X165900000Y-87300000D02*
X165500000Y-87300000D01*
X165500000Y-86100000D01*
X165900000Y-86100000D01*
X165900000Y-87300000D01*
X165900000Y-87300000D01*
G37*
G36*
X165100000Y-87300000D02*
X164700000Y-87300000D01*
X164700000Y-86100000D01*
X165100000Y-86100000D01*
X165100000Y-87300000D01*
X165100000Y-87300000D01*
G37*
G36*
X164300000Y-87300000D02*
X163900000Y-87300000D01*
X163900000Y-86100000D01*
X164300000Y-86100000D01*
X164300000Y-87300000D01*
X164300000Y-87300000D01*
G37*
G36*
X161900000Y-87300000D02*
X161500000Y-87300000D01*
X161500000Y-86100000D01*
X161900000Y-86100000D01*
X161900000Y-87300000D01*
X161900000Y-87300000D01*
G37*
G36*
X174700000Y-87300000D02*
X174300000Y-87300000D01*
X174300000Y-86100000D01*
X174700000Y-86100000D01*
X174700000Y-87300000D01*
X174700000Y-87300000D01*
G37*
G36*
X140400000Y-87300000D02*
X140000000Y-87300000D01*
X140000000Y-86100000D01*
X140400000Y-86100000D01*
X140400000Y-87300000D01*
X140400000Y-87300000D01*
G37*
G36*
X139600000Y-87300000D02*
X139200000Y-87300000D01*
X139200000Y-86100000D01*
X139600000Y-86100000D01*
X139600000Y-87300000D01*
X139600000Y-87300000D01*
G37*
G36*
X138800000Y-87300000D02*
X138400000Y-87300000D01*
X138400000Y-86100000D01*
X138800000Y-86100000D01*
X138800000Y-87300000D01*
X138800000Y-87300000D01*
G37*
G36*
X167500000Y-87300000D02*
X167100000Y-87300000D01*
X167100000Y-86100000D01*
X167500000Y-86100000D01*
X167500000Y-87300000D01*
X167500000Y-87300000D01*
G37*
G36*
X168300000Y-87300000D02*
X167900000Y-87300000D01*
X167900000Y-86100000D01*
X168300000Y-86100000D01*
X168300000Y-87300000D01*
X168300000Y-87300000D01*
G37*
G36*
X170700000Y-87300000D02*
X170300000Y-87300000D01*
X170300000Y-86100000D01*
X170700000Y-86100000D01*
X170700000Y-87300000D01*
X170700000Y-87300000D01*
G37*
G36*
X171500000Y-87300000D02*
X171100000Y-87300000D01*
X171100000Y-86100000D01*
X171500000Y-86100000D01*
X171500000Y-87300000D01*
X171500000Y-87300000D01*
G37*
G36*
X172300000Y-87300000D02*
X171900000Y-87300000D01*
X171900000Y-86100000D01*
X172300000Y-86100000D01*
X172300000Y-87300000D01*
X172300000Y-87300000D01*
G37*
G36*
X173100000Y-87300000D02*
X172700000Y-87300000D01*
X172700000Y-86100000D01*
X173100000Y-86100000D01*
X173100000Y-87300000D01*
X173100000Y-87300000D01*
G37*
G36*
X166700000Y-87300000D02*
X166300000Y-87300000D01*
X166300000Y-86100000D01*
X166700000Y-86100000D01*
X166700000Y-87300000D01*
X166700000Y-87300000D01*
G37*
G36*
X161100000Y-87300000D02*
X160700000Y-87300000D01*
X160700000Y-86100000D01*
X161100000Y-86100000D01*
X161100000Y-87300000D01*
X161100000Y-87300000D01*
G37*
G36*
X151500000Y-87300000D02*
X151100000Y-87300000D01*
X151100000Y-86100000D01*
X151500000Y-86100000D01*
X151500000Y-87300000D01*
X151500000Y-87300000D01*
G37*
G36*
X177100000Y-87300000D02*
X176700000Y-87300000D01*
X176700000Y-86100000D01*
X177100000Y-86100000D01*
X177100000Y-87300000D01*
X177100000Y-87300000D01*
G37*
G36*
X147600000Y-87300000D02*
X147200000Y-87300000D01*
X147200000Y-86100000D01*
X147600000Y-86100000D01*
X147600000Y-87300000D01*
X147600000Y-87300000D01*
G37*
G36*
X177900000Y-87300000D02*
X177500000Y-87300000D01*
X177500000Y-86100000D01*
X177900000Y-86100000D01*
X177900000Y-87300000D01*
X177900000Y-87300000D01*
G37*
G36*
X178700000Y-87300000D02*
X178300000Y-87300000D01*
X178300000Y-86100000D01*
X178700000Y-86100000D01*
X178700000Y-87300000D01*
X178700000Y-87300000D01*
G37*
G36*
X179500000Y-87300000D02*
X179100000Y-87300000D01*
X179100000Y-86100000D01*
X179500000Y-86100000D01*
X179500000Y-87300000D01*
X179500000Y-87300000D01*
G37*
G36*
X180300000Y-87300000D02*
X179900000Y-87300000D01*
X179900000Y-86100000D01*
X180300000Y-86100000D01*
X180300000Y-87300000D01*
X180300000Y-87300000D01*
G37*
G36*
X181100000Y-87300000D02*
X180700000Y-87300000D01*
X180700000Y-86100000D01*
X181100000Y-86100000D01*
X181100000Y-87300000D01*
X181100000Y-87300000D01*
G37*
G36*
X148400000Y-87300000D02*
X148000000Y-87300000D01*
X148000000Y-86100000D01*
X148400000Y-86100000D01*
X148400000Y-87300000D01*
X148400000Y-87300000D01*
G37*
G36*
X149200000Y-87300000D02*
X148800000Y-87300000D01*
X148800000Y-86100000D01*
X149200000Y-86100000D01*
X149200000Y-87300000D01*
X149200000Y-87300000D01*
G37*
G36*
X152300000Y-87300000D02*
X151900000Y-87300000D01*
X151900000Y-86100000D01*
X152300000Y-86100000D01*
X152300000Y-87300000D01*
X152300000Y-87300000D01*
G37*
G36*
X146800000Y-87300000D02*
X146400000Y-87300000D01*
X146400000Y-86100000D01*
X146800000Y-86100000D01*
X146800000Y-87300000D01*
X146800000Y-87300000D01*
G37*
G36*
X153900000Y-87300000D02*
X153500000Y-87300000D01*
X153500000Y-86100000D01*
X153900000Y-86100000D01*
X153900000Y-87300000D01*
X153900000Y-87300000D01*
G37*
G36*
X154700000Y-87300000D02*
X154300000Y-87300000D01*
X154300000Y-86100000D01*
X154700000Y-86100000D01*
X154700000Y-87300000D01*
X154700000Y-87300000D01*
G37*
G36*
X160300000Y-87300000D02*
X159900000Y-87300000D01*
X159900000Y-86100000D01*
X160300000Y-86100000D01*
X160300000Y-87300000D01*
X160300000Y-87300000D01*
G37*
G36*
X159500000Y-87300000D02*
X159100000Y-87300000D01*
X159100000Y-86100000D01*
X159500000Y-86100000D01*
X159500000Y-87300000D01*
X159500000Y-87300000D01*
G37*
G36*
X155500000Y-87300000D02*
X155100000Y-87300000D01*
X155100000Y-86100000D01*
X155500000Y-86100000D01*
X155500000Y-87300000D01*
X155500000Y-87300000D01*
G37*
G36*
X157900000Y-87300000D02*
X157500000Y-87300000D01*
X157500000Y-86100000D01*
X157900000Y-86100000D01*
X157900000Y-87300000D01*
X157900000Y-87300000D01*
G37*
G36*
X158700000Y-87300000D02*
X158300000Y-87300000D01*
X158300000Y-86100000D01*
X158700000Y-86100000D01*
X158700000Y-87300000D01*
X158700000Y-87300000D01*
G37*
G36*
X173900000Y-87300000D02*
X173500000Y-87300000D01*
X173500000Y-86100000D01*
X173900000Y-86100000D01*
X173900000Y-87300000D01*
X173900000Y-87300000D01*
G37*
G36*
X196550000Y-86800000D02*
X194250000Y-86800000D01*
X194250000Y-84800000D01*
X196550000Y-84800000D01*
X196550000Y-86800000D01*
X196550000Y-86800000D01*
G37*
G36*
X193150000Y-86800000D02*
X190850000Y-86800000D01*
X190850000Y-84800000D01*
X193150000Y-84800000D01*
X193150000Y-86800000D01*
X193150000Y-86800000D01*
G37*
G36*
X188910000Y-86800000D02*
X186610000Y-86800000D01*
X186610000Y-84800000D01*
X188910000Y-84800000D01*
X188910000Y-86800000D01*
X188910000Y-86800000D01*
G37*
G36*
X185510000Y-86800000D02*
X183210000Y-86800000D01*
X183210000Y-84800000D01*
X185510000Y-84800000D01*
X185510000Y-86800000D01*
X185510000Y-86800000D01*
G37*
G36*
X175499770Y-85114270D02*
X174100230Y-85114270D01*
X174100230Y-83816330D01*
X175499770Y-83816330D01*
X175499770Y-85114270D01*
X175499770Y-85114270D01*
G37*
G36*
X138999770Y-85114270D02*
X137600230Y-85114270D01*
X137600230Y-83816330D01*
X138999770Y-83816330D01*
X138999770Y-85114270D01*
X138999770Y-85114270D01*
G37*
G36*
X143599770Y-85114270D02*
X142200230Y-85114270D01*
X142200230Y-83816330D01*
X143599770Y-83816330D01*
X143599770Y-85114270D01*
X143599770Y-85114270D01*
G37*
G36*
X149999770Y-85114270D02*
X148600230Y-85114270D01*
X148600230Y-83816330D01*
X149999770Y-83816330D01*
X149999770Y-85114270D01*
X149999770Y-85114270D01*
G37*
G36*
X164399770Y-85114270D02*
X163000230Y-85114270D01*
X163000230Y-83816330D01*
X164399770Y-83816330D01*
X164399770Y-85114270D01*
X164399770Y-85114270D01*
G37*
G36*
X169099770Y-85114270D02*
X167700230Y-85114270D01*
X167700230Y-83816330D01*
X169099770Y-83816330D01*
X169099770Y-85114270D01*
X169099770Y-85114270D01*
G37*
G36*
X170899770Y-85114270D02*
X169500230Y-85114270D01*
X169500230Y-83816330D01*
X170899770Y-83816330D01*
X170899770Y-85114270D01*
X170899770Y-85114270D01*
G37*
G36*
X181899770Y-85114270D02*
X180500230Y-85114270D01*
X180500230Y-83816330D01*
X181899770Y-83816330D01*
X181899770Y-85114270D01*
X181899770Y-85114270D01*
G37*
G36*
X177299770Y-85114270D02*
X175900230Y-85114270D01*
X175900230Y-83816330D01*
X177299770Y-83816330D01*
X177299770Y-85114270D01*
X177299770Y-85114270D01*
G37*
G36*
X151799770Y-85114270D02*
X150400230Y-85114270D01*
X150400230Y-83816330D01*
X151799770Y-83816330D01*
X151799770Y-85114270D01*
X151799770Y-85114270D01*
G37*
G36*
X158099770Y-85114270D02*
X156700230Y-85114270D01*
X156700230Y-83816330D01*
X158099770Y-83816330D01*
X158099770Y-85114270D01*
X158099770Y-85114270D01*
G37*
G36*
X145399770Y-85114270D02*
X144000230Y-85114270D01*
X144000230Y-83816330D01*
X145399770Y-83816330D01*
X145399770Y-85114270D01*
X145399770Y-85114270D01*
G37*
G36*
X156299770Y-85114270D02*
X154900230Y-85114270D01*
X154900230Y-83816330D01*
X156299770Y-83816330D01*
X156299770Y-85114270D01*
X156299770Y-85114270D01*
G37*
G36*
X162599770Y-85114270D02*
X161200230Y-85114270D01*
X161200230Y-83816330D01*
X162599770Y-83816330D01*
X162599770Y-85114270D01*
X162599770Y-85114270D01*
G37*
G36*
X192942800Y-84169900D02*
X192180800Y-84169900D01*
X192180800Y-83230100D01*
X192942800Y-83230100D01*
X192942800Y-84169900D01*
X192942800Y-84169900D01*
G37*
G36*
X194619200Y-84169900D02*
X193857200Y-84169900D01*
X193857200Y-83230100D01*
X194619200Y-83230100D01*
X194619200Y-84169900D01*
X194619200Y-84169900D01*
G37*
G36*
X185242800Y-84169900D02*
X184480800Y-84169900D01*
X184480800Y-83230100D01*
X185242800Y-83230100D01*
X185242800Y-84169900D01*
X185242800Y-84169900D01*
G37*
G36*
X186919200Y-84169900D02*
X186157200Y-84169900D01*
X186157200Y-83230100D01*
X186919200Y-83230100D01*
X186919200Y-84169900D01*
X186919200Y-84169900D01*
G37*
G36*
X185642800Y-82469900D02*
X184880800Y-82469900D01*
X184880800Y-81530100D01*
X185642800Y-81530100D01*
X185642800Y-82469900D01*
X185642800Y-82469900D01*
G37*
G36*
X187319200Y-82469900D02*
X186557200Y-82469900D01*
X186557200Y-81530100D01*
X187319200Y-81530100D01*
X187319200Y-82469900D01*
X187319200Y-82469900D01*
G37*
G36*
X195019200Y-82469900D02*
X194257200Y-82469900D01*
X194257200Y-81530100D01*
X195019200Y-81530100D01*
X195019200Y-82469900D01*
X195019200Y-82469900D01*
G37*
G36*
X193342800Y-82469900D02*
X192580800Y-82469900D01*
X192580800Y-81530100D01*
X193342800Y-81530100D01*
X193342800Y-82469900D01*
X193342800Y-82469900D01*
G37*
G36*
X149999770Y-81583670D02*
X148600230Y-81583670D01*
X148600230Y-80285730D01*
X149999770Y-80285730D01*
X149999770Y-81583670D01*
X149999770Y-81583670D01*
G37*
G36*
X181899770Y-81583670D02*
X180500230Y-81583670D01*
X180500230Y-80285730D01*
X181899770Y-80285730D01*
X181899770Y-81583670D01*
X181899770Y-81583670D01*
G37*
G36*
X177299770Y-81583670D02*
X175900230Y-81583670D01*
X175900230Y-80285730D01*
X177299770Y-80285730D01*
X177299770Y-81583670D01*
X177299770Y-81583670D01*
G37*
G36*
X138999770Y-81583670D02*
X137600230Y-81583670D01*
X137600230Y-80285730D01*
X138999770Y-80285730D01*
X138999770Y-81583670D01*
X138999770Y-81583670D01*
G37*
G36*
X175499770Y-81583670D02*
X174100230Y-81583670D01*
X174100230Y-80285730D01*
X175499770Y-80285730D01*
X175499770Y-81583670D01*
X175499770Y-81583670D01*
G37*
G36*
X143599770Y-81583670D02*
X142200230Y-81583670D01*
X142200230Y-80285730D01*
X143599770Y-80285730D01*
X143599770Y-81583670D01*
X143599770Y-81583670D01*
G37*
G36*
X145399770Y-81583670D02*
X144000230Y-81583670D01*
X144000230Y-80285730D01*
X145399770Y-80285730D01*
X145399770Y-81583670D01*
X145399770Y-81583670D01*
G37*
G36*
X151799770Y-81583670D02*
X150400230Y-81583670D01*
X150400230Y-80285730D01*
X151799770Y-80285730D01*
X151799770Y-81583670D01*
X151799770Y-81583670D01*
G37*
G36*
X170899770Y-81583670D02*
X169500230Y-81583670D01*
X169500230Y-80285730D01*
X170899770Y-80285730D01*
X170899770Y-81583670D01*
X170899770Y-81583670D01*
G37*
G36*
X162599770Y-81583670D02*
X161200230Y-81583670D01*
X161200230Y-80285730D01*
X162599770Y-80285730D01*
X162599770Y-81583670D01*
X162599770Y-81583670D01*
G37*
G36*
X164399770Y-81583670D02*
X163000230Y-81583670D01*
X163000230Y-80285730D01*
X164399770Y-80285730D01*
X164399770Y-81583670D01*
X164399770Y-81583670D01*
G37*
G36*
X169099770Y-81583670D02*
X167700230Y-81583670D01*
X167700230Y-80285730D01*
X169099770Y-80285730D01*
X169099770Y-81583670D01*
X169099770Y-81583670D01*
G37*
G36*
X158099770Y-81583670D02*
X156700230Y-81583670D01*
X156700230Y-80285730D01*
X158099770Y-80285730D01*
X158099770Y-81583670D01*
X158099770Y-81583670D01*
G37*
G36*
X156299770Y-81583670D02*
X154900230Y-81583670D01*
X154900230Y-80285730D01*
X156299770Y-80285730D01*
X156299770Y-81583670D01*
X156299770Y-81583670D01*
G37*
G36*
X187319200Y-80769900D02*
X186557200Y-80769900D01*
X186557200Y-79830100D01*
X187319200Y-79830100D01*
X187319200Y-80769900D01*
X187319200Y-80769900D01*
G37*
G36*
X195019200Y-80769900D02*
X194257200Y-80769900D01*
X194257200Y-79830100D01*
X195019200Y-79830100D01*
X195019200Y-80769900D01*
X195019200Y-80769900D01*
G37*
G36*
X193342800Y-80769900D02*
X192580800Y-80769900D01*
X192580800Y-79830100D01*
X193342800Y-79830100D01*
X193342800Y-80769900D01*
X193342800Y-80769900D01*
G37*
G36*
X185642800Y-80769900D02*
X184880800Y-80769900D01*
X184880800Y-79830100D01*
X185642800Y-79830100D01*
X185642800Y-80769900D01*
X185642800Y-80769900D01*
G37*
G36*
X185200000Y-79115000D02*
X184570000Y-79115000D01*
X184570000Y-78285000D01*
X185200000Y-78285000D01*
X185200000Y-79115000D01*
X185200000Y-79115000D01*
G37*
G36*
X187430000Y-79115000D02*
X186800000Y-79115000D01*
X186800000Y-78285000D01*
X187430000Y-78285000D01*
X187430000Y-79115000D01*
X187430000Y-79115000D01*
G37*
G36*
X195130000Y-79015000D02*
X194500000Y-79015000D01*
X194500000Y-78185000D01*
X195130000Y-78185000D01*
X195130000Y-79015000D01*
X195130000Y-79015000D01*
G37*
G36*
X192900000Y-79015000D02*
X192270000Y-79015000D01*
X192270000Y-78185000D01*
X192900000Y-78185000D01*
X192900000Y-79015000D01*
X192900000Y-79015000D01*
G37*
G36*
X193540245Y-70838516D02*
X193636836Y-70857729D01*
X193749899Y-70904562D01*
X193909794Y-70970792D01*
X194155454Y-71134937D01*
X194364363Y-71343846D01*
X194528508Y-71589506D01*
X194641571Y-71862465D01*
X194699210Y-72152234D01*
X194699210Y-72447686D01*
X194641571Y-72737455D01*
X194528508Y-73010414D01*
X194364363Y-73256074D01*
X194155454Y-73464983D01*
X193909794Y-73629128D01*
X193749899Y-73695358D01*
X193636836Y-73742191D01*
X193540245Y-73761404D01*
X193347066Y-73799830D01*
X193051614Y-73799830D01*
X192858435Y-73761404D01*
X192761844Y-73742191D01*
X192648781Y-73695358D01*
X192488886Y-73629128D01*
X192243226Y-73464983D01*
X192034317Y-73256074D01*
X191870172Y-73010414D01*
X191757109Y-72737455D01*
X191699470Y-72447686D01*
X191699470Y-72152234D01*
X191757109Y-71862465D01*
X191870172Y-71589506D01*
X192034317Y-71343846D01*
X192243226Y-71134937D01*
X192488886Y-70970792D01*
X192648781Y-70904562D01*
X192761844Y-70857729D01*
X192858435Y-70838516D01*
X193051614Y-70800090D01*
X193347066Y-70800090D01*
X193540245Y-70838516D01*
X193540245Y-70838516D01*
G37*
G36*
X143141565Y-70838516D02*
X143238156Y-70857729D01*
X143351219Y-70904562D01*
X143511114Y-70970792D01*
X143756774Y-71134937D01*
X143965683Y-71343846D01*
X144129828Y-71589506D01*
X144242891Y-71862465D01*
X144300530Y-72152234D01*
X144300530Y-72447686D01*
X144242891Y-72737455D01*
X144129828Y-73010414D01*
X143965683Y-73256074D01*
X143756774Y-73464983D01*
X143511114Y-73629128D01*
X143351219Y-73695358D01*
X143238156Y-73742191D01*
X143141565Y-73761404D01*
X142948386Y-73799830D01*
X142652934Y-73799830D01*
X142459755Y-73761404D01*
X142363164Y-73742191D01*
X142250101Y-73695358D01*
X142090206Y-73629128D01*
X141844546Y-73464983D01*
X141635637Y-73256074D01*
X141471492Y-73010414D01*
X141358429Y-72737455D01*
X141300790Y-72447686D01*
X141300790Y-72152234D01*
X141358429Y-71862465D01*
X141471492Y-71589506D01*
X141635637Y-71343846D01*
X141844546Y-71134937D01*
X142090206Y-70970792D01*
X142250101Y-70904562D01*
X142363164Y-70857729D01*
X142459755Y-70838516D01*
X142652934Y-70800090D01*
X142948386Y-70800090D01*
X143141565Y-70838516D01*
X143141565Y-70838516D01*
G37*
G36*
X174382147Y-67736465D02*
X174382149Y-67736466D01*
X174382150Y-67736466D01*
X174620903Y-67835360D01*
X174834804Y-67978285D01*
X174835777Y-67978935D01*
X175018505Y-68161663D01*
X175018507Y-68161666D01*
X175162080Y-68376537D01*
X175260974Y-68615290D01*
X175311390Y-68868748D01*
X175311390Y-69127172D01*
X175260974Y-69380630D01*
X175162080Y-69619383D01*
X175019155Y-69833284D01*
X175018505Y-69834257D01*
X174835777Y-70016985D01*
X174835774Y-70016987D01*
X174620903Y-70160560D01*
X174382150Y-70259454D01*
X174382149Y-70259454D01*
X174382147Y-70259455D01*
X174128693Y-70309870D01*
X173870267Y-70309870D01*
X173616813Y-70259455D01*
X173616811Y-70259454D01*
X173616810Y-70259454D01*
X173378057Y-70160560D01*
X173163186Y-70016987D01*
X173163183Y-70016985D01*
X172980455Y-69834257D01*
X172979805Y-69833284D01*
X172836880Y-69619383D01*
X172737986Y-69380630D01*
X172687570Y-69127172D01*
X172687570Y-68868748D01*
X172737986Y-68615290D01*
X172836880Y-68376537D01*
X172980453Y-68161666D01*
X172980455Y-68161663D01*
X173163183Y-67978935D01*
X173164156Y-67978285D01*
X173378057Y-67835360D01*
X173616810Y-67736466D01*
X173616811Y-67736466D01*
X173616813Y-67736465D01*
X173870267Y-67686050D01*
X174128693Y-67686050D01*
X174382147Y-67736465D01*
X174382147Y-67736465D01*
G37*
G36*
X166383687Y-67736465D02*
X166383689Y-67736466D01*
X166383690Y-67736466D01*
X166622443Y-67835360D01*
X166836344Y-67978285D01*
X166837317Y-67978935D01*
X167020045Y-68161663D01*
X167020047Y-68161666D01*
X167163620Y-68376537D01*
X167262514Y-68615290D01*
X167312930Y-68868748D01*
X167312930Y-69127172D01*
X167262514Y-69380630D01*
X167163620Y-69619383D01*
X167020695Y-69833284D01*
X167020045Y-69834257D01*
X166837317Y-70016985D01*
X166837314Y-70016987D01*
X166622443Y-70160560D01*
X166383690Y-70259454D01*
X166383689Y-70259454D01*
X166383687Y-70259455D01*
X166130233Y-70309870D01*
X165871807Y-70309870D01*
X165618353Y-70259455D01*
X165618351Y-70259454D01*
X165618350Y-70259454D01*
X165379597Y-70160560D01*
X165164726Y-70016987D01*
X165164723Y-70016985D01*
X164981995Y-69834257D01*
X164981345Y-69833284D01*
X164838420Y-69619383D01*
X164739526Y-69380630D01*
X164689110Y-69127172D01*
X164689110Y-68868748D01*
X164739526Y-68615290D01*
X164838420Y-68376537D01*
X164981993Y-68161666D01*
X164981995Y-68161663D01*
X165164723Y-67978935D01*
X165165696Y-67978285D01*
X165379597Y-67835360D01*
X165618350Y-67736466D01*
X165618351Y-67736466D01*
X165618353Y-67736465D01*
X165871807Y-67686050D01*
X166130233Y-67686050D01*
X166383687Y-67736465D01*
X166383687Y-67736465D01*
G37*
G36*
X158382687Y-67736465D02*
X158382689Y-67736466D01*
X158382690Y-67736466D01*
X158621443Y-67835360D01*
X158835344Y-67978285D01*
X158836317Y-67978935D01*
X159019045Y-68161663D01*
X159019047Y-68161666D01*
X159162620Y-68376537D01*
X159261514Y-68615290D01*
X159311930Y-68868748D01*
X159311930Y-69127172D01*
X159261514Y-69380630D01*
X159162620Y-69619383D01*
X159019695Y-69833284D01*
X159019045Y-69834257D01*
X158836317Y-70016985D01*
X158836314Y-70016987D01*
X158621443Y-70160560D01*
X158382690Y-70259454D01*
X158382689Y-70259454D01*
X158382687Y-70259455D01*
X158129233Y-70309870D01*
X157870807Y-70309870D01*
X157617353Y-70259455D01*
X157617351Y-70259454D01*
X157617350Y-70259454D01*
X157378597Y-70160560D01*
X157163726Y-70016987D01*
X157163723Y-70016985D01*
X156980995Y-69834257D01*
X156980345Y-69833284D01*
X156837420Y-69619383D01*
X156738526Y-69380630D01*
X156688110Y-69127172D01*
X156688110Y-68868748D01*
X156738526Y-68615290D01*
X156837420Y-68376537D01*
X156980993Y-68161666D01*
X156980995Y-68161663D01*
X157163723Y-67978935D01*
X157164696Y-67978285D01*
X157378597Y-67835360D01*
X157617350Y-67736466D01*
X157617351Y-67736466D01*
X157617353Y-67736465D01*
X157870807Y-67686050D01*
X158129233Y-67686050D01*
X158382687Y-67736465D01*
X158382687Y-67736465D01*
G37*
G36*
X170381647Y-67736465D02*
X170381649Y-67736466D01*
X170381650Y-67736466D01*
X170620403Y-67835360D01*
X170834304Y-67978285D01*
X170835277Y-67978935D01*
X171018005Y-68161663D01*
X171018007Y-68161666D01*
X171161580Y-68376537D01*
X171260474Y-68615290D01*
X171310890Y-68868748D01*
X171310890Y-69127172D01*
X171260474Y-69380630D01*
X171161580Y-69619383D01*
X171018655Y-69833284D01*
X171018005Y-69834257D01*
X170835277Y-70016985D01*
X170835274Y-70016987D01*
X170620403Y-70160560D01*
X170381650Y-70259454D01*
X170381649Y-70259454D01*
X170381647Y-70259455D01*
X170128193Y-70309870D01*
X169869767Y-70309870D01*
X169616313Y-70259455D01*
X169616311Y-70259454D01*
X169616310Y-70259454D01*
X169377557Y-70160560D01*
X169162686Y-70016987D01*
X169162683Y-70016985D01*
X168979955Y-69834257D01*
X168979305Y-69833284D01*
X168836380Y-69619383D01*
X168737486Y-69380630D01*
X168687070Y-69127172D01*
X168687070Y-68868748D01*
X168737486Y-68615290D01*
X168836380Y-68376537D01*
X168979953Y-68161666D01*
X168979955Y-68161663D01*
X169162683Y-67978935D01*
X169163656Y-67978285D01*
X169377557Y-67835360D01*
X169616310Y-67736466D01*
X169616311Y-67736466D01*
X169616313Y-67736465D01*
X169869767Y-67686050D01*
X170128193Y-67686050D01*
X170381647Y-67736465D01*
X170381647Y-67736465D01*
G37*
G36*
X182380607Y-67736465D02*
X182380609Y-67736466D01*
X182380610Y-67736466D01*
X182619363Y-67835360D01*
X182833264Y-67978285D01*
X182834237Y-67978935D01*
X183016965Y-68161663D01*
X183016967Y-68161666D01*
X183160540Y-68376537D01*
X183259434Y-68615290D01*
X183309850Y-68868748D01*
X183309850Y-69127172D01*
X183259434Y-69380630D01*
X183160540Y-69619383D01*
X183017615Y-69833284D01*
X183016965Y-69834257D01*
X182834237Y-70016985D01*
X182834234Y-70016987D01*
X182619363Y-70160560D01*
X182380610Y-70259454D01*
X182380609Y-70259454D01*
X182380607Y-70259455D01*
X182127153Y-70309870D01*
X181868727Y-70309870D01*
X181615273Y-70259455D01*
X181615271Y-70259454D01*
X181615270Y-70259454D01*
X181376517Y-70160560D01*
X181161646Y-70016987D01*
X181161643Y-70016985D01*
X180978915Y-69834257D01*
X180978265Y-69833284D01*
X180835340Y-69619383D01*
X180736446Y-69380630D01*
X180686030Y-69127172D01*
X180686030Y-68868748D01*
X180736446Y-68615290D01*
X180835340Y-68376537D01*
X180978913Y-68161666D01*
X180978915Y-68161663D01*
X181161643Y-67978935D01*
X181162616Y-67978285D01*
X181376517Y-67835360D01*
X181615270Y-67736466D01*
X181615271Y-67736466D01*
X181615273Y-67736465D01*
X181868727Y-67686050D01*
X182127153Y-67686050D01*
X182380607Y-67736465D01*
X182380607Y-67736465D01*
G37*
G36*
X178382647Y-67736465D02*
X178382649Y-67736466D01*
X178382650Y-67736466D01*
X178621403Y-67835360D01*
X178835304Y-67978285D01*
X178836277Y-67978935D01*
X179019005Y-68161663D01*
X179019007Y-68161666D01*
X179162580Y-68376537D01*
X179261474Y-68615290D01*
X179311890Y-68868748D01*
X179311890Y-69127172D01*
X179261474Y-69380630D01*
X179162580Y-69619383D01*
X179019655Y-69833284D01*
X179019005Y-69834257D01*
X178836277Y-70016985D01*
X178836274Y-70016987D01*
X178621403Y-70160560D01*
X178382650Y-70259454D01*
X178382649Y-70259454D01*
X178382647Y-70259455D01*
X178129193Y-70309870D01*
X177870767Y-70309870D01*
X177617313Y-70259455D01*
X177617311Y-70259454D01*
X177617310Y-70259454D01*
X177378557Y-70160560D01*
X177163686Y-70016987D01*
X177163683Y-70016985D01*
X176980955Y-69834257D01*
X176980305Y-69833284D01*
X176837380Y-69619383D01*
X176738486Y-69380630D01*
X176688070Y-69127172D01*
X176688070Y-68868748D01*
X176738486Y-68615290D01*
X176837380Y-68376537D01*
X176980953Y-68161666D01*
X176980955Y-68161663D01*
X177163683Y-67978935D01*
X177164656Y-67978285D01*
X177378557Y-67835360D01*
X177617310Y-67736466D01*
X177617311Y-67736466D01*
X177617313Y-67736465D01*
X177870767Y-67686050D01*
X178129193Y-67686050D01*
X178382647Y-67736465D01*
X178382647Y-67736465D01*
G37*
G36*
X162383187Y-67736465D02*
X162383189Y-67736466D01*
X162383190Y-67736466D01*
X162621943Y-67835360D01*
X162835844Y-67978285D01*
X162836817Y-67978935D01*
X163019545Y-68161663D01*
X163019547Y-68161666D01*
X163163120Y-68376537D01*
X163262014Y-68615290D01*
X163312430Y-68868748D01*
X163312430Y-69127172D01*
X163262014Y-69380630D01*
X163163120Y-69619383D01*
X163020195Y-69833284D01*
X163019545Y-69834257D01*
X162836817Y-70016985D01*
X162836814Y-70016987D01*
X162621943Y-70160560D01*
X162383190Y-70259454D01*
X162383189Y-70259454D01*
X162383187Y-70259455D01*
X162129733Y-70309870D01*
X161871307Y-70309870D01*
X161617853Y-70259455D01*
X161617851Y-70259454D01*
X161617850Y-70259454D01*
X161379097Y-70160560D01*
X161164226Y-70016987D01*
X161164223Y-70016985D01*
X160981495Y-69834257D01*
X160980845Y-69833284D01*
X160837920Y-69619383D01*
X160739026Y-69380630D01*
X160688610Y-69127172D01*
X160688610Y-68868748D01*
X160739026Y-68615290D01*
X160837920Y-68376537D01*
X160981493Y-68161666D01*
X160981495Y-68161663D01*
X161164223Y-67978935D01*
X161165196Y-67978285D01*
X161379097Y-67835360D01*
X161617850Y-67736466D01*
X161617851Y-67736466D01*
X161617853Y-67736465D01*
X161871307Y-67686050D01*
X162129733Y-67686050D01*
X162383187Y-67736465D01*
X162383187Y-67736465D01*
G37*
G36*
X154384727Y-67736465D02*
X154384729Y-67736466D01*
X154384730Y-67736466D01*
X154623483Y-67835360D01*
X154837384Y-67978285D01*
X154838357Y-67978935D01*
X155021085Y-68161663D01*
X155021087Y-68161666D01*
X155164660Y-68376537D01*
X155263554Y-68615290D01*
X155313970Y-68868748D01*
X155313970Y-69127172D01*
X155263554Y-69380630D01*
X155164660Y-69619383D01*
X155021735Y-69833284D01*
X155021085Y-69834257D01*
X154838357Y-70016985D01*
X154838354Y-70016987D01*
X154623483Y-70160560D01*
X154384730Y-70259454D01*
X154384729Y-70259454D01*
X154384727Y-70259455D01*
X154131273Y-70309870D01*
X153872847Y-70309870D01*
X153619393Y-70259455D01*
X153619391Y-70259454D01*
X153619390Y-70259454D01*
X153380637Y-70160560D01*
X153165766Y-70016987D01*
X153165763Y-70016985D01*
X152983035Y-69834257D01*
X152982385Y-69833284D01*
X152839460Y-69619383D01*
X152740566Y-69380630D01*
X152690150Y-69127172D01*
X152690150Y-68868748D01*
X152740566Y-68615290D01*
X152839460Y-68376537D01*
X152983033Y-68161666D01*
X152983035Y-68161663D01*
X153165763Y-67978935D01*
X153166736Y-67978285D01*
X153380637Y-67835360D01*
X153619390Y-67736466D01*
X153619391Y-67736466D01*
X153619393Y-67736465D01*
X153872847Y-67686050D01*
X154131273Y-67686050D01*
X154384727Y-67736465D01*
X154384727Y-67736465D01*
G37*
G36*
X156383707Y-63738505D02*
X156383709Y-63738506D01*
X156383710Y-63738506D01*
X156622463Y-63837400D01*
X156836364Y-63980325D01*
X156837337Y-63980975D01*
X157020065Y-64163703D01*
X157020067Y-64163706D01*
X157163640Y-64378577D01*
X157262534Y-64617330D01*
X157312950Y-64870788D01*
X157312950Y-65129212D01*
X157262534Y-65382670D01*
X157163640Y-65621423D01*
X157020715Y-65835324D01*
X157020065Y-65836297D01*
X156837337Y-66019025D01*
X156837334Y-66019027D01*
X156622463Y-66162600D01*
X156383710Y-66261494D01*
X156383709Y-66261494D01*
X156383707Y-66261495D01*
X156130253Y-66311910D01*
X155871827Y-66311910D01*
X155618373Y-66261495D01*
X155618371Y-66261494D01*
X155618370Y-66261494D01*
X155379617Y-66162600D01*
X155164746Y-66019027D01*
X155164743Y-66019025D01*
X154982015Y-65836297D01*
X154981365Y-65835324D01*
X154838440Y-65621423D01*
X154739546Y-65382670D01*
X154689130Y-65129212D01*
X154689130Y-64870788D01*
X154739546Y-64617330D01*
X154838440Y-64378577D01*
X154982013Y-64163706D01*
X154982015Y-64163703D01*
X155164743Y-63980975D01*
X155165716Y-63980325D01*
X155379617Y-63837400D01*
X155618370Y-63738506D01*
X155618371Y-63738506D01*
X155618373Y-63738505D01*
X155871827Y-63688090D01*
X156130253Y-63688090D01*
X156383707Y-63738505D01*
X156383707Y-63738505D01*
G37*
G36*
X160384207Y-63738505D02*
X160384209Y-63738506D01*
X160384210Y-63738506D01*
X160622963Y-63837400D01*
X160836864Y-63980325D01*
X160837837Y-63980975D01*
X161020565Y-64163703D01*
X161020567Y-64163706D01*
X161164140Y-64378577D01*
X161263034Y-64617330D01*
X161313450Y-64870788D01*
X161313450Y-65129212D01*
X161263034Y-65382670D01*
X161164140Y-65621423D01*
X161021215Y-65835324D01*
X161020565Y-65836297D01*
X160837837Y-66019025D01*
X160837834Y-66019027D01*
X160622963Y-66162600D01*
X160384210Y-66261494D01*
X160384209Y-66261494D01*
X160384207Y-66261495D01*
X160130753Y-66311910D01*
X159872327Y-66311910D01*
X159618873Y-66261495D01*
X159618871Y-66261494D01*
X159618870Y-66261494D01*
X159380117Y-66162600D01*
X159165246Y-66019027D01*
X159165243Y-66019025D01*
X158982515Y-65836297D01*
X158981865Y-65835324D01*
X158838940Y-65621423D01*
X158740046Y-65382670D01*
X158689630Y-65129212D01*
X158689630Y-64870788D01*
X158740046Y-64617330D01*
X158838940Y-64378577D01*
X158982513Y-64163706D01*
X158982515Y-64163703D01*
X159165243Y-63980975D01*
X159166216Y-63980325D01*
X159380117Y-63837400D01*
X159618870Y-63738506D01*
X159618871Y-63738506D01*
X159618873Y-63738505D01*
X159872327Y-63688090D01*
X160130753Y-63688090D01*
X160384207Y-63738505D01*
X160384207Y-63738505D01*
G37*
G36*
X164384707Y-63738505D02*
X164384709Y-63738506D01*
X164384710Y-63738506D01*
X164623463Y-63837400D01*
X164837364Y-63980325D01*
X164838337Y-63980975D01*
X165021065Y-64163703D01*
X165021067Y-64163706D01*
X165164640Y-64378577D01*
X165263534Y-64617330D01*
X165313950Y-64870788D01*
X165313950Y-65129212D01*
X165263534Y-65382670D01*
X165164640Y-65621423D01*
X165021715Y-65835324D01*
X165021065Y-65836297D01*
X164838337Y-66019025D01*
X164838334Y-66019027D01*
X164623463Y-66162600D01*
X164384710Y-66261494D01*
X164384709Y-66261494D01*
X164384707Y-66261495D01*
X164131253Y-66311910D01*
X163872827Y-66311910D01*
X163619373Y-66261495D01*
X163619371Y-66261494D01*
X163619370Y-66261494D01*
X163380617Y-66162600D01*
X163165746Y-66019027D01*
X163165743Y-66019025D01*
X162983015Y-65836297D01*
X162982365Y-65835324D01*
X162839440Y-65621423D01*
X162740546Y-65382670D01*
X162690130Y-65129212D01*
X162690130Y-64870788D01*
X162740546Y-64617330D01*
X162839440Y-64378577D01*
X162983013Y-64163706D01*
X162983015Y-64163703D01*
X163165743Y-63980975D01*
X163166716Y-63980325D01*
X163380617Y-63837400D01*
X163619370Y-63738506D01*
X163619371Y-63738506D01*
X163619373Y-63738505D01*
X163872827Y-63688090D01*
X164131253Y-63688090D01*
X164384707Y-63738505D01*
X164384707Y-63738505D01*
G37*
G36*
X168382667Y-63738505D02*
X168382669Y-63738506D01*
X168382670Y-63738506D01*
X168621423Y-63837400D01*
X168835324Y-63980325D01*
X168836297Y-63980975D01*
X169019025Y-64163703D01*
X169019027Y-64163706D01*
X169162600Y-64378577D01*
X169261494Y-64617330D01*
X169311910Y-64870788D01*
X169311910Y-65129212D01*
X169261494Y-65382670D01*
X169162600Y-65621423D01*
X169019675Y-65835324D01*
X169019025Y-65836297D01*
X168836297Y-66019025D01*
X168836294Y-66019027D01*
X168621423Y-66162600D01*
X168382670Y-66261494D01*
X168382669Y-66261494D01*
X168382667Y-66261495D01*
X168129213Y-66311910D01*
X167870787Y-66311910D01*
X167617333Y-66261495D01*
X167617331Y-66261494D01*
X167617330Y-66261494D01*
X167378577Y-66162600D01*
X167163706Y-66019027D01*
X167163703Y-66019025D01*
X166980975Y-65836297D01*
X166980325Y-65835324D01*
X166837400Y-65621423D01*
X166738506Y-65382670D01*
X166688090Y-65129212D01*
X166688090Y-64870788D01*
X166738506Y-64617330D01*
X166837400Y-64378577D01*
X166980973Y-64163706D01*
X166980975Y-64163703D01*
X167163703Y-63980975D01*
X167164676Y-63980325D01*
X167378577Y-63837400D01*
X167617330Y-63738506D01*
X167617331Y-63738506D01*
X167617333Y-63738505D01*
X167870787Y-63688090D01*
X168129213Y-63688090D01*
X168382667Y-63738505D01*
X168382667Y-63738505D01*
G37*
G36*
X172380627Y-63738505D02*
X172380629Y-63738506D01*
X172380630Y-63738506D01*
X172619383Y-63837400D01*
X172833284Y-63980325D01*
X172834257Y-63980975D01*
X173016985Y-64163703D01*
X173016987Y-64163706D01*
X173160560Y-64378577D01*
X173259454Y-64617330D01*
X173309870Y-64870788D01*
X173309870Y-65129212D01*
X173259454Y-65382670D01*
X173160560Y-65621423D01*
X173017635Y-65835324D01*
X173016985Y-65836297D01*
X172834257Y-66019025D01*
X172834254Y-66019027D01*
X172619383Y-66162600D01*
X172380630Y-66261494D01*
X172380629Y-66261494D01*
X172380627Y-66261495D01*
X172127173Y-66311910D01*
X171868747Y-66311910D01*
X171615293Y-66261495D01*
X171615291Y-66261494D01*
X171615290Y-66261494D01*
X171376537Y-66162600D01*
X171161666Y-66019027D01*
X171161663Y-66019025D01*
X170978935Y-65836297D01*
X170978285Y-65835324D01*
X170835360Y-65621423D01*
X170736466Y-65382670D01*
X170686050Y-65129212D01*
X170686050Y-64870788D01*
X170736466Y-64617330D01*
X170835360Y-64378577D01*
X170978933Y-64163706D01*
X170978935Y-64163703D01*
X171161663Y-63980975D01*
X171162636Y-63980325D01*
X171376537Y-63837400D01*
X171615290Y-63738506D01*
X171615291Y-63738506D01*
X171615293Y-63738505D01*
X171868747Y-63688090D01*
X172127173Y-63688090D01*
X172380627Y-63738505D01*
X172380627Y-63738505D01*
G37*
G36*
X176381127Y-63738505D02*
X176381129Y-63738506D01*
X176381130Y-63738506D01*
X176619883Y-63837400D01*
X176833784Y-63980325D01*
X176834757Y-63980975D01*
X177017485Y-64163703D01*
X177017487Y-64163706D01*
X177161060Y-64378577D01*
X177259954Y-64617330D01*
X177310370Y-64870788D01*
X177310370Y-65129212D01*
X177259954Y-65382670D01*
X177161060Y-65621423D01*
X177018135Y-65835324D01*
X177017485Y-65836297D01*
X176834757Y-66019025D01*
X176834754Y-66019027D01*
X176619883Y-66162600D01*
X176381130Y-66261494D01*
X176381129Y-66261494D01*
X176381127Y-66261495D01*
X176127673Y-66311910D01*
X175869247Y-66311910D01*
X175615793Y-66261495D01*
X175615791Y-66261494D01*
X175615790Y-66261494D01*
X175377037Y-66162600D01*
X175162166Y-66019027D01*
X175162163Y-66019025D01*
X174979435Y-65836297D01*
X174978785Y-65835324D01*
X174835860Y-65621423D01*
X174736966Y-65382670D01*
X174686550Y-65129212D01*
X174686550Y-64870788D01*
X174736966Y-64617330D01*
X174835860Y-64378577D01*
X174979433Y-64163706D01*
X174979435Y-64163703D01*
X175162163Y-63980975D01*
X175163136Y-63980325D01*
X175377037Y-63837400D01*
X175615790Y-63738506D01*
X175615791Y-63738506D01*
X175615793Y-63738505D01*
X175869247Y-63688090D01*
X176127673Y-63688090D01*
X176381127Y-63738505D01*
X176381127Y-63738505D01*
G37*
G36*
X180381627Y-63738505D02*
X180381629Y-63738506D01*
X180381630Y-63738506D01*
X180620383Y-63837400D01*
X180834284Y-63980325D01*
X180835257Y-63980975D01*
X181017985Y-64163703D01*
X181017987Y-64163706D01*
X181161560Y-64378577D01*
X181260454Y-64617330D01*
X181310870Y-64870788D01*
X181310870Y-65129212D01*
X181260454Y-65382670D01*
X181161560Y-65621423D01*
X181018635Y-65835324D01*
X181017985Y-65836297D01*
X180835257Y-66019025D01*
X180835254Y-66019027D01*
X180620383Y-66162600D01*
X180381630Y-66261494D01*
X180381629Y-66261494D01*
X180381627Y-66261495D01*
X180128173Y-66311910D01*
X179869747Y-66311910D01*
X179616293Y-66261495D01*
X179616291Y-66261494D01*
X179616290Y-66261494D01*
X179377537Y-66162600D01*
X179162666Y-66019027D01*
X179162663Y-66019025D01*
X178979935Y-65836297D01*
X178979285Y-65835324D01*
X178836360Y-65621423D01*
X178737466Y-65382670D01*
X178687050Y-65129212D01*
X178687050Y-64870788D01*
X178737466Y-64617330D01*
X178836360Y-64378577D01*
X178979933Y-64163706D01*
X178979935Y-64163703D01*
X179162663Y-63980975D01*
X179163636Y-63980325D01*
X179377537Y-63837400D01*
X179616290Y-63738506D01*
X179616291Y-63738506D01*
X179616293Y-63738505D01*
X179869747Y-63688090D01*
X180128173Y-63688090D01*
X180381627Y-63738505D01*
X180381627Y-63738505D01*
G37*
G36*
X182380607Y-59740545D02*
X182380609Y-59740546D01*
X182380610Y-59740546D01*
X182619363Y-59839440D01*
X182833264Y-59982365D01*
X182834237Y-59983015D01*
X183016965Y-60165743D01*
X183016967Y-60165746D01*
X183160540Y-60380617D01*
X183259434Y-60619370D01*
X183309850Y-60872828D01*
X183309850Y-61131252D01*
X183259434Y-61384710D01*
X183160540Y-61623463D01*
X183017615Y-61837364D01*
X183016965Y-61838337D01*
X182834237Y-62021065D01*
X182834234Y-62021067D01*
X182619363Y-62164640D01*
X182380610Y-62263534D01*
X182380609Y-62263534D01*
X182380607Y-62263535D01*
X182127153Y-62313950D01*
X181868727Y-62313950D01*
X181615273Y-62263535D01*
X181615271Y-62263534D01*
X181615270Y-62263534D01*
X181376517Y-62164640D01*
X181161646Y-62021067D01*
X181161643Y-62021065D01*
X180978915Y-61838337D01*
X180978265Y-61837364D01*
X180835340Y-61623463D01*
X180736446Y-61384710D01*
X180686030Y-61131252D01*
X180686030Y-60872828D01*
X180736446Y-60619370D01*
X180835340Y-60380617D01*
X180978913Y-60165746D01*
X180978915Y-60165743D01*
X181161643Y-59983015D01*
X181162616Y-59982365D01*
X181376517Y-59839440D01*
X181615270Y-59740546D01*
X181615271Y-59740546D01*
X181615273Y-59740545D01*
X181868727Y-59690130D01*
X182127153Y-59690130D01*
X182380607Y-59740545D01*
X182380607Y-59740545D01*
G37*
G36*
X166383687Y-59740545D02*
X166383689Y-59740546D01*
X166383690Y-59740546D01*
X166622443Y-59839440D01*
X166836344Y-59982365D01*
X166837317Y-59983015D01*
X167020045Y-60165743D01*
X167020047Y-60165746D01*
X167163620Y-60380617D01*
X167262514Y-60619370D01*
X167312930Y-60872828D01*
X167312930Y-61131252D01*
X167262514Y-61384710D01*
X167163620Y-61623463D01*
X167020695Y-61837364D01*
X167020045Y-61838337D01*
X166837317Y-62021065D01*
X166837314Y-62021067D01*
X166622443Y-62164640D01*
X166383690Y-62263534D01*
X166383689Y-62263534D01*
X166383687Y-62263535D01*
X166130233Y-62313950D01*
X165871807Y-62313950D01*
X165618353Y-62263535D01*
X165618351Y-62263534D01*
X165618350Y-62263534D01*
X165379597Y-62164640D01*
X165164726Y-62021067D01*
X165164723Y-62021065D01*
X164981995Y-61838337D01*
X164981345Y-61837364D01*
X164838420Y-61623463D01*
X164739526Y-61384710D01*
X164689110Y-61131252D01*
X164689110Y-60872828D01*
X164739526Y-60619370D01*
X164838420Y-60380617D01*
X164981993Y-60165746D01*
X164981995Y-60165743D01*
X165164723Y-59983015D01*
X165165696Y-59982365D01*
X165379597Y-59839440D01*
X165618350Y-59740546D01*
X165618351Y-59740546D01*
X165618353Y-59740545D01*
X165871807Y-59690130D01*
X166130233Y-59690130D01*
X166383687Y-59740545D01*
X166383687Y-59740545D01*
G37*
G36*
X170381647Y-59740545D02*
X170381649Y-59740546D01*
X170381650Y-59740546D01*
X170620403Y-59839440D01*
X170834304Y-59982365D01*
X170835277Y-59983015D01*
X171018005Y-60165743D01*
X171018007Y-60165746D01*
X171161580Y-60380617D01*
X171260474Y-60619370D01*
X171310890Y-60872828D01*
X171310890Y-61131252D01*
X171260474Y-61384710D01*
X171161580Y-61623463D01*
X171018655Y-61837364D01*
X171018005Y-61838337D01*
X170835277Y-62021065D01*
X170835274Y-62021067D01*
X170620403Y-62164640D01*
X170381650Y-62263534D01*
X170381649Y-62263534D01*
X170381647Y-62263535D01*
X170128193Y-62313950D01*
X169869767Y-62313950D01*
X169616313Y-62263535D01*
X169616311Y-62263534D01*
X169616310Y-62263534D01*
X169377557Y-62164640D01*
X169162686Y-62021067D01*
X169162683Y-62021065D01*
X168979955Y-61838337D01*
X168979305Y-61837364D01*
X168836380Y-61623463D01*
X168737486Y-61384710D01*
X168687070Y-61131252D01*
X168687070Y-60872828D01*
X168737486Y-60619370D01*
X168836380Y-60380617D01*
X168979953Y-60165746D01*
X168979955Y-60165743D01*
X169162683Y-59983015D01*
X169163656Y-59982365D01*
X169377557Y-59839440D01*
X169616310Y-59740546D01*
X169616311Y-59740546D01*
X169616313Y-59740545D01*
X169869767Y-59690130D01*
X170128193Y-59690130D01*
X170381647Y-59740545D01*
X170381647Y-59740545D01*
G37*
G36*
X174382147Y-59740545D02*
X174382149Y-59740546D01*
X174382150Y-59740546D01*
X174620903Y-59839440D01*
X174834804Y-59982365D01*
X174835777Y-59983015D01*
X175018505Y-60165743D01*
X175018507Y-60165746D01*
X175162080Y-60380617D01*
X175260974Y-60619370D01*
X175311390Y-60872828D01*
X175311390Y-61131252D01*
X175260974Y-61384710D01*
X175162080Y-61623463D01*
X175019155Y-61837364D01*
X175018505Y-61838337D01*
X174835777Y-62021065D01*
X174835774Y-62021067D01*
X174620903Y-62164640D01*
X174382150Y-62263534D01*
X174382149Y-62263534D01*
X174382147Y-62263535D01*
X174128693Y-62313950D01*
X173870267Y-62313950D01*
X173616813Y-62263535D01*
X173616811Y-62263534D01*
X173616810Y-62263534D01*
X173378057Y-62164640D01*
X173163186Y-62021067D01*
X173163183Y-62021065D01*
X172980455Y-61838337D01*
X172979805Y-61837364D01*
X172836880Y-61623463D01*
X172737986Y-61384710D01*
X172687570Y-61131252D01*
X172687570Y-60872828D01*
X172737986Y-60619370D01*
X172836880Y-60380617D01*
X172980453Y-60165746D01*
X172980455Y-60165743D01*
X173163183Y-59983015D01*
X173164156Y-59982365D01*
X173378057Y-59839440D01*
X173616810Y-59740546D01*
X173616811Y-59740546D01*
X173616813Y-59740545D01*
X173870267Y-59690130D01*
X174128693Y-59690130D01*
X174382147Y-59740545D01*
X174382147Y-59740545D01*
G37*
G36*
X158382687Y-59740545D02*
X158382689Y-59740546D01*
X158382690Y-59740546D01*
X158621443Y-59839440D01*
X158835344Y-59982365D01*
X158836317Y-59983015D01*
X159019045Y-60165743D01*
X159019047Y-60165746D01*
X159162620Y-60380617D01*
X159261514Y-60619370D01*
X159311930Y-60872828D01*
X159311930Y-61131252D01*
X159261514Y-61384710D01*
X159162620Y-61623463D01*
X159019695Y-61837364D01*
X159019045Y-61838337D01*
X158836317Y-62021065D01*
X158836314Y-62021067D01*
X158621443Y-62164640D01*
X158382690Y-62263534D01*
X158382689Y-62263534D01*
X158382687Y-62263535D01*
X158129233Y-62313950D01*
X157870807Y-62313950D01*
X157617353Y-62263535D01*
X157617351Y-62263534D01*
X157617350Y-62263534D01*
X157378597Y-62164640D01*
X157163726Y-62021067D01*
X157163723Y-62021065D01*
X156980995Y-61838337D01*
X156980345Y-61837364D01*
X156837420Y-61623463D01*
X156738526Y-61384710D01*
X156688110Y-61131252D01*
X156688110Y-60872828D01*
X156738526Y-60619370D01*
X156837420Y-60380617D01*
X156980993Y-60165746D01*
X156980995Y-60165743D01*
X157163723Y-59983015D01*
X157164696Y-59982365D01*
X157378597Y-59839440D01*
X157617350Y-59740546D01*
X157617351Y-59740546D01*
X157617353Y-59740545D01*
X157870807Y-59690130D01*
X158129233Y-59690130D01*
X158382687Y-59740545D01*
X158382687Y-59740545D01*
G37*
G36*
X155313970Y-62313950D02*
X152690150Y-62313950D01*
X152690150Y-59690130D01*
X155313970Y-59690130D01*
X155313970Y-62313950D01*
X155313970Y-62313950D01*
G37*
G36*
X178382647Y-59740545D02*
X178382649Y-59740546D01*
X178382650Y-59740546D01*
X178621403Y-59839440D01*
X178835304Y-59982365D01*
X178836277Y-59983015D01*
X179019005Y-60165743D01*
X179019007Y-60165746D01*
X179162580Y-60380617D01*
X179261474Y-60619370D01*
X179311890Y-60872828D01*
X179311890Y-61131252D01*
X179261474Y-61384710D01*
X179162580Y-61623463D01*
X179019655Y-61837364D01*
X179019005Y-61838337D01*
X178836277Y-62021065D01*
X178836274Y-62021067D01*
X178621403Y-62164640D01*
X178382650Y-62263534D01*
X178382649Y-62263534D01*
X178382647Y-62263535D01*
X178129193Y-62313950D01*
X177870767Y-62313950D01*
X177617313Y-62263535D01*
X177617311Y-62263534D01*
X177617310Y-62263534D01*
X177378557Y-62164640D01*
X177163686Y-62021067D01*
X177163683Y-62021065D01*
X176980955Y-61838337D01*
X176980305Y-61837364D01*
X176837380Y-61623463D01*
X176738486Y-61384710D01*
X176688070Y-61131252D01*
X176688070Y-60872828D01*
X176738486Y-60619370D01*
X176837380Y-60380617D01*
X176980953Y-60165746D01*
X176980955Y-60165743D01*
X177163683Y-59983015D01*
X177164656Y-59982365D01*
X177378557Y-59839440D01*
X177617310Y-59740546D01*
X177617311Y-59740546D01*
X177617313Y-59740545D01*
X177870767Y-59690130D01*
X178129193Y-59690130D01*
X178382647Y-59740545D01*
X178382647Y-59740545D01*
G37*
G36*
X162383187Y-59740545D02*
X162383189Y-59740546D01*
X162383190Y-59740546D01*
X162621943Y-59839440D01*
X162835844Y-59982365D01*
X162836817Y-59983015D01*
X163019545Y-60165743D01*
X163019547Y-60165746D01*
X163163120Y-60380617D01*
X163262014Y-60619370D01*
X163312430Y-60872828D01*
X163312430Y-61131252D01*
X163262014Y-61384710D01*
X163163120Y-61623463D01*
X163020195Y-61837364D01*
X163019545Y-61838337D01*
X162836817Y-62021065D01*
X162836814Y-62021067D01*
X162621943Y-62164640D01*
X162383190Y-62263534D01*
X162383189Y-62263534D01*
X162383187Y-62263535D01*
X162129733Y-62313950D01*
X161871307Y-62313950D01*
X161617853Y-62263535D01*
X161617851Y-62263534D01*
X161617850Y-62263534D01*
X161379097Y-62164640D01*
X161164226Y-62021067D01*
X161164223Y-62021065D01*
X160981495Y-61838337D01*
X160980845Y-61837364D01*
X160837920Y-61623463D01*
X160739026Y-61384710D01*
X160688610Y-61131252D01*
X160688610Y-60872828D01*
X160739026Y-60619370D01*
X160837920Y-60380617D01*
X160981493Y-60165746D01*
X160981495Y-60165743D01*
X161164223Y-59983015D01*
X161165196Y-59982365D01*
X161379097Y-59839440D01*
X161617850Y-59740546D01*
X161617851Y-59740546D01*
X161617853Y-59740545D01*
X161871307Y-59690130D01*
X162129733Y-59690130D01*
X162383187Y-59740545D01*
X162383187Y-59740545D01*
G37*
G36*
X164600510Y-58749960D02*
X163602290Y-58749960D01*
X163602290Y-56850040D01*
X164600510Y-56850040D01*
X164600510Y-58749960D01*
X164600510Y-58749960D01*
G37*
G36*
X167597710Y-58749960D02*
X166599490Y-58749960D01*
X166599490Y-56850040D01*
X167597710Y-56850040D01*
X167597710Y-58749960D01*
X167597710Y-58749960D01*
G37*
G36*
X171542800Y-57369900D02*
X170780800Y-57369900D01*
X170780800Y-56430100D01*
X171542800Y-56430100D01*
X171542800Y-57369900D01*
X171542800Y-57369900D01*
G37*
G36*
X173219200Y-57369900D02*
X172457200Y-57369900D01*
X172457200Y-56430100D01*
X173219200Y-56430100D01*
X173219200Y-57369900D01*
X173219200Y-57369900D01*
G37*
G36*
X153014666Y-55990000D02*
X151014666Y-55990000D01*
X151014666Y-54690000D01*
X153014666Y-54690000D01*
X153014666Y-55990000D01*
X153014666Y-55990000D01*
G37*
G36*
X163842800Y-55969900D02*
X163080800Y-55969900D01*
X163080800Y-55030100D01*
X163842800Y-55030100D01*
X163842800Y-55969900D01*
X163842800Y-55969900D01*
G37*
G36*
X165519200Y-55969900D02*
X164757200Y-55969900D01*
X164757200Y-55030100D01*
X165519200Y-55030100D01*
X165519200Y-55969900D01*
X165519200Y-55969900D01*
G37*
G36*
X155369900Y-55719200D02*
X154430100Y-55719200D01*
X154430100Y-54957200D01*
X155369900Y-54957200D01*
X155369900Y-55719200D01*
X155369900Y-55719200D01*
G37*
G36*
X192039105Y-52741016D02*
X192135696Y-52760229D01*
X192248759Y-52807062D01*
X192408654Y-52873292D01*
X192654314Y-53037437D01*
X192863223Y-53246346D01*
X193027368Y-53492006D01*
X193140431Y-53764965D01*
X193198070Y-54054734D01*
X193198070Y-54350186D01*
X193140431Y-54639955D01*
X193027368Y-54912914D01*
X192863223Y-55158574D01*
X192654314Y-55367483D01*
X192408654Y-55531628D01*
X192248759Y-55597858D01*
X192135696Y-55644691D01*
X192039105Y-55663904D01*
X191845926Y-55702330D01*
X191550474Y-55702330D01*
X191357295Y-55663904D01*
X191260704Y-55644691D01*
X191147641Y-55597858D01*
X190987746Y-55531628D01*
X190742086Y-55367483D01*
X190533177Y-55158574D01*
X190369032Y-54912914D01*
X190255969Y-54639955D01*
X190198330Y-54350186D01*
X190198330Y-54054734D01*
X190255969Y-53764965D01*
X190369032Y-53492006D01*
X190533177Y-53246346D01*
X190742086Y-53037437D01*
X190987746Y-52873292D01*
X191147641Y-52807062D01*
X191260704Y-52760229D01*
X191357295Y-52741016D01*
X191550474Y-52702590D01*
X191845926Y-52702590D01*
X192039105Y-52741016D01*
X192039105Y-52741016D01*
G37*
G36*
X144642705Y-52741016D02*
X144739296Y-52760229D01*
X144852359Y-52807062D01*
X145012254Y-52873292D01*
X145257914Y-53037437D01*
X145466823Y-53246346D01*
X145630968Y-53492006D01*
X145744031Y-53764965D01*
X145801670Y-54054734D01*
X145801670Y-54350186D01*
X145744031Y-54639955D01*
X145630968Y-54912914D01*
X145466823Y-55158574D01*
X145257914Y-55367483D01*
X145012254Y-55531628D01*
X144852359Y-55597858D01*
X144739296Y-55644691D01*
X144642705Y-55663904D01*
X144449526Y-55702330D01*
X144154074Y-55702330D01*
X143960895Y-55663904D01*
X143864304Y-55644691D01*
X143751241Y-55597858D01*
X143591346Y-55531628D01*
X143345686Y-55367483D01*
X143136777Y-55158574D01*
X142972632Y-54912914D01*
X142859569Y-54639955D01*
X142801930Y-54350186D01*
X142801930Y-54054734D01*
X142859569Y-53764965D01*
X142972632Y-53492006D01*
X143136777Y-53246346D01*
X143345686Y-53037437D01*
X143591346Y-52873292D01*
X143751241Y-52807062D01*
X143864304Y-52760229D01*
X143960895Y-52741016D01*
X144154074Y-52702590D01*
X144449526Y-52702590D01*
X144642705Y-52741016D01*
X144642705Y-52741016D01*
G37*
G36*
X160250000Y-51825000D02*
X160252402Y-51849386D01*
X160259515Y-51872835D01*
X160271066Y-51894446D01*
X160286612Y-51913388D01*
X160305554Y-51928934D01*
X160327165Y-51940485D01*
X160350614Y-51947598D01*
X160352242Y-51947758D01*
X160352402Y-51949386D01*
X160359515Y-51972835D01*
X160371066Y-51994446D01*
X160386612Y-52013388D01*
X160405554Y-52028934D01*
X160427165Y-52040485D01*
X160450614Y-52047598D01*
X160475000Y-52050000D01*
X161600000Y-52050000D01*
X161600000Y-54350000D01*
X160475000Y-54350000D01*
X160450614Y-54352402D01*
X160427165Y-54359515D01*
X160405554Y-54371066D01*
X160386612Y-54386612D01*
X160371066Y-54405554D01*
X160359515Y-54427165D01*
X160352402Y-54450614D01*
X160352242Y-54452242D01*
X160350614Y-54452402D01*
X160327165Y-54459515D01*
X160305554Y-54471066D01*
X160286612Y-54486612D01*
X160271066Y-54505554D01*
X160259515Y-54527165D01*
X160252402Y-54550614D01*
X160250000Y-54575000D01*
X160250000Y-55700000D01*
X157950000Y-55700000D01*
X157950000Y-54575000D01*
X157947598Y-54550614D01*
X157940485Y-54527165D01*
X157928934Y-54505554D01*
X157913388Y-54486612D01*
X157894446Y-54471066D01*
X157872835Y-54459515D01*
X157849386Y-54452402D01*
X157847758Y-54452242D01*
X157847598Y-54450614D01*
X157840485Y-54427165D01*
X157828934Y-54405554D01*
X157813388Y-54386612D01*
X157794446Y-54371066D01*
X157772835Y-54359515D01*
X157749386Y-54352402D01*
X157725000Y-54350000D01*
X156600000Y-54350000D01*
X156600000Y-52050000D01*
X157725000Y-52050000D01*
X157749386Y-52047598D01*
X157772835Y-52040485D01*
X157794446Y-52028934D01*
X157813388Y-52013388D01*
X157828934Y-51994446D01*
X157840485Y-51972835D01*
X157847598Y-51949386D01*
X157847758Y-51947758D01*
X157849386Y-51947598D01*
X157872835Y-51940485D01*
X157894446Y-51928934D01*
X157913388Y-51913388D01*
X157928934Y-51894446D01*
X157940485Y-51872835D01*
X157947598Y-51849386D01*
X157950000Y-51825000D01*
X157950000Y-50700000D01*
X160250000Y-50700000D01*
X160250000Y-51825000D01*
X160250000Y-51825000D01*
G37*
G36*
X181250000Y-55250000D02*
X178450000Y-55250000D01*
X178450000Y-53550000D01*
X181250000Y-53550000D01*
X181250000Y-55250000D01*
X181250000Y-55250000D01*
G37*
G36*
X166641000Y-54505000D02*
X165117000Y-54505000D01*
X165117000Y-53905000D01*
X166641000Y-53905000D01*
X166641000Y-54505000D01*
X166641000Y-54505000D01*
G37*
G36*
X172483000Y-54505000D02*
X170959000Y-54505000D01*
X170959000Y-53905000D01*
X172483000Y-53905000D01*
X172483000Y-54505000D01*
X172483000Y-54505000D01*
G37*
G36*
X155369900Y-54042800D02*
X154430100Y-54042800D01*
X154430100Y-53280800D01*
X155369900Y-53280800D01*
X155369900Y-54042800D01*
X155369900Y-54042800D01*
G37*
G36*
X164169900Y-53519200D02*
X163230100Y-53519200D01*
X163230100Y-52757200D01*
X164169900Y-52757200D01*
X164169900Y-53519200D01*
X164169900Y-53519200D01*
G37*
G36*
X166641000Y-53235000D02*
X165117000Y-53235000D01*
X165117000Y-52635000D01*
X166641000Y-52635000D01*
X166641000Y-53235000D01*
X166641000Y-53235000D01*
G37*
G36*
X172483000Y-53235000D02*
X170959000Y-53235000D01*
X170959000Y-52635000D01*
X172483000Y-52635000D01*
X172483000Y-53235000D01*
X172483000Y-53235000D01*
G37*
G36*
X155369900Y-52319200D02*
X154430100Y-52319200D01*
X154430100Y-51557200D01*
X155369900Y-51557200D01*
X155369900Y-52319200D01*
X155369900Y-52319200D01*
G37*
G36*
X166641000Y-52017500D02*
X165117000Y-52017500D01*
X165117000Y-51382500D01*
X166641000Y-51382500D01*
X166641000Y-52017500D01*
X166641000Y-52017500D01*
G37*
G36*
X172483000Y-51965000D02*
X170959000Y-51965000D01*
X170959000Y-51365000D01*
X172483000Y-51365000D01*
X172483000Y-51965000D01*
X172483000Y-51965000D01*
G37*
G36*
X164169900Y-51842800D02*
X163230100Y-51842800D01*
X163230100Y-51080800D01*
X164169900Y-51080800D01*
X164169900Y-51842800D01*
X164169900Y-51842800D01*
G37*
G36*
X181250000Y-51750000D02*
X178450000Y-51750000D01*
X178450000Y-50050000D01*
X181250000Y-50050000D01*
X181250000Y-51750000D01*
X181250000Y-51750000D01*
G37*
G36*
X153014666Y-50910000D02*
X151014666Y-50910000D01*
X151014666Y-49610000D01*
X153014666Y-49610000D01*
X153014666Y-50910000D01*
X153014666Y-50910000D01*
G37*
G36*
X166641000Y-50695000D02*
X165117000Y-50695000D01*
X165117000Y-50095000D01*
X166641000Y-50095000D01*
X166641000Y-50695000D01*
X166641000Y-50695000D01*
G37*
G36*
X172483000Y-50695000D02*
X170959000Y-50695000D01*
X170959000Y-50095000D01*
X172483000Y-50095000D01*
X172483000Y-50695000D01*
X172483000Y-50695000D01*
G37*
G36*
X155369900Y-50642800D02*
X154430100Y-50642800D01*
X154430100Y-49880800D01*
X155369900Y-49880800D01*
X155369900Y-50642800D01*
X155369900Y-50642800D01*
G37*
M02*
