M48
;DRILL file {KiCad (5.0.2-dirty)} date su 10. helmikuuta 2019 17.18.54
;FORMAT={-:-/ absolute / inch / decimal}
FMAT,2
INCH,TZ
T1C0.0157
T2C0.0688
T3C0.0787
%
G90
G05
T1
X5.1201Y-5.0374
X5.122Y-4.6811
X5.124Y-2.6181
X5.126Y-4.4252
X5.126Y-4.5472
X5.1417Y-1.9902
X5.2165Y-4.2953
X5.2205Y-3.4843
X5.2224Y-3.9409
X5.2244Y-5.1772
X5.2283Y-2.752
X5.2598Y-4.6654
X5.2638Y-4.5493
X5.2874Y-4.7835
X5.2894Y-4.9961
X5.315Y-4.6535
X5.3169Y-4.2205
X5.3209Y-5.435
X5.321Y-4.4302
X5.3346Y-4.7835
X5.3465Y-4.7126
X5.3485Y-4.5157
X5.3583Y-4.1417
X5.3661Y-4.6457
X5.3819Y-4.0827
X5.4094Y-4.4567
X5.4094Y-4.622
X5.4173Y-4.1102
X5.4213Y-4.7047
X5.4409Y-3.6772
X5.4449Y-3.1417
X5.4464Y-4.189
X5.4518Y-4.7814
X5.4685Y-3.8047
X5.4759Y-3.7008
X5.4823Y-5.0728
X5.4858Y-4.1866
X5.4873Y-4.232
X5.5197Y-3.6929
X5.5236Y-2.2067
X5.5261Y-4.2259
X5.5326Y-4.2697
X5.5735Y-4.2582
X5.5866Y-4.2953
X5.591Y-4.6427
X5.6083Y-4.4665
X5.6122Y-4.9154
X5.6201Y-2.378
X5.622Y-4.3228
X5.626Y-3.8628
X5.6457Y-4.3545
X5.6614Y-3.1864
X5.6811Y-3.6772
X5.687Y-4.813
X5.7148Y-4.4548
X5.7197Y-3.685
X5.7205Y-3.8047
X5.7264Y-5.4291
X5.7362Y-2.8031
X5.752Y-3.8538
X5.7539Y-4.4505
X5.7717Y-3.689
X5.7874Y-5.252
X5.8066Y-4.4748
X5.8287Y-2.2067
X5.8324Y-4.5735
X5.8346Y-4.6949
X5.8475Y-4.4764
X5.8917Y-2.8957
X5.9035Y-1.9764
X5.9134Y-3.1929
X5.9213Y-3.689
X5.9331Y-4.878
X5.9488Y-3.0886
X5.9567Y-3.7874
X5.9646Y-3.6922
X5.9843Y-4.878
X6.0197Y-3.689
X6.0315Y-4.6339
X6.0354Y-4.9921
X6.0453Y-2.6142
X6.0512Y-3.8504
X6.0945Y-4.7106
X6.0984Y-2.0787
X6.122Y-5.2618
X6.124Y-5.3583
X6.1614Y-3.1864
X6.1732Y-3.689
X6.1969Y-3.8229
X6.2028Y-3.1358
X6.2402Y-3.6949
X6.2559Y-5.2008
X6.2823Y-3.6969
X6.2992Y-3.937
X6.3642Y-2.2638
X6.4094Y-3.1864
X6.441Y-3.6793
X6.4528Y-3.0748
X6.4587Y-2.4665
X6.4709Y-3.8031
X6.4803Y-3.6811
X6.4843Y-2.0841
X6.5157Y-2.2795
X6.5157Y-5.1378
X6.5236Y-3.6811
X6.5472Y-2.185
X6.5748Y-3.8504
X6.5866Y-2.0354
X6.6555Y-5.3976
X6.6654Y-3.1864
X6.689Y-3.0098
X6.6892Y-3.6806
X6.7087Y-1.9843
X6.7266Y-3.8029
X6.7283Y-3.6843
X6.7323Y-5.126
X6.7756Y-3.6811
X6.8189Y-3.8504
X6.8524Y-2.4921
X6.9015Y-3.6457
X6.9016Y-2.311
X6.9035Y-2.1516
X6.9134Y-2.063
X6.9173Y-3.1864
X6.9409Y-2.2165
X6.9567Y-2.9291
X6.9705Y-5.1535
X6.9724Y-3.685
X6.9724Y-4.626
X6.9764Y-4.9409
X7.0276Y-3.689
X7.0354Y-5.3898
X7.0512Y-3.8465
X7.1063Y-3.8047
X7.1339Y-3.1457
X7.1417Y-2.9606
X7.1673Y-5.3976
X7.2008Y-2.6122
X7.2362Y-4.9311
X7.2598Y-3.4449
X7.2992Y-3.4488
X7.3228Y-3.2609
X7.3425Y-3.4488
X7.3898Y-3.4449
X7.4055Y-2.061
X7.4528Y-5.3504
X7.5315Y-4.9055
X7.5549Y-3.4331
X7.5906Y-5.3996
X7.5945Y-3.4449
X7.626Y-3.2609
X7.6417Y-3.4449
X7.6555Y-1.9803
X7.6811Y-4.498
X7.6929Y-3.4449
X7.7874Y-2.4547
X7.9606Y-3.4961
X7.9705Y-2.8346
X8.0433Y-3.5787
X8.0709Y-4.7835
X8.0768Y-5.3898
X8.0787Y-2.9016
X8.0807Y-4.0925
X8.0846Y-1.9961
X8.0925Y-2.3268
X8.1102Y-2.7441
T2
X6.0631Y-2.4017
X6.0631Y-2.7165
X6.1418Y-2.5591
X6.2205Y-2.4017
X6.2205Y-2.7165
X6.2993Y-2.5591
X6.378Y-2.4017
X6.378Y-2.7165
X6.4568Y-2.5591
X6.5355Y-2.4017
X6.5355Y-2.7165
X6.6142Y-2.5591
X6.6929Y-2.4017
X6.6929Y-2.7165
X6.7716Y-2.5591
X6.8504Y-2.4017
X6.8504Y-2.7165
X6.9291Y-2.5591
X7.0079Y-2.4017
X7.0079Y-2.7165
X7.0866Y-2.5591
X7.1653Y-2.4017
X7.1653Y-2.7165
X6.4568Y-4.6851
X6.4568Y-4.9999
X6.5355Y-4.8425
X6.6142Y-4.6851
X6.6142Y-4.9999
X6.6929Y-4.8425
X6.7716Y-4.6851
X6.7716Y-4.9999
T3
X5.6221Y-2.8465
X5.6812Y-2.134
X7.5472Y-2.134
X7.6063Y-2.8465
X6.0158Y-5.1299
X6.0749Y-4.4174
X7.1535Y-4.4174
X7.2126Y-5.1299
T0
M30
