M48
INCH,TZ
T1C0.0157
T2C0.0688
T3C0.0787
%
G90
G05
T1
X51201Y-50374
X51220Y-46811
X51240Y-26181
X51260Y-44252
X51260Y-45472
X51417Y-19902
X52165Y-42953
X52205Y-34843
X52224Y-39409
X52244Y-51772
X52283Y-27520
X52598Y-46654
X52638Y-45493
X52874Y-47835
X52894Y-49961
X53150Y-46535
X53169Y-42205
X53209Y-54350
X53210Y-44302
X53346Y-47835
X53465Y-47126
X53485Y-45157
X53583Y-41417
X53661Y-46457
X53819Y-40827
X54094Y-44567
X54094Y-46220
X54134Y-38937
X54173Y-41102
X54213Y-47047
X54409Y-36772
X54449Y-31417
X54464Y-41890
X54518Y-47814
X54685Y-38047
X54759Y-37008
X54823Y-50728
X54858Y-41866
X54873Y-42320
X55197Y-36929
X55236Y-22067
X55261Y-42259
X55326Y-42697
X55735Y-42582
X55866Y-42953
X55910Y-46427
X56083Y-44665
X56122Y-49154
X56201Y-23780
X56220Y-43228
X56260Y-38628
X56457Y-43545
X56614Y-31864
X56811Y-36772
X56870Y-48130
X57148Y-44548
X57197Y-36850
X57205Y-38047
X57264Y-54291
X57362Y-28031
X57539Y-44505
X57631Y-38898
X57717Y-36890
X57874Y-52520
X58066Y-44748
X58287Y-22067
X58324Y-45735
X58346Y-46949
X58475Y-44764
X58917Y-28957
X59035Y-19764
X59134Y-31929
X59213Y-36890
X59331Y-48780
X59488Y-30886
X59567Y-37874
X59646Y-36922
X59843Y-48780
X60151Y-38858
X60197Y-36890
X60315Y-46339
X60354Y-49921
X60453Y-26142
X60945Y-47106
X60984Y-20787
X61220Y-52618
X61240Y-53583
X61614Y-31864
X61732Y-36890
X61969Y-38229
X62028Y-31358
X62402Y-36949
X62559Y-52008
X62823Y-36969
X63017Y-39126
X63642Y-22638
X64094Y-31864
X64410Y-36793
X64528Y-30748
X64587Y-24665
X64709Y-38031
X64803Y-36811
X64843Y-20841
X65157Y-22795
X65157Y-51378
X65236Y-36811
X65394Y-38937
X65472Y-21850
X65866Y-20354
X66555Y-53976
X66654Y-31864
X66890Y-30098
X66892Y-36806
X67087Y-19843
X67266Y-38029
X67283Y-36843
X67323Y-51260
X67756Y-36811
X67905Y-38770
X68524Y-24921
X69015Y-36457
X69016Y-23110
X69035Y-21516
X69134Y-20630
X69173Y-31864
X69409Y-22165
X69567Y-29291
X69705Y-51535
X69724Y-36850
X69724Y-46260
X69764Y-49409
X70276Y-36890
X70354Y-53898
X70357Y-38821
X70630Y-19724
X71063Y-38047
X71339Y-31457
X71417Y-29606
X71673Y-53976
X72008Y-26122
X72362Y-49311
X72598Y-34449
X72992Y-34488
X73228Y-32609
X73268Y-21575
X73425Y-34488
X73898Y-34449
X74528Y-53504
X75315Y-49055
X75549Y-34331
X75906Y-53996
X75945Y-34449
X76260Y-32609
X76417Y-34449
X76555Y-19803
X76811Y-44980
X76929Y-34449
X77874Y-24547
X79606Y-34961
X79705Y-28346
X80433Y-35787
X80709Y-47835
X80768Y-53898
X80787Y-29016
X80807Y-40925
X80846Y-19961
X80925Y-23268
X81102Y-27441
T2
X60631Y-24017
X60631Y-27165
X61418Y-25591
X62205Y-24017
X62205Y-27165
X62993Y-25591
X63780Y-24017
X63780Y-27165
X64568Y-25591
X65355Y-24017
X65355Y-27165
X66142Y-25591
X66929Y-24017
X66929Y-27165
X67716Y-25591
X68504Y-24017
X68504Y-27165
X69291Y-25591
X70079Y-24017
X70079Y-27165
X70866Y-25591
X71653Y-24017
X71653Y-27165
X64568Y-46851
X64568Y-49999
X65355Y-48425
X66142Y-46851
X66142Y-49999
X66929Y-48425
X67716Y-46851
X67716Y-49999
T3
X56221Y-28465
X56812Y-21340
X75472Y-21340
X76063Y-28465
X60158Y-51299
X60749Y-44174
X71535Y-44174
X72126Y-51299
T0
M30
